<svg xmlns="http://www.w3.org/2000/svg" width="24.135" height="14.641" viewBox="0 0 24.135 14.641">
    <defs>
        <style>
            .cls-1{fill:#f05c4e}
        </style>
    </defs>
    <g id="air-conditioner" transform="translate(0 -100.486)">
        <path id="Path_331" d="M22.438 100.486h-16.7a.354.354 0 1 0 0 .709h16.7a.989.989 0 0 1 .988.988v7.544a.989.989 0 0 1-.988.988h-.848v-2.308a.354.354 0 0 0-.354-.354H2.9a.354.354 0 0 0-.354.354v2.308H1.7a.989.989 0 0 1-.988-.988v-7.544a.989.989 0 0 1 .988-.988h2.621a.354.354 0 1 0 0-.709H1.7a1.7 1.7 0 0 0-1.7 1.7v7.544a1.7 1.7 0 0 0 1.7 1.7h3.684a.354.354 0 1 0 0-.709H3.253v-.623h14.08a.354.354 0 0 0 0-.709H3.253v-.623h17.628v.623H18.75a.354.354 0 0 0 0 .709h2.131v.623H6.8a.354.354 0 1 0 0 .709h15.638a1.7 1.7 0 0 0 1.7-1.7v-7.544a1.7 1.7 0 0 0-1.7-1.7z" class="cls-1" data-name="Path 331"/>
        <path id="Path_332" d="M421.262 147.176a.354.354 0 0 0 0-.709h-1.048a.354.354 0 1 0 0 .709z" class="cls-1" data-name="Path 332" transform="translate(-400.026 -43.809)"/>
        <path id="Path_333" d="M250.743 147.176a.354.354 0 1 0 0-.709h-6.706a.354.354 0 0 0 0 .709z" class="cls-1" data-name="Path 333" transform="translate(-232.172 -43.809)"/>
        <path id="Path_334" d="M110.877 352.064a.354.354 0 0 0-.354.354 2.34 2.34 0 0 1-.994 1.759.354.354 0 1 0 .411.578 3.047 3.047 0 0 0 1.292-2.337.354.354 0 0 0-.355-.354z" class="cls-1" data-name="Path 334" transform="translate(-104.212 -239.694)"/>
        <path id="Path_335" d="M187.637 352.064a.354.354 0 0 0-.354.354v2.048a.354.354 0 0 0 .709 0v-2.048a.354.354 0 0 0-.355-.354z" class="cls-1" data-name="Path 335" transform="translate(-178.436 -239.694)"/>
        <path id="Path_336" d="M250.418 352.064a.354.354 0 0 0-.354.354v2.048a.354.354 0 0 0 .709 0v-2.048a.354.354 0 0 0-.355-.354z" class="cls-1" data-name="Path 336" transform="translate(-238.251 -239.694)"/>
        <path id="Path_337" d="M364.031 354.178a2.332 2.332 0 0 1-.994-1.761.354.354 0 0 0-.709 0 3.047 3.047 0 0 0 1.292 2.337.354.354 0 1 0 .411-.578z" class="cls-1" data-name="Path 337" transform="translate(-345.212 -239.694)"/>
        <path id="Path_338" d="M308.98 352.064a.354.354 0 0 0-.354.354v2.048a.354.354 0 0 0 .709 0v-2.048a.354.354 0 0 0-.355-.354z" class="cls-1" data-name="Path 338" transform="translate(-294.047 -239.694)"/>
    </g>
</svg>
