<svg xmlns="http://www.w3.org/2000/svg" width="16.889" height="16.181" viewBox="0 0 16.889 16.181">
    <defs>
        <style>
            .cls-1{fill:#054d7f}
        </style>
    </defs>
    <path id="star" d="M16.522 8.38a1.211 1.211 0 0 0-.672-2.066l-4.089-.594a.534.534 0 0 1-.4-.293L9.53 1.722a1.211 1.211 0 0 0-2.172 0L5.53 5.428a.535.535 0 0 1-.4.293l-4.089.594A1.211 1.211 0 0 0 .366 8.38l2.959 2.884a.535.535 0 0 1 .154.473l-.7 4.073a1.186 1.186 0 0 0 .264.982 1.224 1.224 0 0 0 1.493.295L8.2 15.164a.547.547 0 0 1 .5 0l3.658 1.923a1.2 1.2 0 0 0 .563.141 1.215 1.215 0 0 0 .929-.436 1.185 1.185 0 0 0 .264-.982l-.7-4.073a.535.535 0 0 1 .154-.473z" class="cls-1" transform="translate(.001 -1.047)"/>
</svg>
