<svg id="Layer_1" data-name="Layer 1" xmlns="http://www.w3.org/2000/svg" viewBox="0 0 48 48"><defs><style>.cls-1{fill:none;stroke:#f05b4e;stroke-linejoin:round;stroke-width:2px;}</style></defs><title>Cab</title><path class="cls-1" d="M15.094,31c5.025-.008,11.965.027,17,.019"/><path class="cls-1" d="M41,31h6V25c0-2.337-6.833-5.25-11.953-6-3.884-3.685-7.326-6-11.111-6H16.094c-4.166,0-6.559,3-10.812,6H2.094a19.018,19.018,0,0,0-.875,8.935A3.668,3.668,0,0,0,5.094,31H6"/><polyline class="cls-1" points="32.094 20.203 30.094 21 14.094 21 11.094 18"/><circle class="cls-1" cx="36.594" cy="30.5" r="4.5"/><circle class="cls-1" cx="10.594" cy="30.5" r="4.5"/></svg>