<svg id="Layer_1" data-name="Layer 1" xmlns="http://www.w3.org/2000/svg" viewBox="0 0 48 48"><defs><style>.cls-1{fill:none;stroke:#9ba7be;stroke-miterlimit:10;stroke-width:1.2px;}</style></defs><title>cab</title><path class="cls-1" d="M35.884,27.815h-5v-.88a1.782,1.782,0,0,1,1.525-1.763l3.477-.479"/><path class="cls-1" d="M15.166,31.8v.586a2.68,2.68,0,0,1-2.68,2.68h0a2.68,2.68,0,0,1-2.68-2.68V24.106A1.457,1.457,0,0,0,9.07,22.84l-.645-.367A.509.509,0,0,1,8.09,22V20.28a.511.511,0,0,1,.51-.51h1.66a1.894,1.894,0,0,0,1.661-.985l2.421-4.44a2.705,2.705,0,0,1,2.374-1.409H31.284a2.705,2.705,0,0,1,2.374,1.409l2.422,4.44a1.891,1.891,0,0,0,1.66.985H39.4a.511.511,0,0,1,.51.51V22a.509.509,0,0,1-.335.478l-.644.367a1.456,1.456,0,0,0-.737,1.266v8.278a2.68,2.68,0,0,1-2.68,2.68h0a2.68,2.68,0,0,1-2.68-2.68V31.8Z"/><path class="cls-1" d="M26.808,19.812H14.282l2.262-4.148a.741.741,0,0,1,.65-.386H30.806a.741.741,0,0,1,.65.386l2.262,4.148Z"/><path class="cls-1" d="M12.116,24.693l3.477.479a1.782,1.782,0,0,1,1.525,1.763v.88h-5"/><path class="cls-1" d="M20.206,26.706,20.01,25h7.98l-.2,1.706A1.343,1.343,0,0,1,26.459,27.9H21.541A1.343,1.343,0,0,1,20.206,26.706Z"/><line class="cls-1" x1="32.834" y1="31.798" x2="35.884" y2="31.798"/><line class="cls-1" x1="15.166" y1="31.798" x2="12.116" y2="31.798"/></svg>