<svg xmlns="http://www.w3.org/2000/svg" width="27.029" height="22.999" viewBox="0 0 27.029 22.999">
    <defs>
        <style>
            .cls-1{fill:#fff}
        </style>
    </defs>
    <g id="speech-bubble" transform="translate(0 -36.5)">
        <g id="Group_2389" data-name="Group 2389" transform="translate(0 36.5)">
            <path id="Path_300" d="M21.8 48.921V39a2.5 2.5 0 0 0-2.5-2.5H2.5A2.5 2.5 0 0 0 0 39v9.926a2.5 2.5 0 0 0 2.5 2.5h.712v2.992a1 1 0 0 0 1 1 1.008 1.008 0 0 0 .756-.348l3.152-3.649h11.186a2.49 2.49 0 0 0 2.494-2.5zM7.806 50.064a.679.679 0 0 0-.513.232l-2.738 3.163v-2.721a.679.679 0 0 0-.679-.679H2.5a1.145 1.145 0 0 1-1.143-1.143V39A1.145 1.145 0 0 1 2.5 37.853h16.8A1.145 1.145 0 0 1 20.443 39v9.926a1.145 1.145 0 0 1-1.143 1.138z" class="cls-1" data-name="Path 300" transform="translate(0 -36.5)"/>
            <path id="Path_301" d="M165.486 129.066a.986.986 0 0 0 .751.348 1 1 0 0 0 .353-.066.99.99 0 0 0 .651-.939v-2.992h.712a2.5 2.5 0 0 0 2.5-2.5V113a2.5 2.5 0 0 0-2.5-2.5.676.676 0 1 0 0 1.353A1.145 1.145 0 0 1 169.1 113v9.926a1.145 1.145 0 0 1-1.143 1.143h-1.386a.679.679 0 0 0-.679.679v2.722l-2.742-3.17a.671.671 0 0 0-.513-.232h-10.158a.679.679 0 1 0 0 1.358h9.849z" class="cls-1" data-name="Path 301" transform="translate(-143.42 -106.415)"/>
            <circle id="Ellipse_107" cx=".806" cy=".806" r=".806" class="cls-1" data-name="Ellipse 107" transform="translate(10.092 6.89)"/>
            <circle id="Ellipse_108" cx=".806" cy=".806" r=".806" class="cls-1" data-name="Ellipse 108" transform="translate(12.791 6.89)"/>
            <circle id="Ellipse_109" cx=".806" cy=".806" r=".806" class="cls-1" data-name="Ellipse 109" transform="translate(7.392 6.89)"/>
        </g>
    </g>
</svg>
