<svg id="discount" xmlns="http://www.w3.org/2000/svg" width="17.041" height="17.759" viewBox="0 0 17.041 17.759">
  <g id="Group_2416" data-name="Group 2416" transform="translate(0 0)">
    <g id="Group_2415" data-name="Group 2415">
      <path id="Path_311" data-name="Path 311" d="M26.578,9.108a.52.52,0,0,1,0-.46l.662-1.355a1.542,1.542,0,0,0-.665-2.047l-1.332-.707a.52.52,0,0,1-.27-.372l-.261-1.486A1.542,1.542,0,0,0,22.97,1.416l-1.493.211a.52.52,0,0,1-.437-.142L19.956.436a1.542,1.542,0,0,0-2.153,0L16.719,1.485a.521.521,0,0,1-.437.142l-1.493-.211a1.542,1.542,0,0,0-1.741,1.265l-.261,1.485a.521.521,0,0,1-.27.372l-1.332.707a1.542,1.542,0,0,0-.665,2.047l.662,1.355a.52.52,0,0,1,0,.46l-.662,1.355a1.542,1.542,0,0,0,.665,2.047l1.332.707a.52.52,0,0,1,.27.372l.261,1.486a1.541,1.541,0,0,0,1.52,1.281,1.584,1.584,0,0,0,.222-.016l1.493-.211a.52.52,0,0,1,.437.142L17.8,17.319a1.542,1.542,0,0,0,2.153,0l1.084-1.049a.521.521,0,0,1,.437-.142l1.493.211a1.542,1.542,0,0,0,1.741-1.265l.261-1.485a.521.521,0,0,1,.27-.372l1.332-.707a1.542,1.542,0,0,0,.665-2.047Zm-.483,2.5-1.332.707a1.538,1.538,0,0,0-.8,1.1L23.7,14.9a.522.522,0,0,1-.589.428l-1.493-.211a1.538,1.538,0,0,0-1.293.42l-1.084,1.049a.522.522,0,0,1-.728,0l-1.084-1.049a1.537,1.537,0,0,0-1.073-.436,1.572,1.572,0,0,0-.22.016l-1.493.211a.522.522,0,0,1-.589-.428l-.261-1.486a1.538,1.538,0,0,0-.8-1.1l-1.332-.707a.522.522,0,0,1-.225-.693L12.1,9.558a1.538,1.538,0,0,0,0-1.36l-.662-1.355a.522.522,0,0,1,.225-.693L13,5.443a1.538,1.538,0,0,0,.8-1.1l.261-1.486a.522.522,0,0,1,.589-.428l1.493.211a1.538,1.538,0,0,0,1.293-.42l1.084-1.049a.522.522,0,0,1,.728,0l1.084,1.049a1.538,1.538,0,0,0,1.293.42l1.493-.211a.522.522,0,0,1,.589.428l.261,1.486a1.538,1.538,0,0,0,.8,1.1l1.332.707a.522.522,0,0,1,.225.693L25.658,8.2a1.538,1.538,0,0,0,0,1.36l.662,1.355A.522.522,0,0,1,26.095,11.605Z" transform="translate(-10.359 0.002)" fill="#101a42"/>
    </g>
  </g>
  <g id="Group_2418" data-name="Group 2418" transform="translate(4.628 4.988)">
    <g id="Group_2417" data-name="Group 2417">
      <path id="Path_312" data-name="Path 312" d="M151.426,143.941a.512.512,0,0,0-.724,0l-6.76,6.76a.512.512,0,1,0,.724.724l6.76-6.76A.512.512,0,0,0,151.426,143.941Z" transform="translate(-143.791 -143.791)" fill="#101a42"/>
    </g>
  </g>
  <g id="Group_2420" data-name="Group 2420" transform="translate(4.594 4.27)">
    <g id="Group_2419" data-name="Group 2419">
      <path id="Path_313" data-name="Path 313" d="M144.68,123.116a1.878,1.878,0,1,0,1.878,1.878A1.88,1.88,0,0,0,144.68,123.116Zm0,2.731a.854.854,0,1,1,.854-.854A.855.855,0,0,1,144.68,125.847Z" transform="translate(-142.802 -123.116)" fill="#101a42"/>
    </g>
  </g>
  <g id="Group_2422" data-name="Group 2422" transform="translate(8.691 9.733)">
    <g id="Group_2421" data-name="Group 2421">
      <path id="Path_314" data-name="Path 314" d="M262.8,280.61a1.878,1.878,0,1,0,1.878,1.878A1.88,1.88,0,0,0,262.8,280.61Zm0,2.731a.854.854,0,1,1,.854-.854A.855.855,0,0,1,262.8,283.341Z" transform="translate(-260.922 -280.61)" fill="#101a42"/>
    </g>
  </g>
</svg>
