<svg xmlns="http://www.w3.org/2000/svg" width="19.444" height="20.264" viewBox="0 0 19.444 20.264">
    <defs>
        <style>
            .cls-1{fill:#fff}
        </style>
    </defs>
    <g id="discount">
        <g id="Group_2416" data-name="Group 2416">
            <g id="Group_2415" data-name="Group 2415">
                <path id="Path_311" d="M28.866 10.393a.594.594 0 0 1 0-.525l.756-1.546a1.759 1.759 0 0 0-.759-2.336l-1.52-.807a.594.594 0 0 1-.309-.425l-.3-1.7a1.759 1.759 0 0 0-1.987-1.444l-1.7.241a.594.594 0 0 1-.5-.162L21.309.5a1.759 1.759 0 0 0-2.456 0l-1.237 1.2a.594.594 0 0 1-.5.162l-1.7-.241a1.759 1.759 0 0 0-1.987 1.444l-.3 1.695a.594.594 0 0 1-.309.425l-1.52.807a1.759 1.759 0 0 0-.759 2.336l.759 1.54a.594.594 0 0 1 0 .525l-.756 1.546a1.759 1.759 0 0 0 .759 2.336l1.52.807a.594.594 0 0 1 .309.425l.3 1.7a1.758 1.758 0 0 0 1.734 1.462 1.808 1.808 0 0 0 .253-.018l1.7-.241a.594.594 0 0 1 .5.162l1.237 1.2a1.759 1.759 0 0 0 2.456 0l1.237-1.2a.594.594 0 0 1 .5-.162l1.7.241a1.759 1.759 0 0 0 1.987-1.451l.3-1.7a.594.594 0 0 1 .309-.425l1.52-.807a1.759 1.759 0 0 0 .759-2.336zm-.551 2.85l-1.52.807a1.755 1.755 0 0 0-.912 1.255l-.3 1.7a.6.6 0 0 1-.672.488l-1.7-.241a1.755 1.755 0 0 0-1.476.479l-1.237 1.2a.6.6 0 0 1-.831 0l-1.237-1.2a1.753 1.753 0 0 0-1.224-.5 1.794 1.794 0 0 0-.252.018l-1.7.241a.6.6 0 0 1-.677-.49l-.3-1.7a1.755 1.755 0 0 0-.912-1.255l-1.52-.807a.6.6 0 0 1-.257-.79l.756-1.546a1.755 1.755 0 0 0 0-1.551l-.756-1.546a.6.6 0 0 1 .257-.79l1.52-.807a1.755 1.755 0 0 0 .912-1.255l.3-1.7a.6.6 0 0 1 .672-.488l1.7.241a1.755 1.755 0 0 0 1.476-.479l1.237-1.2a.6.6 0 0 1 .831 0l1.237 1.2a1.755 1.755 0 0 0 1.476.479l1.7-.241a.6.6 0 0 1 .672.488l.3 1.7a1.755 1.755 0 0 0 .912 1.255l1.52.807a.6.6 0 0 1 .257.79l-.756 1.546a1.755 1.755 0 0 0 0 1.551l.756 1.546a.6.6 0 0 1-.252.794z" class="cls-1" data-name="Path 311" transform="translate(-10.359 .002)"/>
            </g>
        </g>
        <g id="Group_2418" data-name="Group 2418" transform="translate(5.281 5.691)">
            <g id="Group_2417" data-name="Group 2417">
                <path id="Path_312" d="M152.5 143.963a.584.584 0 0 0-.826 0l-7.713 7.713a.584.584 0 1 0 .826.826l7.713-7.713a.584.584 0 0 0 0-.826z" class="cls-1" data-name="Path 312" transform="translate(-143.791 -143.791)"/>
            </g>
        </g>
        <g id="Group_2420" data-name="Group 2420" transform="translate(5.242 4.873)">
            <g id="Group_2419" data-name="Group 2419">
                <path id="Path_313" d="M144.945 123.116a2.143 2.143 0 1 0 2.143 2.143 2.145 2.145 0 0 0-2.143-2.143zm0 3.117a.974.974 0 1 1 .974-.974.975.975 0 0 1-.974.974z" class="cls-1" data-name="Path 313" transform="translate(-142.802 -123.116)"/>
            </g>
        </g>
        <g id="Group_2422" data-name="Group 2422" transform="translate(9.917 11.106)">
            <g id="Group_2421" data-name="Group 2421">
                <path id="Path_314" d="M263.065 280.61a2.143 2.143 0 1 0 2.143 2.143 2.145 2.145 0 0 0-2.143-2.143zm0 3.117a.974.974 0 1 1 .974-.974.975.975 0 0 1-.974.974z" class="cls-1" data-name="Path 314" transform="translate(-260.922 -280.61)"/>
            </g>
        </g>
    </g>
</svg>
