<svg xmlns="http://www.w3.org/2000/svg" width="18.92" height="18.899" viewBox="0 0 18.92 18.899">
    <defs>
        <style>
            .cls-1{fill:#f05c4e;stroke:#f05c4e;stroke-width:.1px}
        </style>
    </defs>
    <g id="fashion" transform="translate(.071 .071)">
        <g id="Group_76" data-name="Group 76">
            <g id="Group_75" data-name="Group 75">
                <path id="Path_84" d="M18.689 6.754L15.66 3.725a.3.3 0 0 0-.16-.084l-3.331-.606a.3.3 0 0 0-.352.244.3.3 0 0 0 0 .054 1.8 1.8 0 0 1-.026.287L9.692 3.1V3a1.514 1.514 0 1 0-1.818-1.484h.606a.909.909 0 1 1 .909.909.3.3 0 0 0-.3.3V3.1l-2.094.524a1.8 1.8 0 0 1-.026-.287.3.3 0 0 0-.112-.237.3.3 0 0 0-.248-.065l-3.331.606a.3.3 0 0 0-.16.084L.089 6.754a.3.3 0 0 0 0 .428L2.512 9.6a.3.3 0 0 0 .428 0l.694-.694v1.995h-2.12a1.51 1.51 0 0 0-.9 2.726 1.5 1.5 0 0 0 0 2.423 1.51 1.51 0 0 0 .9 2.726h10.9a.3.3 0 0 0 .214-.089l2.423-2.423a.3.3 0 0 0 .086-.214V8.91l.694.694a.3.3 0 0 0 .428 0l2.423-2.423a.3.3 0 0 0 .007-.427zm-9.3-3.108l2.2.551a2.471 2.471 0 0 1-2.2 1.22 2.471 2.471 0 0 1-2.2-1.22zM.606 12.419a.909.909 0 0 1 .909-.909h6.662a.909.909 0 1 1 0 1.817H1.514a.909.909 0 0 1-.908-.908zm0 2.423a.909.909 0 0 1 .909-.909h6.662a.909.909 0 1 1 0 1.817H1.514a.909.909 0 0 1-.908-.908zm7.572 3.331H1.514a.909.909 0 1 1 0-1.817h6.663a.909.909 0 1 1 0 1.817zm4.543-.428v-1.388h1.389zm3.331-8.783l-1.906-1.905-.428.428.82.82v7.446h-2.12a.3.3 0 0 0-.3.3v2.12H9.381a1.494 1.494 0 0 0-.27-2.1l-.033-.025a1.5 1.5 0 0 0 0-2.423 1.51 1.51 0 0 0-.9-2.726H4.24V8.3l.82-.82-.428-.428-1.906 1.911L.731 6.968 3.479 4.22l2.907-.528a2.936 2.936 0 0 0 3 2.33 2.936 2.936 0 0 0 3-2.33l2.914.528 2.749 2.748z" class="cls-1" data-name="Path 84" transform="translate(0 -.002)"/>
                <rect id="Rectangle_749" width="6.405" class="cls-1" data-name="Rectangle 749" transform="translate(1.608 12.252)"/>
                <rect id="Rectangle_750" width="5.338" class="cls-1" data-name="Rectangle 750" transform="translate(1.608 15.455)"/>
            </g>
        </g>
    </g>
</svg>
