<svg xmlns="http://www.w3.org/2000/svg" width="17.64" height="17.535" viewBox="0 0 17.64 17.535">
    <defs>
        <style>
            .cls-1{fill:#f05c4e;stroke:#f05c4e;stroke-width:.1px}
        </style>
    </defs>
    <g id="fork" transform="translate(.08 .08)">
        <path id="Path_85" d="M67.26 13.275l1.028-.065h.005a2.422 2.422 0 0 0 1.8-1.054l.813-1.193a4.813 4.813 0 0 0 .772-3.532 1.086 1.086 0 0 0-1.019-.9 4.812 4.812 0 0 0-3.414 1.19l-1.087.95a2.422 2.422 0 0 0-.83 1.918v.005l.059 1.029a1.448 1.448 0 0 1-.4 1.085l-8.487 8.72a1.234 1.234 0 0 0-.33.916 1.418 1.418 0 0 0 1.437 1.379h.113a1.234 1.234 0 0 0 .871-.439l7.64-9.473a1.448 1.448 0 0 1 1.029-.53zm-1.437.2l-7.639 9.472a.714.714 0 0 1-.505.247.9.9 0 0 1-.984-.872.713.713 0 0 1 .183-.53l8.49-8.722a1.975 1.975 0 0 0 .55-1.48l-.059-1.026a1.9 1.9 0 0 1 .651-1.5l1.087-.95a4.293 4.293 0 0 1 3.043-1.062.562.562 0 0 1 .527.467 4.291 4.291 0 0 1-.688 3.148l-.813 1.193a1.9 1.9 0 0 1-1.413.826l-1.026.065a1.975 1.975 0 0 0-1.4.724zm0 0" class="cls-1" data-name="Path 85" transform="translate(-54.248 -6.317)"/>
        <path id="Path_86" d="M296.8 292.154l-5.693-5.185a.262.262 0 1 0-.353.388l5.691 5.184a.714.714 0 0 1 .216.519.9.9 0 0 1-.93.93.714.714 0 0 1-.518-.215l-5.073-5.569a.262.262 0 1 0-.388.353l5.074 5.571a1.234 1.234 0 0 0 .894.385h.028a1.42 1.42 0 0 0 1.437-1.465 1.235 1.235 0 0 0-.386-.9zm0 0" class="cls-1" data-name="Path 86" transform="translate(-279.785 -277.109)"/>
        <path id="Path_87" d="M3.166 7.408a2.43 2.43 0 0 0 1.589.642H5.79a1.447 1.447 0 0 1 1.06.47l.454.5a.262.262 0 1 0 .388-.353l-.455-.5a1.974 1.974 0 0 0-1.444-.638H4.765a1.906 1.906 0 0 1-1.231-.493L.547 3.483a.091.091 0 0 1 .134-.123L3.4 6.079a.69.69 0 0 0 .975 0l.319-.319.567-.567.319-.319a.69.69 0 0 0 0-.975L2.862 1.18a.091.091 0 0 1 .122-.133l3.55 2.986a1.906 1.906 0 0 1 .493 1.231v1.028a1.976 1.976 0 0 0 .638 1.445l.486.443a.262.262 0 1 0 .353-.388l-.486-.442a1.448 1.448 0 0 1-.463-1.06V5.26v-.006a2.43 2.43 0 0 0-.642-1.589.262.262 0 0 0-.024-.023l-3.563-3a.615.615 0 0 0-.831.906l2.714 2.721a.165.165 0 0 1 0 .233l-.134.134-3.03-3.03a.262.262 0 0 0-.371.371L4.7 5.006l-.2.2-3.022-3.033a.262.262 0 0 0-.371.371l3.029 3.03L4 5.707a.165.165 0 0 1-.233 0L1.052 2.989a.615.615 0 0 0-.906.831l3 3.563a.244.244 0 0 0 .023.024zm0 0" class="cls-1" data-name="Path 87" transform="translate(0 -.499)"/>
    </g>
</svg>
