<svg xmlns="http://www.w3.org/2000/svg" width="63" height="63" viewBox="0 0 63 63">
  <g id="instagram" transform="translate(-1432.02 -608)">
    <circle id="Ellipse_51" data-name="Ellipse 51" cx="31.5" cy="31.5" r="31.5" transform="translate(1432.02 608)" fill="#fff" opacity="0.25"/>
    <g id="instagram_white" transform="translate(1447.326 623.326)">
      <path id="Path_3" data-name="Path 3" d="M16.422,2.919a50.353,50.353,0,0,1,6.569.182,8.463,8.463,0,0,1,3.1.547,6.408,6.408,0,0,1,3.1,3.1,8.463,8.463,0,0,1,.547,3.1c0,1.642.182,2.19.182,6.569a50.353,50.353,0,0,1-.182,6.569,8.463,8.463,0,0,1-.547,3.1,6.408,6.408,0,0,1-3.1,3.1,8.463,8.463,0,0,1-3.1.547c-1.642,0-2.19.182-6.569.182a50.353,50.353,0,0,1-6.569-.182,8.463,8.463,0,0,1-3.1-.547,6.408,6.408,0,0,1-3.1-3.1,8.463,8.463,0,0,1-.547-3.1c0-1.642-.182-2.19-.182-6.569A50.353,50.353,0,0,1,3.1,9.853a8.463,8.463,0,0,1,.547-3.1A6.553,6.553,0,0,1,4.927,4.927,3.085,3.085,0,0,1,6.751,3.649a8.463,8.463,0,0,1,3.1-.547,50.353,50.353,0,0,1,6.569-.182m0-2.919A53.914,53.914,0,0,0,9.671.182a11.265,11.265,0,0,0-4.014.73A7.143,7.143,0,0,0,2.737,2.737,7.143,7.143,0,0,0,.912,5.656a8.314,8.314,0,0,0-.73,4.014A53.914,53.914,0,0,0,0,16.422a53.914,53.914,0,0,0,.182,6.751,11.265,11.265,0,0,0,.73,4.014,7.143,7.143,0,0,0,1.825,2.919,7.143,7.143,0,0,0,2.919,1.825,11.265,11.265,0,0,0,4.014.73,53.915,53.915,0,0,0,6.751.182,53.915,53.915,0,0,0,6.751-.182,11.265,11.265,0,0,0,4.014-.73,7.655,7.655,0,0,0,4.744-4.744,11.265,11.265,0,0,0,.73-4.014c0-1.825.182-2.372.182-6.751a53.915,53.915,0,0,0-.182-6.751,11.265,11.265,0,0,0-.73-4.014,7.143,7.143,0,0,0-1.825-2.919A7.143,7.143,0,0,0,27.188.912a11.265,11.265,0,0,0-4.014-.73A53.914,53.914,0,0,0,16.422,0m0,8.029a8.258,8.258,0,0,0-8.393,8.393,8.393,8.393,0,1,0,8.393-8.393m0,13.868a5.376,5.376,0,0,1-5.474-5.474,5.376,5.376,0,0,1,5.474-5.474A5.376,5.376,0,0,1,21.9,16.422,5.376,5.376,0,0,1,16.422,21.9M25.18,5.656a2.007,2.007,0,1,0,2.007,2.007A2.025,2.025,0,0,0,25.18,5.656" transform="translate(0 0)" fill="#fff" fill-rule="evenodd"/>
    </g>
  </g>
</svg>
