<svg id="left_button" xmlns="http://www.w3.org/2000/svg" width="47" height="47" viewBox="0 0 47 47">
  <g id="Group_198" data-name="Group 198">
    <circle id="Ellipse_40" data-name="Ellipse 40" cx="23.5" cy="23.5" r="23.5" fill="#fff"/>
    <path id="Path_15" data-name="Path 15" d="M15.779,1.162,15,.384A1.328,1.328,0,0,0,14.058,0a1.271,1.271,0,0,0-.934.384L8.082,5.426,3.04.384A1.271,1.271,0,0,0,2.106,0a1.329,1.329,0,0,0-.944.384l-.768.778A1.288,1.288,0,0,0,0,2.106a1.233,1.233,0,0,0,.394.934L7.148,9.794a1.233,1.233,0,0,0,.934.394,1.288,1.288,0,0,0,.944-.394L15.779,3.04a1.271,1.271,0,0,0,.384-.934A1.329,1.329,0,0,0,15.779,1.162Z" transform="translate(28.354 15.432) rotate(90)" fill="#f05c4e"/>
  </g>
</svg>
