<svg xmlns="http://www.w3.org/2000/svg" width="63" height="63" viewBox="0 0 63 63">
  <g id="linkedin" transform="translate(-1713.02 -608)">
    <circle id="Ellipse_54" data-name="Ellipse 54" cx="31.5" cy="31.5" r="31.5" transform="translate(1713.02 608)" fill="#fff" opacity="0.25"/>
    <g id="linkedin-letters" transform="translate(1728.02 624)">
      <g id="Group_174" data-name="Group 174" transform="translate(0 0)">
        <rect id="Rectangle_834" data-name="Rectangle 834" width="6.98" height="20.96" transform="translate(0.402 10.089)" fill="#fff"/>
        <path id="Path_114" data-name="Path 114" d="M170.654,141.732a7.512,7.512,0,0,0-5.816-2.4,8.383,8.383,0,0,0-2.422.328,5.5,5.5,0,0,0-1.84.92,7.879,7.879,0,0,0-2.02,2.219v-2.98H151.6l.021,1.015q.021,1.016.021,6.261t-.042,13.684h6.959v-11.7a5.108,5.108,0,0,1,.233-1.713,4.492,4.492,0,0,1,1.343-1.808,3.424,3.424,0,0,1,2.232-.73,3.009,3.009,0,0,1,2.676,1.258,6.119,6.119,0,0,1,.856,3.479v11.21h6.959V148.764Q172.853,144.132,170.654,141.732Z" transform="translate(-140.366 -129.728)" fill="#fff"/>
        <path id="Path_115" data-name="Path 115" d="M3.934,9.708a3.982,3.982,0,0,0-2.845,1.026A3.406,3.406,0,0,0,0,13.325,3.466,3.466,0,0,0,1.058,15.9a3.817,3.817,0,0,0,2.792,1.036h.042A3.985,3.985,0,0,0,6.758,15.9a3.348,3.348,0,0,0,1.068-2.58,3.528,3.528,0,0,0-1.079-2.591A3.867,3.867,0,0,0,3.934,9.708Z" transform="translate(0 -9.708)" fill="#fff"/>
      </g>
    </g>
  </g>
</svg>
