<svg xmlns="http://www.w3.org/2000/svg" width="41.379" height="40.742" viewBox="0 0 41.379 40.742">
  <g id="Mail" transform="translate(-3932 9342)">
    <path id="Path_1894" data-name="Path 1894" d="M20.689,0A20.532,20.532,0,0,1,41.379,20.371,20.532,20.532,0,0,1,20.689,40.742,20.532,20.532,0,0,1,0,20.371,20.532,20.532,0,0,1,20.689,0Z" transform="translate(3932 -9342)" fill="#f05c4e"/>
    <g id="envelope" transform="translate(3943.29 -9392.782)">
      <g id="Group_2744" data-name="Group 2744" transform="translate(0 64)">
        <g id="Group_2743" data-name="Group 2743">
          <path id="Path_1783" data-name="Path 1783" d="M7.057,65.186c2.675,2.266,7.369,6.252,8.749,7.494a.815.815,0,0,0,1.179,0c1.381-1.244,6.075-5.23,8.75-7.5a.406.406,0,0,0,.057-.56A1.613,1.613,0,0,0,24.518,64H8.275A1.613,1.613,0,0,0,7,64.626.406.406,0,0,0,7.057,65.186Z" transform="translate(-6.65 -64)" fill="#fff"/>
          <path id="Path_1784" data-name="Path 1784" d="M19.257,126.449a.4.4,0,0,0-.433.059c-2.967,2.515-6.753,5.739-7.945,6.812a1.644,1.644,0,0,1-2.267,0c-1.27-1.144-5.522-4.759-7.944-6.812a.406.406,0,0,0-.669.31V137.03a1.626,1.626,0,0,0,1.624,1.624H17.868a1.626,1.626,0,0,0,1.624-1.624V126.818A.406.406,0,0,0,19.257,126.449Z" transform="translate(0 -124.035)" fill="#fff"/>
        </g>
      </g>
    </g>
  </g>
</svg>
