<svg id="Layer_1" data-name="Layer 1" xmlns="http://www.w3.org/2000/svg" viewBox="0 0 54 512"><defs><style>.cls-1{fill:#939598;}.cls-2,.cls-3,.cls-4,.cls-5{fill:none;stroke:#939598;stroke-width:1.5px;}.cls-2,.cls-5{stroke-linecap:round;}.cls-2,.cls-3{stroke-linejoin:round;}.cls-4,.cls-5{stroke-miterlimit:10;}</style></defs><title>Map Sprites</title><path class="cls-1" d="M27,31.326a.537.537,0,0,1-.173-.029L10.6,25.587a.521.521,0,0,1,.346-.982L27,30.254l16.058-5.649a.52.52,0,0,1,.345.982L27.173,31.3A.541.541,0,0,1,27,31.326Z"/><path class="cls-1" d="M27,31.7a.865.865,0,0,1-.3-.052L10.472,25.939a.893.893,0,1,1,.6-1.685L27,29.858l15.934-5.6a.9.9,0,0,1,.682.036.894.894,0,0,1-.089,1.649L27.3,31.648A.853.853,0,0,1,27,31.7Zm-16.232-6.75a.147.147,0,0,0-.138.1.166.166,0,0,0,.091.188L27,30.953a.129.129,0,0,0,.045-.007l16.234-5.711a.166.166,0,0,0,.091-.188.148.148,0,0,0-.076-.084.143.143,0,0,0-.112-.005L27,30.649,10.818,24.958A.133.133,0,0,0,10.768,24.949Z"/><path class="cls-1" d="M43.23,25.616a.518.518,0,0,1-.172-.029L27,19.939,10.942,25.587a.521.521,0,0,1-.346-.982L26.827,18.9a.514.514,0,0,1,.346,0L43.4,24.605a.52.52,0,0,1-.173,1.011Z"/><path class="cls-1" d="M10.768,25.991a.894.894,0,0,1-.3-1.737L26.7,18.544a.9.9,0,0,1,.593,0l16.231,5.71a.892.892,0,0,1,.546,1.139.915.915,0,0,1-1.14.546L27,20.334,11.066,25.939A.9.9,0,0,1,10.768,25.991ZM27,19.239a.137.137,0,0,0-.049.009L10.72,24.958a.164.164,0,0,0-.09.186.147.147,0,0,0,.187.092L27,19.543l16.23,5.7a.149.149,0,0,0,.14-.1.165.165,0,0,0-.091-.188l-16.23-5.71A.137.137,0,0,0,27,19.239Z"/><path class="cls-1" d="M27,41.589c-8.657,0-11.007-2.4-11.1-2.5a.52.52,0,0,1-.141-.355V30.806a.521.521,0,0,1,1.041,0v7.683c.6.452,3.209,2.059,10.2,2.059s9.6-1.6,10.2-2.059V30.806a.521.521,0,0,1,1.041,0v7.923a.52.52,0,0,1-.141.355C38.006,39.186,35.657,41.589,27,41.589Z"/><path class="cls-1" d="M27,41.962c-8.837,0-11.276-2.516-11.376-2.624a.889.889,0,0,1-.241-.61V30.806a.894.894,0,0,1,1.788,0V38.3c.726.483,3.388,1.878,9.829,1.878,6.373,0,9.007-1.323,9.829-1.878v-7.49a.894.894,0,1,1,1.787,0v7.922a.891.891,0,0,1-.242.612C38.276,39.446,35.836,41.962,27,41.962Zm-10.723-11.3a.148.148,0,0,0-.148.147v7.922a.142.142,0,0,0,.04.1c.025.026,2.325,2.388,10.831,2.388s10.806-2.362,10.829-2.386a.146.146,0,0,0,.04-.1V30.806c0-.162-.294-.162-.294,0v7.868l-.148.112c-.662.5-3.37,2.135-10.427,2.135s-9.767-1.634-10.427-2.134l-.148-.113V30.806A.148.148,0,0,0,16.277,30.659Z"/><path class="cls-1" d="M41.669,45.134a.52.52,0,0,1-.52-.521V28.883a.521.521,0,0,1,1.041,0v15.73A.521.521,0,0,1,41.669,45.134Z"/><path class="cls-1" d="M41.669,45.507a.9.9,0,0,1-.893-.894V28.883a.894.894,0,0,1,1.787,0v15.73A.9.9,0,0,1,41.669,45.507Zm0-16.771a.148.148,0,0,0-.147.147v15.73c0,.162.294.162.294,0V28.883A.148.148,0,0,0,41.669,28.736Z"/><line class="cls-2" x1="19.368" y1="101.113" x2="15.562" y2="108.038"/><line class="cls-2" x1="38.991" y1="108.037" x2="35.058" y2="101.114"/><line class="cls-3" x1="17.416" y1="105.425" x2="37.455" y2="105.425"/><rect class="cls-3" x="14.803" y="72.318" width="24.394" height="28.751" rx="2.614"/><line class="cls-3" x1="14.803" y1="89.742" x2="39.197" y2="89.742"/><line class="cls-3" x1="17.416" y1="94.099" x2="21.773" y2="94.099"/><line class="cls-3" x1="32.227" y1="94.099" x2="36.584" y2="94.099"/><line class="cls-3" x1="14.803" y1="76.674" x2="39.197" y2="76.674"/><polyline class="cls-3" points="14.803 78.416 11.318 81.03 11.318 86.258"/><polyline class="cls-3" points="39.197 78.461 42.682 81.03 42.682 86.258"/><polyline class="cls-3" points="30.485 72.318 33.099 67.962 20.901 67.962 23.515 72.318"/><path class="cls-4" d="M42.682,136.308c0-3.669-1.959-8.024-4.376-8.024s-4.377,4.355-4.377,8.024c0,3.1,1.025,4.713,2.918,5.105,0,0-.73,15.8-.73,16.777a2.189,2.189,0,0,0,4.377,0c0-.976-.73-16.777-.73-16.777C41.658,141.021,42.682,139.409,42.682,136.308Z"/><line class="cls-4" x1="24.447" y1="127.555" x2="24.447" y2="136.308"/><line class="cls-4" x1="27.365" y1="127.555" x2="27.365" y2="136.308"/><path class="cls-4" d="M21.53,127.555v8.753c0,4.071,1.458,3.774,2.917,4.376l-.729,17.506a2.189,2.189,0,1,0,4.376,0l-.729-17.506c1.458-.6,2.917-.305,2.917-4.376v-8.753"/><path class="cls-4" d="M11.318,134.849v11.67l2.188,1.459-.729,10.212a2.188,2.188,0,0,0,4.376,0V128.284S11.318,128.922,11.318,134.849Z"/><rect class="cls-4" x="11.051" y="189.747" width="31.899" height="20.506" rx="1.139"/><line class="cls-4" x1="11.051" y1="201.139" x2="42.949" y2="201.139"/><line class="cls-4" x1="11.051" y1="205.696" x2="42.949" y2="205.696"/><line class="cls-4" x1="40.671" y1="197.722" x2="37.253" y2="197.722"/><line class="cls-4" x1="34.975" y1="197.722" x2="31.557" y2="197.722"/><polyline class="cls-4" points="33.498 244.86 12.147 244.86 27 260.642 41.853 244.86 37.327 244.86"/><line class="cls-4" x1="27" y1="260.642" x2="27" y2="276.423"/><line class="cls-4" x1="22.358" y1="276.423" x2="31.642" y2="276.423"/><circle class="cls-4" cx="27.928" cy="251.358" r="2.785"/><line class="cls-4" x1="40.925" y1="235.577" x2="29.863" y2="249.355"/><path class="cls-4" d="M19.636,300.84H43a.72.72,0,0,1,.689.93L40.108,313.5a1.44,1.44,0,0,1-1.377,1.019H21.8"/><path class="cls-4" d="M39.8,319.56H24.307a1.44,1.44,0,0,1-1.379-1.026l-5.864-19.548a1.441,1.441,0,0,0-1.38-1.026H10.275"/><circle class="cls-4" cx="23.231" cy="323.875" r="2.165"/><circle class="cls-4" cx="37.642" cy="323.875" r="2.165"/><path class="cls-2" d="M10.911,366.427c0,6.8,2.067,14.944,12.584,14.944h2.359c10.517,0,12.585-8.147,12.585-14.944v-1.573H10.911Z"/><path class="cls-2" d="M38.345,368.834a2.931,2.931,0,0,1,3.683-1.514c1.522.436,2.142,1.967,1.717,4.07-.587,2.9-3.733,5.262-8.531,6.248"/><line class="cls-2" x1="10.124" y1="383.73" x2="39.225" y2="383.73"/><path class="cls-2" d="M19.264,361.708c3.769-4.719-3.867-4.579.786-9.438"/><path class="cls-2" d="M24.376,361.708c3.769-4.719-3.867-4.579.787-9.438"/><path class="cls-2" d="M29.488,361.708c3.769-4.719-3.867-4.579.787-9.438"/><polygon class="cls-2" points="30.063 420.937 30.063 414.81 23.937 414.81 23.937 420.937 17.81 420.937 17.81 427.063 23.937 427.063 23.937 433.19 30.063 433.19 30.063 427.063 36.19 427.063 36.19 420.937 30.063 420.937"/><circle class="cls-2" cx="27" cy="424" r="16.083"/><path class="cls-4" d="M25.122,482.254H20.615c-1.245,0-1.5-1.009-1.5-2.254s.258-2.254,1.5-2.254h4.507"/><path class="cls-4" d="M37.892,477.746c-1.244,0-1.5,1.01-1.5,2.254s.258,2.254,1.5,2.254h.752c1.244,0,1.878-1.009,1.878-2.254s-.634-2.254-1.878-2.254Z"/><path class="cls-4" d="M14.666,472.66c1.374-2.846,3.527-4.679,5.949-4.679,2.148,0,4.085,1.442,5.454,3.754"/><path class="cls-4" d="M26.07,488.263c-1.369,2.313-3.307,3.756-5.455,3.756-4.149,0-7.512-5.381-7.512-12.019a18.657,18.657,0,0,1,.414-3.945"/><path class="cls-4" d="M16.976,490.515c-3.787.1-6.878-4.646-6.878-10.515s3.091-10.616,6.878-10.516"/><path class="cls-4" d="M32.361,472.563a5.877,5.877,0,0,1,4.78-3.08c3.734,0,6.761,4.709,6.761,10.517s-3.027,10.517-6.761,10.517S30.38,485.808,30.38,480a15.765,15.765,0,0,1,.435-3.717"/><path class="cls-5" d="M38.333,490.517a5.9,5.9,0,0,1-3.821,1.5c-4.356,0-7.888-5.381-7.888-12.019s3.532-12.019,7.888-12.019a5.872,5.872,0,0,1,3.76,1.45"/></svg>