<svg xmlns="http://www.w3.org/2000/svg" width="13.914" height="16.573" viewBox="0 0 13.914 16.573">
  <path id="walk_gray" d="M13.914,16.573H0a.458.458,0,0,1,.429-.306H2a1.417,1.417,0,0,1,.091-1.157c.283-.5.515-.912.7-1.24.716-1.256.826-1.45.826-1.944V8.273c-.118.11-.125.121-.5.732-.135.22-.319.519-.572.927a1.355,1.355,0,0,1-1.165.662,1.334,1.334,0,0,1-.608-.146A1.4,1.4,0,0,1,.109,8.7l.015-.023C.339,8.352.857,7.48,1.254,6.8c.288-.5.634-.734,1.56-1.373l.534-.37a2.238,2.238,0,0,1,1.3-.414h1.9a2.25,2.25,0,0,1,1.568.637c.174.167.312.3.434.426a3.064,3.064,0,0,0,1.863,1.033c.234.074.524.166.872.279a1.393,1.393,0,0,1,.86,1.667,1.374,1.374,0,0,1-1.323,1.04,1.354,1.354,0,0,1-.231-.02c-.56-.185-.991-.325-1.338-.438a5.606,5.606,0,0,1-1.527-.585v1.395c.24.237.447.439.63.617.937.914,1.159,1.131,1.377,1.73L10.8,15.379a1.453,1.453,0,0,1,0,.888h0l.031,0c.619.045,2.157.164,3.081.3Zm-7.556-4.15h0a2.8,2.8,0,0,1-.346,1.334l-1.451,2.51H8.21l-.027-.074c-.2-.545-.349-.978-.472-1.325C7.2,13.405,7.2,13.405,6.67,12.791c-.089-.1-.19-.221-.312-.368ZM2.887,15.561a.47.47,0,0,0-.045.354.462.462,0,0,0,.214.283.451.451,0,0,0,.228.062.458.458,0,0,0,.4-.234L5.218,13.3a1.8,1.8,0,0,0,.228-.873.931.931,0,0,1,.6-.878.894.894,0,0,1,.315-.057.9.9,0,0,1,.7.331c.118.143.219.263.307.368a5.3,5.3,0,0,1,1.219,2.382c.128.353.287.793.485,1.331a.458.458,0,0,0,.442.351.449.449,0,0,0,.112-.014.454.454,0,0,0,.28-.213.47.47,0,0,0,.051-.352L8.881,12.753c-.147-.4-.315-.564-1.127-1.356-.2-.191-.437-.426-.72-.707h-2.5c0,.209,0,.394,0,.558.011,1.411.011,1.411-.985,3.151-.19.331-.4.707-.665,1.171v-.009Zm2.1-9.066a.467.467,0,0,1,.456.37.481.481,0,0,1-.059.36.465.465,0,0,1-.292.212,2.936,2.936,0,0,0-.561.2V9.76h2.28V7.436a.456.456,0,1,1,.913,0s0,.009,0,.013c0,.027,0,.027.1.124.041.039.1.093.175.171.243.24.323.266,1.655.7.314.1.706.23,1.186.388l.048,0a.466.466,0,0,0,.134-.909L9.2,7.329a3.209,3.209,0,0,1-1.3-.952,1.894,1.894,0,0,0-1.366-.8H4.648a1.374,1.374,0,0,0-.757.246L2.463,6.832c-.26.182-.385.393-.914,1.28-.159.266-.356.6-.6,1.007a.471.471,0,0,0,.25.551.446.446,0,0,0,.189.042A.452.452,0,0,0,1.765,9.5V9.454c.132-.215.247-.4.348-.571v0c.62-1.02.749-1.232,1.165-1.523a4.422,4.422,0,0,1,1.606-.85A.482.482,0,0,1,4.991,6.495ZM5.9,3.718A1.844,1.844,0,0,1,4.078,1.859a1.825,1.825,0,1,1,3.649,0A1.844,1.844,0,0,1,5.9,3.718ZM5.9.929a.93.93,0,1,0,.912.929A.922.922,0,0,0,5.9.929Z" fill="#9ba7be"/>
</svg>
