<?xml version="1.0" encoding="utf-8"?>
<!-- Generator: Adobe Illustrator 24.0.1, SVG Export Plug-In . SVG Version: 6.00 Build 0)  -->
<svg version="1.1" id="Layer_1" xmlns:sketch="http://www.bohemiancoding.com/sketch/ns"
	 xmlns="http://www.w3.org/2000/svg" xmlns:xlink="http://www.w3.org/1999/xlink" x="0px" y="0px" viewBox="0 0 90 112.5"
	 style="enable-background:new 0 0 90 112.5;" xml:space="preserve">
<style type="text/css">
	.st0{fill-rule:evenodd;clip-rule:evenodd;}
</style>
<title>cross</title>
<desc>Created with Sketch.</desc>
<g sketch:type="MSPage">
	<g sketch:type="MSLayerGroup">
		<path sketch:type="MSShapeGroup" class="st0" d="M45,90c24.9,0,45-20.1,45-45S69.9,0,45,0S0,20.1,0,45S20.1,90,45,90z M45,86
			c22.6,0,41-18.4,41-41S67.6,4,45,4S4,22.4,4,45S22.4,86,45,86z"/>
		<path sketch:type="MSShapeGroup" class="st0" d="M47.8,45.2L59.1,34c0.8-0.8,0.8-2,0-2.8c-0.8-0.8-2-0.8-2.8,0L45,42.4L33.8,31.1
			c-0.8-0.8-2-0.8-2.8,0c-0.8,0.8-0.8,2,0,2.8l11.2,11.2L30.9,56.4c-0.8,0.8-0.8,2,0,2.8c0.8,0.8,2,0.8,2.8,0L45,48l11.2,11.2
			c0.8,0.8,2,0.8,2.8,0c0.8-0.8,0.8-2,0-2.8L47.8,45.2z"/>
	</g>
</g>
</svg>
