<svg xmlns="http://www.w3.org/2000/svg" width="6.57" height="12.632" viewBox="0 0 6.57 12.632">
    <defs>
        <style>
            .cls-1{fill:#f05c4e;stroke:#f05c4e;stroke-width:.3px}
        </style>
    </defs>
    <g id="pin" transform="translate(-14.35 .15)">
        <path id="Path_292" d="M20.77 3.135a3.135 3.135 0 1 0-3.344 3.125v5.863a.209.209 0 1 0 .418 0V6.26a3.136 3.136 0 0 0 2.926-3.125zm-3.135 2.717a2.717 2.717 0 1 1 2.717-2.717 2.72 2.72 0 0 1-2.717 2.717z" class="cls-1" data-name="Path 292"/>
        <path id="Path_293" d="M21.336 7a.836.836 0 1 0 .836.836.837.837 0 0 0-.836-.836zm0 1.254a.418.418 0 1 1 .418-.418.418.418 0 0 1-.418.418z" class="cls-1" data-name="Path 293" transform="translate(-4.746 -5.537)"/>
    </g>
</svg>
