<svg xmlns="http://www.w3.org/2000/svg" width="21.808" height="20.928" viewBox="0 0 21.808 20.928">
    <defs>
        <style>
            .cls-1{fill:#f05c4e;stroke:#f05c4e;stroke-linejoin:round}
        </style>
    </defs>
    <path id="star" d="M20.324 10.067a1.49 1.49 0 0 0-.824-2.541L14.468 6.8a.657.657 0 0 1-.5-.36l-2.244-4.563a1.49 1.49 0 0 0-2.672 0L6.8 6.435a.658.658 0 0 1-.5.36l-5.03.731a1.49 1.49 0 0 0-.826 2.541l3.64 3.548a.659.659 0 0 1 .19.582l-.859 5.01a1.49 1.49 0 0 0 2.162 1.57l4.5-2.365a.659.659 0 0 1 .612 0l4.5 2.365a1.49 1.49 0 0 0 2.162-1.57l-.856-5.007a.658.658 0 0 1 .19-.582zm-4.649 4.271l.859 5.009a.658.658 0 0 1-.954.694l-4.5-2.366a1.49 1.49 0 0 0-1.387 0L5.2 20.042a.658.658 0 0 1-.955-.694l.855-5.01a1.49 1.49 0 0 0-.428-1.319l-3.64-3.547A.658.658 0 0 1 1.4 8.349l5.03-.731A1.488 1.488 0 0 0 7.548 6.8L9.8 2.245a.658.658 0 0 1 1.18 0L13.227 6.8a1.487 1.487 0 0 0 1.122.815l5.03.731a.658.658 0 0 1 .364 1.122L16.1 13.019a1.489 1.489 0 0 0-.425 1.319z" class="cls-1" transform="translate(.516 -.547)"/>
</svg>
