<svg xmlns="http://www.w3.org/2000/svg" width="22.219" height="21.287" viewBox="0 0 22.219 21.287">
    <defs>
        <style>
            .cls-1{fill:#f05c4e}
        </style>
    </defs>
    <path id="star" d="M21.736 10.694a1.594 1.594 0 0 0-.884-2.718l-5.38-.782a.7.7 0 0 1-.529-.385l-2.405-4.874a1.593 1.593 0 0 0-2.858 0L7.275 6.81a.7.7 0 0 1-.53.385l-5.38.782a1.594 1.594 0 0 0-.884 2.718l3.892 3.794a.7.7 0 0 1 .2.623l-.918 5.358a1.56 1.56 0 0 0 .347 1.292 1.61 1.61 0 0 0 1.964.388l4.811-2.53a.72.72 0 0 1 .655 0l4.812 2.53a1.577 1.577 0 0 0 .741.186 1.6 1.6 0 0 0 1.223-.573 1.559 1.559 0 0 0 .347-1.292l-.919-5.358a.7.7 0 0 1 .2-.623z" class="cls-1" transform="translate(.001 -1.047)"/>
</svg>
