<svg id="support" xmlns="http://www.w3.org/2000/svg" width="17.018" height="17.018" viewBox="0 0 17.018 17.018">
  <g id="Group_2424" data-name="Group 2424" transform="translate(1.418)">
    <g id="Group_2423" data-name="Group 2423">
      <path id="Path_315" data-name="Path 315" d="M44.255,0A4.255,4.255,0,0,0,40,4.255v3.12A1.988,1.988,0,0,0,41.985,9.36h.284V8.793h-.284a1.42,1.42,0,0,1-1.418-1.418V4.255a3.687,3.687,0,0,1,7.375,0v3.12a1.42,1.42,0,0,1-1.418,1.418H46.24V9.36h.284a1.988,1.988,0,0,0,1.985-1.985V4.255A4.255,4.255,0,0,0,44.255,0Z" transform="translate(-40)" fill="#101a42"/>
    </g>
  </g>
  <g id="Group_2426" data-name="Group 2426" transform="translate(1.418 12.737)">
    <g id="Group_2425" data-name="Group 2425">
      <path id="Path_316" data-name="Path 316" d="M40.922,359.879l.207-.326-.479-.3-.207.327a2.827,2.827,0,0,0,.117,3.2v.754h.567v-.851a.284.284,0,0,0-.062-.177A2.26,2.26,0,0,1,40.922,359.879Z" transform="translate(-40.003 -359.248)" fill="#101a42"/>
    </g>
  </g>
  <g id="Group_2428" data-name="Group 2428" transform="translate(10.495)">
    <g id="Group_2427" data-name="Group 2427">
      <path id="Path_317" data-name="Path 317" d="M301.106,0h-3.687A1.42,1.42,0,0,0,296,1.418V4.255a1.42,1.42,0,0,0,1.418,1.418h.567V6.807a.284.284,0,0,0,.175.262.28.28,0,0,0,.109.022.284.284,0,0,0,.2-.083L299.8,5.673h1.3a1.42,1.42,0,0,0,1.418-1.418V1.418A1.42,1.42,0,0,0,301.106,0Zm.851,4.255a.851.851,0,0,1-.851.851h-1.418a.284.284,0,0,0-.2.083l-.934.934V5.389a.284.284,0,0,0-.284-.284h-.851a.851.851,0,0,1-.851-.851V1.418a.851.851,0,0,1,.851-.851h3.687a.851.851,0,0,1,.851.851Z" transform="translate(-296)" fill="#101a42"/>
    </g>
  </g>
  <g id="Group_2430" data-name="Group 2430" transform="translate(12.192 1.418)">
    <g id="Group_2429" data-name="Group 2429" transform="translate(0 0)">
      <rect id="Rectangle_1106" data-name="Rectangle 1106" width="1.418" height="0.709" fill="#101a42"/>
    </g>
  </g>
  <g id="Group_2432" data-name="Group 2432" transform="translate(14.319 1.418)">
    <g id="Group_2431" data-name="Group 2431" transform="translate(0 0)">
      <rect id="Rectangle_1107" data-name="Rectangle 1107" width="1.418" height="0.709" fill="#101a42"/>
    </g>
  </g>
  <g id="Group_2434" data-name="Group 2434" transform="translate(12.192 2.836)">
    <g id="Group_2433" data-name="Group 2433" transform="translate(0 0)">
      <rect id="Rectangle_1108" data-name="Rectangle 1108" width="3.545" fill="#101a42"/>
    </g>
  </g>
  <g id="Group_2436" data-name="Group 2436" transform="translate(12.192 3.545)">
    <g id="Group_2435" data-name="Group 2435" transform="translate(0 0)">
      <rect id="Rectangle_1109" data-name="Rectangle 1109" width="1.418" height="0.709" fill="#101a42"/>
    </g>
  </g>
  <g id="Group_2438" data-name="Group 2438" transform="translate(8.801 12.737)">
    <g id="Group_2437" data-name="Group 2437">
      <path id="Path_318" data-name="Path 318" d="M248.91,359.575l-.207-.327-.479.3.207.327a2.259,2.259,0,0,1-.143,2.622.284.284,0,0,0-.062.177v.851h.567v-.754A2.827,2.827,0,0,0,248.91,359.575Z" transform="translate(-248.224 -359.248)" fill="#101a42"/>
    </g>
  </g>
  <g id="Group_2440" data-name="Group 2440" transform="translate(0 2.476)">
    <g id="Group_2439" data-name="Group 2439">
      <path id="Path_319" data-name="Path 319" d="M16.735,77.014H14.182a1.985,1.985,0,0,0-1.982,1.9l-.855,1.539V79.283A1.988,1.988,0,0,0,9.36,77.3H8.323l-.008-.006-.005.006H7.658a.567.567,0,0,1-.567-.567v-.667A2.836,2.836,0,0,0,8.509,73.61V71.341A2.842,2.842,0,0,0,8.169,70a.284.284,0,0,0-.369-.122L3,72.132a.284.284,0,0,0-.163.257V73.61a2.836,2.836,0,0,0,1.418,2.453v.667a.567.567,0,0,1-.567.567h-1.7A1.988,1.988,0,0,0,0,79.283v5.106H.567V79.283a1.42,1.42,0,0,1,1.418-1.418h.9l2.554,3.569a.284.284,0,0,0,.227.119h0a.284.284,0,0,0,.227-.113l2.695-3.574H9.36a1.42,1.42,0,0,1,1.418,1.418v2.269a.284.284,0,0,0,.532.138l1.337-2.407h1.626l-2.765,5.106h.645l2.767-5.106h.113A1.988,1.988,0,0,0,17.018,77.3.284.284,0,0,0,16.735,77.014ZM3.4,73.61V72.569l4.38-2.061a2.269,2.269,0,0,1,.159.833V73.61a2.269,2.269,0,1,1-4.538,0ZM5.679,80.79,4.8,79.567H6.6ZM7.03,79H4.4l-.812-1.135h.1A1.135,1.135,0,0,0,4.822,76.73v-.414a2.834,2.834,0,0,0,1.7,0v.414a1.135,1.135,0,0,0,1.135,1.135h.227Zm8-.284H12.792a1.42,1.42,0,0,1,1.39-1.135h2.241A1.42,1.42,0,0,1,15.033,78.716Z" transform="translate(0 -69.847)" fill="#101a42"/>
    </g>
  </g>
</svg>
