<svg xmlns="http://www.w3.org/2000/svg" width="16.462" height="19.654" viewBox="0 0 16.462 19.654">
    <defs>
        <style>
            .cls-1{fill:#054d7f;stroke:#054d7f;stroke-width:.5px}
        </style>
    </defs>
    <g id="hourglass" transform="translate(.25 .25)">
        <path id="Path_308" d="M20.643 18.516h-.958v-1.277h-1.6v-3.263a2.568 2.568 0 0 0-1.146-2.141l-3.382-2.258 3.386-2.257a2.568 2.568 0 0 0 1.146-2.141V1.915h1.6V.638h.958a.319.319 0 0 0 0-.638H5.319a.319.319 0 1 0 0 .638h.958v1.277h1.6v3.264A2.568 2.568 0 0 0 9.019 7.32l3.386 2.258-3.386 2.257a2.568 2.568 0 0 0-1.146 2.141v3.263h-1.6v1.277h-.954a.319.319 0 1 0 0 .638h15.324a.319.319 0 0 0 0-.638zM6.915 1.277V.638h12.132v.638H6.915zm2.458 5.511a1.932 1.932 0 0 1-.861-1.61V1.915h8.938v3.264a1.932 1.932 0 0 1-.861 1.61l-3.608 2.404zm-.861 7.187a1.932 1.932 0 0 1 .861-1.61l3.608-2.405 3.608 2.405a1.932 1.932 0 0 1 .861 1.61v3.263H8.512zm-1.6 3.9h12.135v.638H6.915z" class="cls-1" data-name="Path 308" transform="translate(-5)"/>
        <path id="Path_309" d="M18.931 14.576a.657.657 0 0 1-.293-.547v-.709a.319.319 0 1 0-.638 0v.709a1.293 1.293 0 0 0 .577 1.078l1.481.987a.319.319 0 1 0 .354-.531z" class="cls-1" data-name="Path 309" transform="translate(-13.85 -8.85)"/>
        <path id="Path_310" d="M35.976 39.04l-1.476-.987a.319.319 0 1 0-.354.531l1.481.987a.656.656 0 0 1 .293.547v.709a.319.319 0 1 0 .638 0v-.709a1.293 1.293 0 0 0-.582-1.078z" class="cls-1" data-name="Path 310" transform="translate(-24.741 -25.869)"/>
    </g>
</svg>
