<svg id="Layer_1" data-name="Layer 1" xmlns="http://www.w3.org/2000/svg" viewBox="0 0 48 48"><defs><style>.cls-1{fill:none;stroke:#9ba7be;stroke-miterlimit:10;stroke-width:1.2px;}</style></defs><title>train</title><path class="cls-1" d="M29.882,13.065H18.118a2.647,2.647,0,0,0-2.647,2.646V27.424l1.372,4.527H31.157l1.372-4.527V15.711A2.647,2.647,0,0,0,29.882,13.065Z"/><rect class="cls-1" x="17.186" y="16.815" width="13.628" height="6.539"/><line class="cls-1" x1="18.328" y1="33.495" x2="15.928" y2="39.851"/><line class="cls-1" x1="29.671" y1="33.495" x2="32.072" y2="39.851"/><line class="cls-1" x1="19.647" y1="34.878" x2="28.353" y2="34.878"/><line class="cls-1" x1="18.756" y1="37.742" x2="29.245" y2="37.742"/><path class="cls-1" d="M15.471,27.424h5.834a1.146,1.146,0,0,1,1.146,1.146h0a1.146,1.146,0,0,1-1.146,1.146H19.436a1.285,1.285,0,0,1-1.219-.877"/><path class="cls-1" d="M32.529,27.424H26.7a1.146,1.146,0,0,0-1.146,1.146h0A1.146,1.146,0,0,0,26.7,29.716h1.869a1.285,1.285,0,0,0,1.219-.877"/><polyline class="cls-1" points="22.215 11.81 24.031 10.276 24.031 8.149"/><line class="cls-1" x1="25.848" y1="11.81" x2="24.031" y2="10.276"/><line class="cls-1" x1="19.832" y1="8.149" x2="28.231" y2="8.149"/></svg>