<svg xmlns="http://www.w3.org/2000/svg" width="63" height="63" viewBox="0 0 63 63">
  <g id="twitter" transform="translate(-1526.02 -608)">
    <circle id="Ellipse_52" data-name="Ellipse 52" cx="31.5" cy="31.5" r="31.5" transform="translate(1526.02 608)" fill="#fff" opacity="0.25"/>
    <g id="twitter_white" data-name="twitter white" transform="translate(1540.707 623.187)">
      <rect id="Rectangle_393" data-name="Rectangle 393" width="33.122" height="33.122" transform="translate(0 0)" fill="none"/>
      <path id="Path_2" data-name="Path 2" d="M48.488,28.865c12.513,0,19.321-10.3,19.321-19.321v-.92a14.957,14.957,0,0,0,3.312-3.5,15.275,15.275,0,0,1-3.864,1.1A7.159,7.159,0,0,0,70.2,2.552a16.878,16.878,0,0,1-4.232,1.656A6.572,6.572,0,0,0,61,2a6.913,6.913,0,0,0-6.808,6.808,3.587,3.587,0,0,0,.184,1.472A19.024,19.024,0,0,1,40.392,3.1a7.047,7.047,0,0,0-.92,3.5,7.311,7.311,0,0,0,2.944,5.7,6.2,6.2,0,0,1-3.128-.92h0a6.725,6.725,0,0,0,5.52,6.624,5.673,5.673,0,0,1-1.84.184,3.131,3.131,0,0,1-1.288-.184,6.971,6.971,0,0,0,6.44,4.784,13.893,13.893,0,0,1-8.464,2.944A5.094,5.094,0,0,1,38,25.553a17.368,17.368,0,0,0,10.488,3.312" transform="translate(-38 2.139)" fill="#fff" fill-rule="evenodd"/>
    </g>
  </g>
</svg>
