<svg xmlns="http://www.w3.org/2000/svg" id="verified" width="20.234" height="20.234" viewBox="0 0 20.234 20.234">
    <defs>
        <style>
            .cls-1{fill:#fff}
        </style>
    </defs>
    <g id="Group_2443" data-name="Group 2443">
        <g id="Group_2442" data-name="Group 2442">
            <path id="Path_322" d="M17.271 2.963A10.117 10.117 0 0 0 2.963 17.271 10.117 10.117 0 1 0 17.271 2.963zm-7.154 16.085a8.931 8.931 0 1 1 8.931-8.931 8.941 8.941 0 0 1-8.931 8.931z" class="cls-1" data-name="Path 322"/>
        </g>
    </g>
    <g id="Group_2445" data-name="Group 2445" transform="translate(5.11 6.697)">
        <g id="Group_2444" data-name="Group 2444">
            <path id="Path_323" d="M139.141 169.641a.593.593 0 0 0-.838 0l-5.235 5.235-2.756-2.756a.593.593 0 0 0-.838.838l3.175 3.175a.593.593 0 0 0 .838 0l5.654-5.654a.593.593 0 0 0 0-.838z" class="cls-1" data-name="Path 323" transform="translate(-129.301 -169.467)"/>
        </g>
    </g>
</svg>
