<svg id="verified" xmlns="http://www.w3.org/2000/svg" width="17.733" height="17.733" viewBox="0 0 17.733 17.733">
  <g id="Group_2443" data-name="Group 2443">
    <g id="Group_2442" data-name="Group 2442">
      <path id="Path_322" data-name="Path 322" d="M15.136,2.6A8.866,8.866,0,0,0,2.6,15.136,8.866,8.866,0,1,0,15.136,2.6Zm-6.269,14.1a7.827,7.827,0,1,1,7.827-7.827A7.836,7.836,0,0,1,8.866,16.694Z" fill="#101a42"/>
    </g>
  </g>
  <g id="Group_2445" data-name="Group 2445" transform="translate(4.478 5.869)">
    <g id="Group_2444" data-name="Group 2444">
      <path id="Path_323" data-name="Path 323" d="M137.925,169.619a.52.52,0,0,0-.735,0l-4.588,4.588-2.415-2.415a.52.52,0,0,0-.735.735l2.782,2.782a.519.519,0,0,0,.735,0l4.955-4.955A.52.52,0,0,0,137.925,169.619Z" transform="translate(-129.301 -169.467)" fill="#101a42"/>
    </g>
  </g>
</svg>
