<svg id="Layer_1" data-name="Layer 1" xmlns="http://www.w3.org/2000/svg" viewBox="0 0 48 48"><defs><style>.cls-1{fill:none;stroke:#9ba7be;stroke-miterlimit:10;stroke-width:1.2px;}</style></defs><title>walk</title><circle class="cls-1" cx="23.657" cy="11.479" r="3.397"/><path class="cls-1" d="M26.129,15.413l6.257,3.338a.981.981,0,0,1,.486,1.157l-.91,2.969a1.059,1.059,0,0,1-1.207.749,1.029,1.029,0,0,1-.768-1.323l.658-2.037-3.36-1.538v5.637a5.56,5.56,0,0,1-.993,3.172l-8.056,11.6a1.416,1.416,0,0,1-1.709.5h0a1.416,1.416,0,0,1-.7-1.979l6.255-11.552V18.443l-.095.048L20,21.271a.979.979,0,0,1-1.39.209l-3.12-2.374a1.028,1.028,0,0,1-.2-1.43l.048-.066a1.028,1.028,0,0,1,1.419-.229l2.128,1.5,1.24-1.717,1-1.467"/><path class="cls-1" d="M25.269,30.99l2.43,7.879a1.486,1.486,0,0,0,1.421,1.048h0a1.486,1.486,0,0,0,1.433-1.879L27.689,27.58"/><line class="cls-1" x1="27.285" y1="18.728" x2="24.985" y2="17.791"/></svg>