<svg xmlns="http://www.w3.org/2000/svg" id="Layer_2" width="55.943" height="10.707" data-name="Layer 2" viewBox="0 0 55.943 10.707">
    <defs>
        <style>
            .cls-1{fill:url(#linear-gradient)}
        </style>
        <linearGradient id="linear-gradient" x1="-.622" x2="1.918" y1="2.899" y2="-2.737" gradientUnits="objectBoundingBox">
            <stop offset="0" stop-color="#20b038"/>
            <stop offset="1" stop-color="#60d66a"/>
        </linearGradient>
    </defs>
    <g id="WhatsApp_Logo" data-name="WhatsApp Logo">
        <g id="WA_Logotype" data-name="WA Logotype">
            <path id="Path_1786" d="M7.976 5.886h-.023L6.494 0H4.736L3.252 5.814h-.023L1.877 0H0l2.26 8.541h1.9l1.425-5.814h.024l1.447 5.814h1.865L11.217 0H9.376zm8.969-3a1.661 1.661 0 0 0-.687-.515 2.9 2.9 0 0 0-1.118-.185 2.226 2.226 0 0 0-.981.245 1.963 1.963 0 0 0-.825.784H13.3V0h-1.7v8.541h1.7V5.3a2.3 2.3 0 0 1 .311-1.358 1.175 1.175 0 0 1 1-.413.926.926 0 0 1 .849.377 2.166 2.166 0 0 1 .24 1.142v3.493h1.7v-3.8a5.017 5.017 0 0 0-.1-1.047 2 2 0 0 0-.355-.805zm7 4.277V3.947a1.484 1.484 0 0 0-.251-.9 1.716 1.716 0 0 0-.645-.532 2.893 2.893 0 0 0-.873-.257 6.927 6.927 0 0 0-.945-.066 5.182 5.182 0 0 0-1.023.1 2.918 2.918 0 0 0-.914.341 2.027 2.027 0 0 0-.669.634 1.968 1.968 0 0 0-.3.993h1.7a.96.96 0 0 1 .335-.718 1.289 1.289 0 0 1 .789-.215 2.863 2.863 0 0 1 .424.03.943.943 0 0 1 .347.12.656.656 0 0 1 .239.251.9.9 0 0 1 .09.437.46.46 0 0 1-.155.4 1.134 1.134 0 0 1-.454.209 4.375 4.375 0 0 1-.658.107q-.371.037-.753.1a7.147 7.147 0 0 0-.759.161 2.147 2.147 0 0 0-.67.3 1.559 1.559 0 0 0-.479.545 1.808 1.808 0 0 0-.185.867 1.94 1.94 0 0 0 .161.825 1.553 1.553 0 0 0 .448.574 1.894 1.894 0 0 0 .67.335 3.043 3.043 0 0 0 .825.108 3.85 3.85 0 0 0 1.124-.167 2.217 2.217 0 0 0 .957-.587 2.565 2.565 0 0 0 .042.305 2.428 2.428 0 0 0 .078.293h1.722a1.438 1.438 0 0 1-.167-.574 6.385 6.385 0 0 1-.048-.8zm-1.7-1.017a3.159 3.159 0 0 1-.03.383 1.276 1.276 0 0 1-.163.471 1.121 1.121 0 0 1-.407.4 1.5 1.5 0 0 1-.778.168 2.088 2.088 0 0 1-.394-.036.952.952 0 0 1-.335-.125.643.643 0 0 1-.227-.245.8.8 0 0 1-.084-.382.831.831 0 0 1 .084-.4.774.774 0 0 1 .222-.257 1.117 1.117 0 0 1 .323-.162 3.079 3.079 0 0 1 .377-.1c.135-.023.271-.044.406-.06s.265-.036.389-.06a2.751 2.751 0 0 0 .348-.09.757.757 0 0 0 .269-.149zM27.11.5h-1.7v1.856h-1.026v1.137h1.028v3.648a1.583 1.583 0 0 0 .156.754 1.111 1.111 0 0 0 .424.443 1.765 1.765 0 0 0 .622.209 4.984 4.984 0 0 0 .747.053c.168 0 .339 0 .515-.011a3.954 3.954 0 0 0 .478-.048V7.225a2.144 2.144 0 0 1-.252.036 3.012 3.012 0 0 1-.275.012.831.831 0 0 1-.574-.144.836.836 0 0 1-.143-.574V3.493h1.243V2.356H27.11zm7.02 5.332a1.538 1.538 0 0 0-.442-.491 2.413 2.413 0 0 0-.628-.317 7.4 7.4 0 0 0-.724-.2q-.358-.084-.705-.156a5.607 5.607 0 0 1-.616-.161 1.283 1.283 0 0 1-.436-.234.463.463 0 0 1-.167-.371.456.456 0 0 1 .1-.305.639.639 0 0 1 .233-.174 1.057 1.057 0 0 1 .3-.078 2.979 2.979 0 0 1 .311-.018 1.7 1.7 0 0 1 .79.173.743.743 0 0 1 .37.664h1.614a2.033 2.033 0 0 0-.293-.951 1.934 1.934 0 0 0-.616-.6 2.572 2.572 0 0 0-.843-.323 4.88 4.88 0 0 0-.974-.1 5.352 5.352 0 0 0-.98.089 2.707 2.707 0 0 0-.861.311 1.717 1.717 0 0 0-.616.6 1.86 1.86 0 0 0-.233.981 1.322 1.322 0 0 0 .168.688 1.447 1.447 0 0 0 .442.466 2.471 2.471 0 0 0 .628.3c.235.077.476.142.723.2a10.068 10.068 0 0 1 1.418.383q.508.191.508.574a.626.626 0 0 1-.108.376.812.812 0 0 1-.269.239 1.266 1.266 0 0 1-.359.132 1.806 1.806 0 0 1-.377.042A1.943 1.943 0 0 1 31 7.512a1.253 1.253 0 0 1-.413-.186A.989.989 0 0 1 30.3 7a.936.936 0 0 1-.114-.472h-1.617a2.078 2.078 0 0 0 .281 1.035 2.043 2.043 0 0 0 .657.664 2.79 2.79 0 0 0 .915.359 5.126 5.126 0 0 0 1.051.108 5.311 5.311 0 0 0 1.035-.1 2.621 2.621 0 0 0 .9-.353 1.956 1.956 0 0 0 .64-.664 1.979 1.979 0 0 0 .252-1.022 1.438 1.438 0 0 0-.168-.723zM37.5 0l-3.226 8.541h1.889l.669-1.9h3.193l.645 1.9h1.95L39.428 0zm-.179 5.239l1.112-3.134h.024l1.077 3.134zm11.171-2.045a2.586 2.586 0 0 0-.873-.73 2.671 2.671 0 0 0-1.255-.275 2.416 2.416 0 0 0-1.052.227 1.862 1.862 0 0 0-.789.73H44.5v-.79h-1.617v8.35h1.7v-2.93h.023a2 2 0 0 0 .8.687 2.4 2.4 0 0 0 1.058.234 2.557 2.557 0 0 0 1.19-.263 2.513 2.513 0 0 0 .849-.706 3.057 3.057 0 0 0 .509-1.017 4.288 4.288 0 0 0 .167-1.2 4.746 4.746 0 0 0-.167-1.262 3.1 3.1 0 0 0-.515-1.058zM47.4 6.2a1.815 1.815 0 0 1-.246.628 1.38 1.38 0 0 1-2.308 0A1.886 1.886 0 0 1 44.6 6.2a3.42 3.42 0 0 1-.077-.729 3.773 3.773 0 0 1 .071-.742 1.88 1.88 0 0 1 .246-.635 1.384 1.384 0 0 1 .454-.448 1.305 1.305 0 0 1 .7-.174 1.284 1.284 0 0 1 .688.174 1.422 1.422 0 0 1 .461.454 1.958 1.958 0 0 1 .257.64 3.417 3.417 0 0 1 .077.731 3.728 3.728 0 0 1-.077.729zm8.371-1.944a3.085 3.085 0 0 0-.515-1.059 2.588 2.588 0 0 0-.873-.73 2.676 2.676 0 0 0-1.256-.275 2.417 2.417 0 0 0-1.051.227 1.869 1.869 0 0 0-.789.73h-.023v-.79h-1.612v8.35h1.7V7.776h.024a2 2 0 0 0 .8.687 2.408 2.408 0 0 0 1.059.234 2.562 2.562 0 0 0 1.19-.263 2.513 2.513 0 0 0 .849-.706 3.038 3.038 0 0 0 .508-1.017 4.237 4.237 0 0 0 .168-1.2 4.689 4.689 0 0 0-.168-1.262zM54.173 6.2a1.8 1.8 0 0 1-.245.628 1.359 1.359 0 0 1-.454.437 1.384 1.384 0 0 1-1.853-.437 1.9 1.9 0 0 1-.251-.628 3.431 3.431 0 0 1-.078-.729 3.786 3.786 0 0 1 .072-.742 1.876 1.876 0 0 1 .245-.635 1.393 1.393 0 0 1 .454-.448 1.307 1.307 0 0 1 .7-.174 1.283 1.283 0 0 1 .687.174 1.423 1.423 0 0 1 .461.454 1.935 1.935 0 0 1 .257.64 3.406 3.406 0 0 1 .078.731 3.715 3.715 0 0 1-.073.729z" class="cls-1" data-name="Path 1786"/>
        </g>
    </g>
</svg>
