<svg xmlns="http://www.w3.org/2000/svg" width="143.169" height="138.575" viewBox="0 0 143.169 138.575">
  <g id="analytics" transform="translate(0.5 0.521)">
    <path id="Path_79" data-name="Path 79" d="M34.991,76.031A2.37,2.37,0,0,0,33.744,80.6l20.312,5.534L47.845,99.809a9.176,9.176,0,0,0-1.63-.167,9.594,9.594,0,1,0,5.924,2.147l6.539-14.383L85.863,94.82a2.437,2.437,0,0,0,.633.083,2.369,2.369,0,0,0,2.184-1.45L99.63,67.449l22.408,6.035v.095a9.478,9.478,0,1,0,13.771-8.4l5.37-24.152,12.236-3.059a2.37,2.37,0,0,0-1.148-4.6l-9.951,2.485,3.736-16.807A9.527,9.527,0,1,0,141.428,18l-4.253,19.139-32.3,8.076a2.363,2.363,0,0,0-1.611,1.379l-6.4,15.2L79.387,57.087v-.095a9.478,9.478,0,1,0-15.4,7.329L56.055,81.772Zm11.224,37.828a4.739,4.739,0,1,1,4.739-4.739A4.739,4.739,0,0,1,46.215,113.859ZM140.994,9.6a4.739,4.739,0,1,1,4.739,4.739A4.739,4.739,0,0,1,140.994,9.6Zm-4.739,63.976a4.739,4.739,0,1,1-4.739-4.739A4.739,4.739,0,0,1,136.255,73.578ZM107.177,49.526,136.037,42.3l-4.851,21.825a9.428,9.428,0,0,0-7.871,4.782l-21.83-5.876ZM69.91,52.253a4.739,4.739,0,1,1-4.739,4.739A4.739,4.739,0,0,1,69.91,52.253ZM68.277,66.3a9.309,9.309,0,0,0,1.632.165,9.445,9.445,0,0,0,8.2-4.814l16.9,4.549-9.9,23.5L60.669,83.035Zm0,0" transform="translate(-22.52 0)" fill="#f05b4e" stroke="#f05b4e" stroke-width="1"/>
    <path id="Path_80" data-name="Path 80" d="M139.8,448.434H2.369a2.369,2.369,0,1,0,0,4.739H139.8a2.369,2.369,0,1,0,0-4.739Zm0,0" transform="translate(0 -315.619)" fill="#f05b4e" stroke="#f05b4e" stroke-width="1"/>
  </g>
</svg>
