<svg xmlns="http://www.w3.org/2000/svg" xmlns:xlink="http://www.w3.org/1999/xlink" width="82" height="82" viewBox="0 0 82 82">
  <defs>
    <clipPath id="clip-path">
      <rect id="Rectangle_1777" data-name="Rectangle 1777" width="82" height="82" transform="translate(-6204 -4399)" fill="none"/>
    </clipPath>
  </defs>
  <g id="Choose" transform="translate(6204 4399)" clip-path="url(#clip-path)">
    <g id="select" transform="translate(-6246.759 -4396)">
      <g id="Group_69" data-name="Group 69" transform="translate(53.333)">
        <path id="Path_81" data-name="Path 81" d="M106.529,21.9a6.237,6.237,0,0,0-3.48,1.058,6.259,6.259,0,0,0-9.387-3.129,6.274,6.274,0,0,0-5.908-4.187,6.208,6.208,0,0,0-3.129.842V6.258a6.258,6.258,0,1,0-12.517,0V42.841l-8.6-4.3a9.431,9.431,0,0,0-4.2-.989,5.99,5.99,0,0,0-4.224,10.223L75.319,68.006A24.059,24.059,0,0,0,92.448,75.1a20.363,20.363,0,0,0,20.34-20.34v-26.6A6.265,6.265,0,0,0,106.529,21.9Zm3.129,32.856a17.231,17.231,0,0,1-17.214,17.21,20.927,20.927,0,0,1-14.91-6.18L57.3,45.558a2.859,2.859,0,0,1,2.012-4.878,6.3,6.3,0,0,1,2.8.66l10.868,5.432a1.564,1.564,0,0,0,2.262-1.4V6.258a3.129,3.129,0,0,1,6.258,0V35.986a1.565,1.565,0,1,0,3.129,0V21.9a3.129,3.129,0,1,1,6.258,0V35.986a1.565,1.565,0,1,0,3.129,0V25.033a3.129,3.129,0,0,1,6.258,0V35.986a1.565,1.565,0,1,0,3.129,0V28.162a3.129,3.129,0,0,1,6.258,0Z" transform="translate(-53.333)" fill="#f05b4e" stroke="#f05b4e" stroke-width="0.5"/>
      </g>
    </g>
  </g>
</svg>
