<svg xmlns="http://www.w3.org/2000/svg" xmlns:xlink="http://www.w3.org/1999/xlink" width="82" height="82" viewBox="0 0 82 82">
  <defs>
    <clipPath id="clip-path">
      <rect id="Rectangle_1778" data-name="Rectangle 1778" width="82" height="82" transform="translate(-6081 -4399)" fill="#fff" stroke="#707070" stroke-width="1"/>
    </clipPath>
  </defs>
  <g id="Compare" transform="translate(6081 4399)" clip-path="url(#clip-path)">
    <g id="analytics" transform="translate(-6079.388 -4395.994)">
      <path id="Path_79" data-name="Path 79" d="M33.617,41.147a1.283,1.283,0,0,0-.675,2.475l10.993,3-3.361,7.4a4.967,4.967,0,0,0-.882-.09A5.193,5.193,0,1,0,42.9,55.088L46.437,47.3,61.15,51.316a1.319,1.319,0,0,0,.343.045,1.282,1.282,0,0,0,1.182-.785L68.6,36.5l12.128,3.266v.051a5.13,5.13,0,1,0,7.453-4.547L91.089,22.2l6.622-1.656a1.282,1.282,0,0,0-.621-2.488L91.7,19.4l2.022-9.1a5.156,5.156,0,1,0-2.5-.565L88.922,20.1l-17.48,4.371a1.279,1.279,0,0,0-.872.746l-3.463,8.226-9.462-2.548v-.051a5.13,5.13,0,1,0-8.336,3.967l-4.292,9.445Zm6.075,20.474a2.565,2.565,0,1,1,2.565-2.565A2.565,2.565,0,0,1,39.692,61.621Zm51.3-56.426a2.565,2.565,0,1,1,2.565,2.565A2.565,2.565,0,0,1,90.989,5.194ZM88.424,39.82a2.565,2.565,0,1,1-2.565-2.565A2.565,2.565,0,0,1,88.424,39.82ZM72.686,26.8l15.62-3.91L85.68,34.7a5.1,5.1,0,0,0-4.26,2.588l-11.815-3.18Zm-20.17,1.476a2.565,2.565,0,1,1-2.565,2.565A2.565,2.565,0,0,1,52.516,28.278Zm-.884,7.6a5.038,5.038,0,0,0,.884.09,5.112,5.112,0,0,0,4.438-2.606L66.1,35.829,60.747,48.547,47.515,44.938Zm0,0" transform="translate(-26.868 0)" fill="#f05b4e" stroke="#f05b4e" stroke-width="1"/>
      <path id="Path_80" data-name="Path 80" d="M75.663,448.434H1.282a1.282,1.282,0,1,0,0,2.565h74.38a1.282,1.282,0,0,0,0-2.565Zm0,0" transform="translate(0 -376.554)" fill="#f05b4e" stroke="#f05b4e" stroke-width="1"/>
    </g>
  </g>
</svg>
