<svg xmlns="http://www.w3.org/2000/svg" width="143.941" height="143.941" viewBox="0 0 143.941 143.941">
  <g id="consulting" transform="translate(0.5 0.5)">
    <path id="Path_71" data-name="Path 71" d="M130.151,284.918l-5.77-2a13.934,13.934,0,0,0,5.308-10.942v-4.229a13.956,13.956,0,0,0-27.912,0v4.229a13.935,13.935,0,0,0,5.309,10.942l-5.771,2a19,19,0,0,0-9.041,6.65H76.686v-6.152A19.044,19.044,0,0,0,63.9,267.439l-5.771-2a13.935,13.935,0,0,0,5.309-10.941v-4.229a13.956,13.956,0,1,0-27.912,0v4.229a13.937,13.937,0,0,0,5.308,10.941l-5.77,2a19.044,19.044,0,0,0-12.789,17.978v6.152H2.114A2.114,2.114,0,0,0,0,293.683v17.479a2.114,2.114,0,0,0,2.115,2.115H90.078a1.925,1.925,0,0,1,.564,0h50.184a2.114,2.114,0,0,0,2.115-2.115V302.9a19.045,19.045,0,0,0-12.789-17.978Zm-24.145-17.174a9.727,9.727,0,0,1,19.453,0v4.229a9.727,9.727,0,0,1-19.453,0ZM39.752,250.265a9.727,9.727,0,0,1,19.453,0v4.229a9.727,9.727,0,1,1-19.453,0ZM53.915,268.45l2.055.713-6.491,11.262-6.491-11.262,2.055-.713ZM26.5,285.416a14.813,14.813,0,0,1,9.947-13.983l2.473-.858,8.726,15.141a2.114,2.114,0,0,0,3.664,0l8.726-15.141,2.473.858a14.812,14.812,0,0,1,9.946,13.983v6.152H26.5ZM4.229,295.8H89.9a18.963,18.963,0,0,0-1.377,7.1v6.152H4.229Zm134.483,13.25H92.757V302.9a14.813,14.813,0,0,1,9.946-13.983l8.595-2.984h8.873l8.595,2.984a14.813,14.813,0,0,1,9.947,13.983Zm0,0" transform="translate(0.001 -170.336)" fill="#f05b4e" stroke="#f05b4e" stroke-width="1"/>
    <path id="Path_72" data-name="Path 72" d="M129.548,15.224h-21.48a2.115,2.115,0,0,0,0,4.229h21.48a9.173,9.173,0,0,1,9.163,9.164v29.32a9.173,9.173,0,0,1-9.163,9.163H100.509a2.114,2.114,0,0,0-2.115,2.115v8.993L87.908,67.72a2.114,2.114,0,0,0-1.5-.619h-17.2a9.174,9.174,0,0,1-9.164-9.163V28.616a9.173,9.173,0,0,1,9.164-9.163H98.183a2.115,2.115,0,1,0,0-4.229H87.117V13.392A13.407,13.407,0,0,0,73.725,0H13.392A13.407,13.407,0,0,0,0,13.392v4.675a2.115,2.115,0,1,0,4.229,0V13.392a9.173,9.173,0,0,1,9.163-9.163H73.725a9.173,9.173,0,0,1,9.163,9.163v1.832H69.215A13.407,13.407,0,0,0,55.823,28.616V51.875H33.691a2.114,2.114,0,0,0-2.115,2.115v8.993L21.09,52.495a2.114,2.114,0,0,0-1.5-.619h-6.2a9.173,9.173,0,0,1-9.163-9.163V27.9A2.115,2.115,0,1,0,0,27.9V42.712A13.407,13.407,0,0,0,13.391,56.1h5.326L32.2,69.583a2.115,2.115,0,0,0,3.61-1.5V56.1H55.823v1.833A13.407,13.407,0,0,0,69.215,71.329H85.537L99.014,84.807a2.115,2.115,0,0,0,3.61-1.5V71.329h26.925A13.407,13.407,0,0,0,142.94,57.938V28.616a13.407,13.407,0,0,0-13.392-13.392Zm0,0" transform="translate(0.001 0)" fill="#f05b4e" stroke="#f05b4e" stroke-width="1"/>
  </g>
</svg>
