<svg xmlns="http://www.w3.org/2000/svg" width="72.418" height="64.554" viewBox="0 0 72.418 64.554">
  <g id="home_1_" data-name="home (1)" transform="translate(0.001 -27.797)">
    <g id="Group_8" data-name="Group 8" transform="translate(-0.001 27.798)">
      <g id="Group_7" data-name="Group 7" transform="translate(0 0)">
        <path id="Path_18" data-name="Path 18" d="M71.647,53.294,37.32,28.161a1.881,1.881,0,0,0-2.223,0L.77,53.294a1.882,1.882,0,0,0,2.223,3.036l33.215-24.32,33.215,24.32a1.882,1.882,0,0,0,2.223-3.036Z" transform="translate(0.001 -27.798)" fill="#f05b4e"/>
      </g>
    </g>
    <g id="Group_10" data-name="Group 10" transform="translate(7.984 56.757)">
      <g id="Group_9" data-name="Group 9">
        <path id="Path_19" data-name="Path 19" d="M111.019,232.543a1.882,1.882,0,0,0-1.882,1.882v29.95H94.085V248.026a9.409,9.409,0,0,0-18.817,0v16.349H60.215v-29.95a1.882,1.882,0,0,0-3.763,0v31.832a1.882,1.882,0,0,0,1.882,1.882H77.149a1.881,1.881,0,0,0,1.874-1.735,1.419,1.419,0,0,0,.007-.147v-18.23a5.645,5.645,0,1,1,11.291,0v18.23a1.381,1.381,0,0,0,.007.145,1.88,1.88,0,0,0,1.874,1.737h18.816a1.882,1.882,0,0,0,1.882-1.882V234.425A1.882,1.882,0,0,0,111.019,232.543Z" transform="translate(-56.452 -232.543)" fill="#f05b4e"/>
      </g>
    </g>
  </g>
</svg>
