<svg xmlns="http://www.w3.org/2000/svg" width="105.158" height="98.738" viewBox="0 0 105.158 98.738">
  <g id="loan" transform="translate(0 0.416)">
    <path id="Path_32" data-name="Path 32" d="M116.165,74.2a3.271,3.271,0,0,0-3.042-2.047h-1.695a16.836,16.836,0,0,0-8.195,2.136l-12.375,6.92h-3.53a9.769,9.769,0,0,0-9.6-8.01H55.439a1.748,1.748,0,0,0-1.334.619l-6.753,8a1.733,1.733,0,0,0-1.317-.613H12.994a1.744,1.744,0,1,0,0,3.489H34.306v25H12.994a1.744,1.744,0,0,0,0,3.489h33.04a1.744,1.744,0,0,0,1.744-1.744v-8.365l35.574-1.633a.4.4,0,0,0,.1-.008,25.128,25.128,0,0,0,14.86-6.978l17.1-16.676a3.272,3.272,0,0,0,.75-3.584Zm-71.87,35.5H37.8v-25h6.5ZM95.881,91.966a21.621,21.621,0,0,1-12.738,6L47.783,99.585V86.726l8.473-10.039H77.729a6.28,6.28,0,0,1,6.12,4.934L66.173,85.961a1.744,1.744,0,0,0,.414,3.438A1.723,1.723,0,0,0,67,89.348L85.949,84.7h5.363a1.743,1.743,0,0,0,.851-.221l12.773-7.142a13.327,13.327,0,0,1,6.492-1.695h1.2Z" transform="translate(-11.25 -14.865)" fill="#f05c4e"/>
    <path id="Path_33" data-name="Path 33" d="M82.233,66.389A25.853,25.853,0,1,0,56.38,40.535,25.853,25.853,0,0,0,82.233,66.389Zm0-48.218A22.365,22.365,0,1,1,59.869,40.535,22.365,22.365,0,0,1,82.233,18.171Z" transform="translate(-11.528 -15.098)" fill="#f05c4e"/>
    <path id="Path_1899" data-name="Path 1899" d="M11.651-26.254h7.916v-3.759H11.651v-1.527c0-3.433,1.618-5.107,4.153-5.107A5.048,5.048,0,0,1,19.5-35l2.8-3.762a9.861,9.861,0,0,0-6.929-2.658c-5.07,0-9,3.066-9,9.664v1.744H2.979v3.759H6.367v6.3l-3.388.789v3.261H21.54v-4.437H11.651Z" transform="translate(58.238 54.167)" fill="#f05c4e"/>
  </g>
</svg>
