<svg xmlns="http://www.w3.org/2000/svg" width="42" height="42" viewBox="0 0 42 42">
  <g id="mail" transform="translate(0.187 -0.001)">
    <circle id="Ellipse_64" data-name="Ellipse 64" cx="21" cy="21" r="21" transform="translate(-0.187 0.001)" fill="#fff"/>
    <g id="envelope" transform="translate(11.209 13.403)">
      <g id="Group_251" data-name="Group 251" transform="translate(0 0)">
        <path id="Path_279" data-name="Path 279" d="M18.18,57.75H2.532A2.534,2.534,0,0,0,0,60.282V70.977a2.534,2.534,0,0,0,2.532,2.532H18.176a2.534,2.534,0,0,0,2.532-2.532V60.287A2.532,2.532,0,0,0,18.18,57.75Zm1.375,13.227a1.377,1.377,0,0,1-1.375,1.375H2.532a1.377,1.377,0,0,1-1.375-1.375V60.287a1.377,1.377,0,0,1,1.375-1.375H18.176a1.377,1.377,0,0,1,1.375,1.375v10.69Z" transform="translate(0 -57.75)" fill="#f05b4e" stroke="#f05b4e" stroke-width="0.5"/>
        <path id="Path_280" data-name="Path 280" d="M66.423,114.457l5.064-4.542a.579.579,0,0,0-.776-.861l-6.984,6.268-1.363-1.217s-.009-.009-.009-.013a.856.856,0,0,0-.094-.081l-5.544-4.962a.58.58,0,0,0-.771.865l5.124,4.58-5.1,4.777a.581.581,0,0,0-.026.818.592.592,0,0,0,.424.184.58.58,0,0,0,.394-.154l5.18-4.846,1.405,1.255a.577.577,0,0,0,.771,0l1.444-1.294,5.15,4.893a.58.58,0,0,0,.818-.021.581.581,0,0,0-.021-.818Z" transform="translate(-53.364 -106.711)" fill="#f05b4e" stroke="#f05b4e" stroke-width="0.5"/>
      </g>
    </g>
  </g>
</svg>
