<svg id="oops_vector" xmlns="http://www.w3.org/2000/svg" width="409.255" height="147.812" viewBox="0 0 409.255 147.812">
  <path id="Path_10269" data-name="Path 10269" d="M123.915,19.022c10.413,8.624,16.514,19.1,18.491,31.167,1.882,11.486-.633,20.583-7.316,27.542-6.483,6.749-15.617,10.047-27.549,10.047a56.9,56.9,0,0,1-32.73-10.047A54.343,54.343,0,0,1,53.287,50.189c-4.248-12.067-3.55-22.543,2.415-31.167C61.877,10.1,72.14,5.507,86.325,5.507a57.469,57.469,0,0,1,37.591,13.515Zm-3.466,48.956c3.74-4.368,4.89-10.259,3.361-17.792A33.436,33.436,0,0,0,90.9,23.246c-8.085,0-13.932,2.6-17.491,7.706-3.485,5.011-3.955,11.462-1.523,19.237A33.816,33.816,0,0,0,84.422,67.982a32.5,32.5,0,0,0,19.665,6.4c7.257,0,12.695-2.115,16.364-6.4Z" transform="translate(-19.438 -2.113)" fill="#fbd6d3"/>
  <path id="Path_10270" data-name="Path 10270" d="M272.913,94.8c-5.547,5.079-12.833,7.573-21.956,7.573s-16.784-2.5-23.087-7.573a30.07,30.07,0,0,1-11.456-19.689c-1.2-8.25.853-15.459,6.28-21.517,5.566-6.214,13.573-9.381,23.911-9.381s18.818,3.167,25.316,9.381a29,29,0,0,1,9.5,21.517A25.364,25.364,0,0,1,272.913,94.8ZM236.457,63.3c-2.719,2.947-3.795,6.9-3.263,11.817a16.434,16.434,0,0,0,5.547,11.243,16.828,16.828,0,0,0,11.313,3.991,14.646,14.646,0,0,0,10.712-3.991c2.764-2.7,4.063-6.431,3.865-11.243-.2-4.915-1.869-8.87-5.029-11.817a16.834,16.834,0,0,0-11.912-4.489C242.965,58.806,239.211,60.312,236.457,63.3Z" transform="translate(-83.051 -16.991)" fill="#fbd6d3"/>
  <path id="Path_10271" data-name="Path 10271" d="M355.89,95.915l-1.354,24.08H339.375l1.488-74.337h16.468l-.4,7.537c4.661-5.945,11.827-8.976,21.409-8.976,9.33,0,16.322,3.107,20.895,9.207,4.459,5.95,5.964,13.223,4.633,21.691a32.511,32.511,0,0,1-10.472,19.834c-5.55,4.981-12.393,7.429-20.625,7.429a26.086,26.086,0,0,1-10.158-1.834A17.162,17.162,0,0,1,355.89,95.915Zm5.638-32.4a17.288,17.288,0,0,0-4.943,11.595c-.251,4.537.923,8.2,3.486,11.042,2.533,2.8,6,4.192,10.419,4.192a15.788,15.788,0,0,0,11.158-4.192,17.344,17.344,0,0,0,5.433-11.042c.56-4.627-.4-8.5-2.9-11.6-2.536-3.13-6.183-4.711-10.913-4.711a15.828,15.828,0,0,0-11.743,4.712Z" transform="translate(-130.436 -16.992)" fill="#fbd6d3"/>
  <path id="Path_10272" data-name="Path 10272" d="M474.37,102.374c-15.872,0-23.29-5.755-22.212-17.737h16.671a5.374,5.374,0,0,0,1.678,4.864q2.041,1.93,6.828,1.927a17.212,17.212,0,0,0,7.273-1.283,5.439,5.439,0,0,0,3.278-3.491q.608-2.421-2.581-3.6a41.521,41.521,0,0,0-7.995-1.9,92.282,92.282,0,0,1-9.575-1.965,13.688,13.688,0,0,1-7.641-4.934c-1.921-2.488-2.519-5.837-1.767-10.082.965-5.451,4.186-10.142,9.708-14.027,5.611-3.945,12.4-5.942,20.3-5.942,8.993,0,15.109,2.155,18.308,6.411a16.384,16.384,0,0,1,2.973,14H493.059a5.465,5.465,0,0,0-1.489-5.028q-2.013-2.038-6.431-2.042A12.968,12.968,0,0,0,478.28,59.2a6.359,6.359,0,0,0-3.191,4.093q-.563,2.658,2.789,3.859a42.41,42.41,0,0,0,8.262,1.909,79.7,79.7,0,0,1,9.66,2,12.119,12.119,0,0,1,7.222,5.11c1.647,2.512,1.874,5.819.711,9.887-1.388,4.853-4.757,8.781-10.07,11.827C488.422,100.886,482.007,102.374,474.37,102.374Z" transform="translate(-173.744 -16.989)" fill="#fbd6d3"/>
  <path id="Path_10273" data-name="Path 10273" d="M554.27,88.358q-4.342,0-6.445-2.358-2.121-2.378-.971-6.157a11.873,11.873,0,0,1,4.889-6.379,14.341,14.341,0,0,1,8.273-2.572q4.629,0,6.637,2.572,1.985,2.549.633,6.379a11.964,11.964,0,0,1-4.981,6.2,14.5,14.5,0,0,1-8.036,2.314Zm.428-22.283L569.416,8.718h22.117L568.508,66.074Z" transform="translate(-210.024 -3.348)" fill="#fbd6d3"/>
  <path id="Path_10274" data-name="Path 10274" d="M118.408,13.513c10.412,8.624,16.514,19.1,18.491,31.166,1.882,11.486-.633,20.583-7.316,27.543-6.483,6.749-15.617,10.047-27.549,10.047A56.9,56.9,0,0,1,69.3,72.222,54.338,54.338,0,0,1,47.778,44.68c-4.248-12.067-3.55-22.542,2.415-31.166C56.368,4.583,66.63,0,80.816,0a57.468,57.468,0,0,1,37.593,13.515ZM114.942,62.47c3.74-4.371,4.89-10.259,3.36-17.792A33.438,33.438,0,0,0,85.391,17.737c-8.085,0-13.932,2.6-17.491,7.707-3.486,5.008-3.957,11.459-1.525,19.234A33.819,33.819,0,0,0,78.912,62.47a32.507,32.507,0,0,0,19.666,6.4c7.257,0,12.692-2.113,16.364-6.4Z" transform="translate(-17.321 0.005)" fill="#f05c4e"/>
  <path id="Path_10275" data-name="Path 10275" d="M267.4,89.29c-5.547,5.079-12.833,7.573-21.956,7.573s-16.785-2.5-23.087-7.573A30.068,30.068,0,0,1,210.906,69.6c-1.2-8.25.853-15.459,6.28-21.517C222.75,41.87,230.757,38.7,241.1,38.7s18.818,3.168,25.316,9.381a29,29,0,0,1,9.5,21.517A25.365,25.365,0,0,1,267.4,89.29Zm-36.456-31.5c-2.719,2.947-3.795,6.9-3.263,11.818a16.434,16.434,0,0,0,5.548,11.243,16.828,16.828,0,0,0,11.313,3.991,14.647,14.647,0,0,0,10.712-3.991c2.764-2.7,4.063-6.431,3.865-11.243-.2-4.915-1.869-8.87-5.029-11.818A16.837,16.837,0,0,0,242.183,53.3C237.456,53.295,233.7,54.8,230.948,57.785Z" transform="translate(-80.934 -14.871)" fill="#f05c4e"/>
  <path id="Path_10276" data-name="Path 10276" d="M350.379,90.4l-1.354,24.077H333.866l1.487-74.337h16.468l-.4,7.536c4.661-5.945,11.827-8.976,21.409-8.976,9.33,0,16.322,3.108,20.895,9.208,4.459,5.95,5.964,13.223,4.633,21.691a32.51,32.51,0,0,1-10.472,19.834c-5.549,4.981-12.393,7.429-20.624,7.429A26.083,26.083,0,0,1,357.1,95.032a17.158,17.158,0,0,1-6.722-4.629Zm5.638-32.4a17.287,17.287,0,0,0-4.941,11.6c-.251,4.537.923,8.2,3.486,11.042,2.533,2.8,6,4.192,10.419,4.192a15.789,15.789,0,0,0,11.158-4.192A17.345,17.345,0,0,0,381.571,69.6c.56-4.627-.4-8.5-2.9-11.6-2.536-3.131-6.183-4.711-10.913-4.711A15.824,15.824,0,0,0,356.017,58.007Z" transform="translate(-128.319 -14.873)" fill="#f05c4e"/>
  <path id="Path_10277" data-name="Path 10277" d="M468.861,96.864c-15.872,0-23.291-5.755-22.212-17.737H463.32A5.372,5.372,0,0,0,465,83.991q2.041,1.93,6.828,1.927a17.211,17.211,0,0,0,7.273-1.283,5.439,5.439,0,0,0,3.278-3.491q.608-2.421-2.581-3.6a41.489,41.489,0,0,0-7.995-1.9,92.333,92.333,0,0,1-9.575-1.965,13.689,13.689,0,0,1-7.64-4.934c-1.921-2.489-2.519-5.837-1.768-10.082.965-5.451,4.186-10.142,9.708-14.027,5.611-3.945,12.4-5.942,20.3-5.942,8.993,0,15.109,2.155,18.308,6.411a16.383,16.383,0,0,1,2.972,14H487.549a5.465,5.465,0,0,0-1.489-5.027q-2.013-2.038-6.431-2.042a12.974,12.974,0,0,0-6.858,1.646,6.362,6.362,0,0,0-3.191,4.093q-.563,2.658,2.789,3.86a42.413,42.413,0,0,0,8.262,1.909,79.934,79.934,0,0,1,9.66,2,12.119,12.119,0,0,1,7.222,5.11c1.647,2.512,1.874,5.819.711,9.887-1.388,4.853-4.757,8.781-10.07,11.827C482.912,95.377,476.5,96.864,468.861,96.864Z" transform="translate(-171.627 -14.871)" fill="#f05c4e"/>
  <path id="Path_10278" data-name="Path 10278" d="M548.761,82.848q-4.342,0-6.445-2.358-2.121-2.378-.971-6.154a11.875,11.875,0,0,1,4.888-6.379,14.345,14.345,0,0,1,8.274-2.573q4.628,0,6.637,2.573,1.985,2.549.633,6.379a11.969,11.969,0,0,1-4.981,6.2A14.5,14.5,0,0,1,548.761,82.848Zm.428-22.283L563.908,3.208h22.117L563,60.565Z" transform="translate(-207.907 -1.23)" fill="#f05c4e"/>
  <path id="Path_10279" data-name="Path 10279" d="M0,94.577c0,42.583,91.615,77.1,204.628,77.1s204.627-34.52,204.627-77.1c0,49.475-91.615,89.582-204.627,89.582S0,144.052,0,94.577Z" transform="translate(0 -36.347)" fill="#f05c4e"/>
</svg>
