<svg xmlns="http://www.w3.org/2000/svg" width="76.412" height="79.048" viewBox="0 0 76.412 79.048">
  <g id="passport" transform="translate(0 0.002)">
    <path id="Path_20" data-name="Path 20" d="M76.281,10.4a1.32,1.32,0,0,0-.749-.675L48.2.074a1.318,1.318,0,0,0-1.681.8L40.315,18.443H37.6V13.964a3.952,3.952,0,0,0-4.962-3.821L.981,18.487v.024A1.3,1.3,0,0,0,0,19.76V75.094a3.953,3.953,0,0,0,3.952,3.952H40.841a3.953,3.953,0,0,0,3.952-3.952V63.14l10.566,3.73a1.317,1.317,0,0,0,1.681-.8L76.338,11.4a1.315,1.315,0,0,0-.057-1.007ZM33.31,12.684a1.318,1.318,0,0,1,1.655,1.274v4.484H11.476Zm8.849,62.41a1.318,1.318,0,0,1-1.317,1.317H3.952a1.318,1.318,0,0,1-1.317-1.317V21.078H40.841A1.318,1.318,0,0,1,42.159,22.4Zm10.83-49,1.686-.8.8,1.681-6.4,18.117a1.32,1.32,0,0,0,.054,1.007L50.5,48.967l-.424,1.2-2.613-2.706a1.316,1.316,0,0,0-1.11-.4l-1.561.2V45.5l1.124-.538a1.32,1.32,0,0,0,.675-.749l2.635-7.451Zm2.484,8.794,2.675,4.3L57.69,40.48l-3.2-2.8Zm-10.679,6.5v-3.62l1.3-.054Zm2.24-6.35-2.24.092V33.38l3.225-1.125Zm7.96,28.9-10.2-3.6V49.922l1.234-.154,3.64,3.766a1.317,1.317,0,0,0,.948.395,1.234,1.234,0,0,0,.279-.03,1.316,1.316,0,0,0,.962-.849l1.317-3.727a1.313,1.313,0,0,0-.054-1.006l-1.378-2.866,1.8-5.105,3.871,3.393a1.318,1.318,0,0,0,.868.327,1.3,1.3,0,0,0,.333-.044,1.319,1.319,0,0,0,.909-.835l1.317-3.727a1.316,1.316,0,0,0-.124-1.134L56.6,31.7l1.544-4.372a1.318,1.318,0,0,0-.054-1.008L56.48,22.959a1.318,1.318,0,0,0-1.757-.621L51.36,23.946a1.315,1.315,0,0,0-.673.749l-1.546,4.378L44.794,30.59V22.4A3.94,3.94,0,0,0,42.9,19.04l2.153-6.106.483-1.37L48.571,3l24.846,8.77Zm0,0" fill="#f05b4e"/>
    <path id="Path_21" data-name="Path 21" d="M397.055,109.532l.877-2.485,2.259.8-.877,2.485Zm0,0" transform="translate(-331.667 -89.42)" fill="#f05b4e"/>
    <path id="Path_22" data-name="Path 22" d="M287.328,70.8l.877-2.484,2.259.8-.877,2.484Zm0,0" transform="translate(-240.01 -57.064)" fill="#f05b4e"/>
    <path id="Path_23" data-name="Path 23" d="M369.621,99.848l.877-2.485,2.259.8-.877,2.484Zm0,0" transform="translate(-308.751 -81.331)" fill="#f05b4e"/>
    <path id="Path_24" data-name="Path 24" d="M314.762,80.484,315.639,78l2.258.8-.877,2.484Zm0,0" transform="translate(-262.926 -65.156)" fill="#f05b4e"/>
    <path id="Path_25" data-name="Path 25" d="M342.191,90.16l.877-2.484,2.259.8-.877,2.484Zm0,0" transform="translate(-285.838 -73.239)" fill="#f05b4e"/>
    <path id="Path_26" data-name="Path 26" d="M65.488,160a13.175,13.175,0,1,0,13.175,13.175A13.175,13.175,0,0,0,65.488,160ZM75,168.67l-1.8-.4c-.791-.174-1.581-.313-2.38-.432-.121-.8-.263-1.593-.433-2.38l-.4-1.8A10.583,10.583,0,0,1,75,168.67Zm-20.054,4.5a10.443,10.443,0,0,1,.132-1.608l3.258-.725c.5-.111,1-.2,1.507-.289a36.059,36.059,0,0,0,0,5.246c-.5-.087-1.007-.179-1.507-.29l-3.258-.724A10.446,10.446,0,0,1,54.948,173.175Zm7.57-2.968a33.386,33.386,0,0,1,5.936,0,33.266,33.266,0,0,1,0,5.936,33.263,33.263,0,0,1-5.936,0A33.267,33.267,0,0,1,62.518,170.207Zm8.607.345c.5.087,1.008.179,1.507.289l3.258.725a9.51,9.51,0,0,1,0,3.217l-3.258.724c-.5.111-1,.2-1.507.291A35.9,35.9,0,0,0,71.125,170.552Zm-4.03-7.785.724,3.26c.111.5.2,1,.291,1.507a35.9,35.9,0,0,0-5.248,0c.087-.505.179-1.008.291-1.507l.724-3.26a9.606,9.606,0,0,1,3.216,0Zm-6.113.89-.4,1.8c-.174.791-.312,1.581-.432,2.38q-1.2.179-2.38.432l-1.8.4a10.59,10.59,0,0,1,5-5Zm-5.007,14.018,1.8.4c.791.174,1.581.312,2.38.432q.179,1.2.432,2.38l.4,1.8a10.586,10.586,0,0,1-5.007-5Zm7.9,5.9-.724-3.26c-.112-.5-.2-1-.291-1.506.872.064,1.748.107,2.625.107s1.75-.043,2.623-.107c-.087.5-.181,1.008-.291,1.506l-.724,3.26a9.606,9.606,0,0,1-3.216,0Zm6.113-.89.4-1.8c.175-.791.312-1.581.433-2.38.8-.12,1.593-.263,2.38-.432l1.8-.4a10.58,10.58,0,0,1-5.006,5.008Zm0,0" transform="translate(-43.698 -133.652)" fill="#f05b4e"/>
    <path id="Path_27" data-name="Path 27" d="M68.313,384H89.392v2.635H68.313Zm0,0" transform="translate(-57.063 -320.763)" fill="#f05b4e"/>
    <path id="Path_28" data-name="Path 28" d="M84.313,416h15.81v2.635H84.313Zm0,0" transform="translate(-70.428 -347.493)" fill="#f05b4e"/>
    <path id="Path_29" data-name="Path 29" d="M124.313,352h2.635v2.635h-2.635Zm0,0" transform="translate(-103.841 -294.033)" fill="#f05b4e"/>
    <path id="Path_30" data-name="Path 30" d="M92.313,352h2.635v2.635H92.313Zm0,0" transform="translate(-77.11 -294.033)" fill="#f05b4e"/>
    <path id="Path_31" data-name="Path 31" d="M156.313,352h2.635v2.635h-2.635Zm0,0" transform="translate(-130.571 -294.033)" fill="#f05b4e"/>
  </g>
</svg>
