<svg xmlns="http://www.w3.org/2000/svg" width="43" height="42" viewBox="0 0 43 42">
  <g id="phone" transform="translate(0.229 -0.001)">
    <ellipse id="Ellipse_64" data-name="Ellipse 64" cx="21.5" cy="21" rx="21.5" ry="21" transform="translate(-0.229 0.001)" fill="#fff"/>
    <g id="phone-call" transform="translate(11.65 11.52)">
      <g id="Group_252" data-name="Group 252" transform="translate(0 0)">
        <path id="Path_281" data-name="Path 281" d="M15.723,38.345a1.916,1.916,0,0,0-1.389-.637,1.981,1.981,0,0,0-1.406.633l-1.3,1.295c-.107-.058-.214-.111-.317-.164-.148-.074-.288-.144-.407-.218A14.118,14.118,0,0,1,7.522,36.17a8.329,8.329,0,0,1-1.11-1.751c.337-.308.649-.629.954-.937.115-.115.23-.234.345-.349a1.886,1.886,0,0,0,0-2.845L6.589,29.165c-.127-.127-.259-.259-.382-.391-.247-.255-.506-.518-.773-.765a1.946,1.946,0,0,0-1.377-.6,2.014,2.014,0,0,0-1.4.6l-.008.008-1.4,1.41A3.007,3.007,0,0,0,.361,31.34a7.206,7.206,0,0,0,.526,3.05,17.7,17.7,0,0,0,3.145,5.245,19.345,19.345,0,0,0,6.442,5.044,10.036,10.036,0,0,0,3.617,1.069c.086,0,.177.008.259.008a3.1,3.1,0,0,0,2.372-1.019c0-.008.012-.012.016-.021a9.345,9.345,0,0,1,.719-.744c.177-.169.358-.345.534-.53a2.051,2.051,0,0,0,.621-1.422,1.976,1.976,0,0,0-.633-1.41Zm1.472,4.329s0,0,0,0c-.16.173-.325.329-.5.5A10.809,10.809,0,0,0,15.9,44a1.982,1.982,0,0,1-1.546.654c-.062,0-.127,0-.189,0a8.916,8.916,0,0,1-3.206-.962,18.26,18.26,0,0,1-6.067-4.752A16.689,16.689,0,0,1,1.932,34a5.869,5.869,0,0,1-.46-2.573,1.887,1.887,0,0,1,.567-1.221l1.4-1.4a.934.934,0,0,1,.625-.292.879.879,0,0,1,.6.288l.012.012c.251.234.489.477.74.736.127.132.259.263.391.4L6.93,31.073a.785.785,0,0,1,0,1.274c-.119.119-.234.238-.354.354-.345.354-.674.682-1.032,1-.008.008-.016.012-.021.021a.838.838,0,0,0-.214.933l.012.037a9.01,9.01,0,0,0,1.328,2.166l0,0a15.088,15.088,0,0,0,3.65,3.321,5.612,5.612,0,0,0,.506.275c.148.074.288.144.407.218.016.008.033.021.049.029a.891.891,0,0,0,.407.1.879.879,0,0,0,.625-.284L13.7,39.122a.93.93,0,0,1,.621-.308.837.837,0,0,1,.592.3l.008.008,2.265,2.265A.813.813,0,0,1,17.195,42.673Z" transform="translate(-0.344 -26.279)" fill="#054d7f" stroke="#054d7f" stroke-width="0.5"/>
        <path id="Path_282" data-name="Path 282" d="M245.4,87.026a5.29,5.29,0,0,1,4.308,4.308.552.552,0,0,0,.547.46.733.733,0,0,0,.095-.008.555.555,0,0,0,.456-.641,6.4,6.4,0,0,0-5.212-5.212.558.558,0,0,0-.641.452A.549.549,0,0,0,245.4,87.026Z" transform="translate(-234.889 -82.393)" fill="#054d7f" stroke="#054d7f" stroke-width="0.5"/>
        <path id="Path_283" data-name="Path 283" d="M258,8.592A10.534,10.534,0,0,0,249.42.009a.554.554,0,1,0-.181,1.093,9.409,9.409,0,0,1,7.671,7.671.552.552,0,0,0,.547.46.733.733,0,0,0,.095-.008A.545.545,0,0,0,258,8.592Z" transform="translate(-238.563 0)" fill="#054d7f" stroke="#054d7f" stroke-width="0.5"/>
      </g>
    </g>
  </g>
</svg>
