<svg xmlns="http://www.w3.org/2000/svg" width="110.621" height="139.601" viewBox="0 0 110.621 139.601">
  <g id="select" transform="translate(-53.083 0.25)">
    <g id="Group_69" data-name="Group 69" transform="translate(53.333)">
      <path id="Path_81" data-name="Path 81" d="M151.863,40.571a11.553,11.553,0,0,0-6.445,1.959,11.593,11.593,0,0,0-17.388-5.8,11.621,11.621,0,0,0-10.942-7.755,11.5,11.5,0,0,0-5.8,1.559V11.592a11.592,11.592,0,1,0-23.184,0V79.351L72.175,71.382A17.467,17.467,0,0,0,64.4,69.55a11.094,11.094,0,0,0-7.824,18.935l37.476,37.476A44.562,44.562,0,0,0,125.781,139.1a37.717,37.717,0,0,0,37.673-37.673V52.163A11.6,11.6,0,0,0,151.863,40.571Zm5.8,60.857A31.916,31.916,0,0,1,125.775,133.3a38.761,38.761,0,0,1-27.617-11.447L60.677,84.382A5.295,5.295,0,0,1,64.4,75.346a11.661,11.661,0,0,1,5.181,1.223L89.714,86.631A2.9,2.9,0,0,0,93.9,84.04V11.592a5.8,5.8,0,0,1,11.592,0V66.653a2.9,2.9,0,1,0,5.8,0V40.571a5.8,5.8,0,1,1,11.592,0V66.653a2.9,2.9,0,1,0,5.8,0V46.367a5.8,5.8,0,0,1,11.592,0V66.653a2.9,2.9,0,1,0,5.8,0V52.163a5.8,5.8,0,1,1,11.592,0Z" transform="translate(-53.333)" fill="#f05b4e" stroke="#f05b4e" stroke-width="0.5"/>
    </g>
  </g>
</svg>
