<svg xmlns="http://www.w3.org/2000/svg" width="65.878" height="77.361" viewBox="0 0 65.878 77.361">
  <g id="surface1" transform="translate(0 0.001)">
    <path id="Path_48" data-name="Path 48" d="M65.8,20.989l0-.06c-.034-.743-.056-1.529-.07-2.4a8.2,8.2,0,0,0-7.72-8.032C49.114,10,42.233,7.1,36.354,1.366l-.05-.048a4.951,4.951,0,0,0-6.729,0l-.05.048C23.646,7.1,16.765,10,7.871,10.493a8.2,8.2,0,0,0-7.72,8.032c-.013.869-.036,1.655-.07,2.4l0,.14c-.173,9.07-.388,20.358,3.388,30.6A38.957,38.957,0,0,0,12.812,66.23,48.891,48.891,0,0,0,31.1,77.048a5.666,5.666,0,0,0,.75.2,5.536,5.536,0,0,0,2.177,0,5.682,5.682,0,0,0,.753-.205,48.923,48.923,0,0,0,18.27-10.824A39.012,39.012,0,0,0,62.4,51.662C66.187,41.385,65.973,30.076,65.8,20.989Zm-7.663,29.1c-3.983,10.8-12.113,18.215-24.855,22.671a1.14,1.14,0,0,1-.144.039,1.019,1.019,0,0,1-.4,0,1.131,1.131,0,0,1-.143-.038C19.841,68.314,11.705,60.9,7.726,50.1,4.245,40.659,4.442,30.3,4.616,21.156V21.1c.035-.786.059-1.608.072-2.513a3.644,3.644,0,0,1,3.434-3.567,39.828,39.828,0,0,0,13.518-2.974,35.368,35.368,0,0,0,11.017-7.4.419.419,0,0,1,.562,0,35.381,35.381,0,0,0,11.016,7.4,39.83,39.83,0,0,0,13.519,2.974,3.643,3.643,0,0,1,3.434,3.567c.014.909.037,1.732.073,2.512C61.436,30.257,61.629,40.627,58.138,50.091Zm0,0" transform="translate(0 0)" fill="#f05b4e"/>
    <path id="Path_49" data-name="Path 49" d="M109.678,128.41a19.28,19.28,0,1,0,19.28,19.28A19.3,19.3,0,0,0,109.678,128.41Zm0,34.02a14.74,14.74,0,1,1,14.74-14.74A14.757,14.757,0,0,1,109.678,162.43Zm0,0" transform="translate(-76.739 -109.009)" fill="#f05b4e"/>
    <path id="Path_50" data-name="Path 50" d="M168.933,212.656l-8.955,8.955-2.431-2.431a2.27,2.27,0,1,0-3.21,3.21l4.036,4.036a2.27,2.27,0,0,0,3.21,0l10.56-10.56a2.27,2.27,0,0,0-3.21-3.21Zm0,0" transform="translate(-130.453 -179.961)" fill="#f05b4e"/>
  </g>
</svg>
