<svg xmlns="http://www.w3.org/2000/svg" width="106.439" height="78.139" viewBox="0 0 106.439 78.139">
  <g id="team" transform="translate(0 -68.066)">
    <g id="Group_38" data-name="Group 38" transform="translate(81.649 101.408)">
      <g id="Group_37" data-name="Group 37" transform="translate(0 0)">
        <path id="Path_51" data-name="Path 51" d="M405.01,230.281c-3.622-1.811-10.413-1.832-10.7-1.832a1.559,1.559,0,1,0,0,3.118c1.752,0,6.84.27,9.305,1.5a1.559,1.559,0,0,0,1.395-2.789Z" transform="translate(-392.751 -228.449)" fill="#f05b4e"/>
      </g>
    </g>
    <g id="Group_40" data-name="Group 40" transform="translate(0 68.066)">
      <g id="Group_39" data-name="Group 39" transform="translate(0 0)">
        <path id="Path_52" data-name="Path 52" d="M101.682,125.438l-6.439-1.84a.654.654,0,0,1-.472-.626v-2.149a11.716,11.716,0,0,0,1.491-1.223,11.47,11.47,0,0,0,3.511-8.3v-2.966l.623-1.245a9.947,9.947,0,0,0,1.044-4.425V94.632a1.559,1.559,0,0,0-1.559-1.559h-15a9.906,9.906,0,0,0-9.895,9.895v.093a8.27,8.27,0,0,0,.869,3.679l.8,1.6v2.547a12.166,12.166,0,0,0,5,9.836v2.253c0,.347,0,.491-1.287.859l-3.142.9-9.089-3.305a1.557,1.557,0,0,0-.425-1.194l-2.9-3.051v-5.122c.307-.253.61-.513.9-.788a18.3,18.3,0,0,0,5.765-13.3V93.875A18.023,18.023,0,0,0,73.137,86.3V69.625a1.559,1.559,0,0,0-1.559-1.559H48.238a14.913,14.913,0,0,0-14.9,14.9V86.3a18.023,18.023,0,0,0,1.667,7.579V97.4a19.052,19.052,0,0,0,6.668,14.541v5.243l-2.9,3.051a1.557,1.557,0,0,0-.425,1.194l-9.593,3.488a8.176,8.176,0,0,0-1.928,1.01l-1.506-.753c4.484-1.952,5.9-4.7,5.973-4.833a1.559,1.559,0,0,0,0-1.395c-1.124-2.248-1.26-6.369-1.37-9.68-.036-1.1-.071-2.144-.137-3.071-.532-7.479-6.217-13.118-13.225-13.118S3.869,98.712,3.338,106.191c-.066.927-.1,1.969-.137,3.071-.109,3.311-.246,7.431-1.37,9.679a1.559,1.559,0,0,0,0,1.395c.068.136,1.486,2.876,5.979,4.83l-4.184,2.092A6.526,6.526,0,0,0,0,133.126v11.519a1.559,1.559,0,1,0,3.118,0V133.126a3.424,3.424,0,0,1,1.9-3.079l5.21-2.605,1.812,1.722a6.557,6.557,0,0,0,9.039,0l1.812-1.722,1.7.849a8.21,8.21,0,0,0-1.254,4.353v12a1.559,1.559,0,1,0,3.118,0v-12a5.125,5.125,0,0,1,3.363-4.8l10.114-3.678,4.21,6.316a3.214,3.214,0,0,0,2.366,1.421q.162.016.322.016a3.214,3.214,0,0,0,2.278-.945L51.68,128.4v16.241a1.559,1.559,0,0,0,3.118,0V128.4l2.569,2.569a3.212,3.212,0,0,0,2.278.945q.16,0,.321-.016a3.214,3.214,0,0,0,2.367-1.421l4.211-6.316,10.114,3.678a5.125,5.125,0,0,1,3.363,4.8v12a1.559,1.559,0,1,0,3.118,0v-12a8.243,8.243,0,0,0-2.306-5.7l.385-.11a8.55,8.55,0,0,0,1.451-.524l3.981,3.981v14.358a1.559,1.559,0,1,0,3.118,0V130.288l3.953-3.953a3.709,3.709,0,0,0,.663.263l6.44,1.84a3.457,3.457,0,0,1,2.5,3.31v12.9a1.559,1.559,0,1,0,3.118,0v-12.9A6.589,6.589,0,0,0,101.682,125.438ZM10,122.684a11.209,11.209,0,0,1-5-3.213,17.186,17.186,0,0,0,.889-3.733A11.627,11.627,0,0,0,10,120.816Zm8.932,4.22a3.441,3.441,0,0,1-4.743,0l-1.45-1.378A3.226,3.226,0,0,0,13.121,124v-1.662a11.594,11.594,0,0,0,6.884,0V124a3.226,3.226,0,0,0,.379,1.523Zm-2.371-7.158A8.453,8.453,0,0,1,8.12,111.3a1.55,1.55,0,0,0-1.815-1.536c0-.134.009-.268.014-.4.035-1.072.068-2.085.13-2.953A11.576,11.576,0,0,1,9.6,99.143a9.687,9.687,0,0,1,13.925,0,11.576,11.576,0,0,1,3.152,7.27c.062.868.1,1.881.131,2.953l.009.278a14.01,14.01,0,0,0-7.7-5.627,19.569,19.569,0,0,0-5.93-.94,1.559,1.559,0,0,0-1.079.476L9.294,106.47a1.559,1.559,0,1,0,2.245,2.165l2.341-2.428c2.016.1,8.5.853,11.024,6.407A8.423,8.423,0,0,1,16.564,119.747Zm6.56,2.943v-1.86a11.533,11.533,0,0,0,4.116-5.083,17.164,17.164,0,0,0,.888,3.725A11.262,11.262,0,0,1,23.123,122.69Zm15-25.295V93.526a1.559,1.559,0,0,0-.155-.678A14.956,14.956,0,0,1,36.461,86.3V82.962A11.791,11.791,0,0,1,48.238,71.185h21.78V86.3a14.956,14.956,0,0,1-1.512,6.552,1.559,1.559,0,0,0-.155.678v4.439a14.969,14.969,0,0,1-4.78,11.028,15.516,15.516,0,0,1-1.2,1.013l-.027.02a14.992,14.992,0,0,1-10.117,3.018C44.322,112.533,38.128,105.659,38.128,97.395Zm8.779,31.373a.1.1,0,0,1-.087.031.1.1,0,0,1-.079-.048l-4.849-7.274,1.56-1.64,7.356,5.028Zm6.333-6.017L44.8,116.979v-2.91a17.556,17.556,0,0,0,7.233,2.088q.616.04,1.227.04a18.06,18.06,0,0,0,8.427-2.065v2.848Zm6.5,6a.1.1,0,0,1-.079.048.1.1,0,0,1-.087-.031l-3.9-3.9,7.356-5.028,1.561,1.64Zm28.471-1.316L84.671,123.9a4.278,4.278,0,0,0,.1-.926v-.658a10.932,10.932,0,0,0,3.088.546c.12,0,.239.005.359.005a11.581,11.581,0,0,0,3.438-.52v.628a3.727,3.727,0,0,0,.113.909Zm5.88-10.073a8.38,8.38,0,0,1-6.14,2.38,8.728,8.728,0,0,1-8.183-8.859v-2.915a1.557,1.557,0,0,0-.165-.7l-.963-1.926a5.136,5.136,0,0,1-.539-2.285v-.093a6.784,6.784,0,0,1,6.776-6.776H98.32v6.476A6.812,6.812,0,0,1,97.6,105.7l-.787,1.574a1.558,1.558,0,0,0-.165.7V111.3A8.377,8.377,0,0,1,94.089,117.363Z" transform="translate(0 -68.066)" fill="#f05b4e"/>
      </g>
    </g>
    <g id="Group_42" data-name="Group 42" transform="translate(96.653 133.083)">
      <g id="Group_41" data-name="Group 41">
        <path id="Path_53" data-name="Path 53" d="M466.482,380.814a1.559,1.559,0,0,0-1.559,1.559v10a1.559,1.559,0,1,0,3.118,0v-10A1.559,1.559,0,0,0,466.482,380.814Z" transform="translate(-464.923 -380.814)" fill="#f05b4e"/>
      </g>
    </g>
    <g id="Group_44" data-name="Group 44" transform="translate(6.668 135.144)">
      <g id="Group_43" data-name="Group 43" transform="translate(0 0)">
        <path id="Path_54" data-name="Path 54" d="M33.636,390.728a1.559,1.559,0,0,0-1.559,1.559v7.942a1.559,1.559,0,1,0,3.118,0v-7.942A1.559,1.559,0,0,0,33.636,390.728Z" transform="translate(-32.077 -390.728)" fill="#f05b4e"/>
      </g>
    </g>
    <g id="Group_46" data-name="Group 46" transform="translate(40.011 82.231)">
      <g id="Group_45" data-name="Group 45">
        <path id="Path_55" data-name="Path 55" d="M218.461,140.833c-5.9-5.9-18.235-4.77-23.266-4.011a3.2,3.2,0,0,0-2.735,3.189V143.6a1.559,1.559,0,0,0,3.118,0V140.01a.1.1,0,0,1,.081-.105,49.258,49.258,0,0,1,10.129-.495c4.862.324,8.384,1.544,10.467,3.628a1.559,1.559,0,0,0,2.2-2.2Z" transform="translate(-192.46 -136.203)" fill="#f05b4e"/>
      </g>
    </g>
    <g id="Group_48" data-name="Group 48" transform="translate(33.342 136.418)">
      <g id="Group_47" data-name="Group 47" transform="translate(0 0)">
        <path id="Path_56" data-name="Path 56" d="M161.943,396.853a1.559,1.559,0,0,0-1.559,1.559v6.669a1.559,1.559,0,0,0,3.118,0v-6.669A1.559,1.559,0,0,0,161.943,396.853Z" transform="translate(-160.384 -396.853)" fill="#f05b4e"/>
      </g>
    </g>
    <g id="Group_50" data-name="Group 50" transform="translate(70.019 136.418)">
      <g id="Group_49" data-name="Group 49" transform="translate(0 0)">
        <path id="Path_57" data-name="Path 57" d="M338.365,396.853a1.559,1.559,0,0,0-1.559,1.559v6.669a1.559,1.559,0,0,0,3.118,0v-6.669A1.559,1.559,0,0,0,338.365,396.853Z" transform="translate(-336.806 -396.853)" fill="#f05b4e"/>
      </g>
    </g>
  </g>
</svg>
