<svg xmlns="http://www.w3.org/2000/svg" id="logo-white" width="94.091" height="23.103" viewBox="0 0 94.091 23.103">
    <defs>
        <style>
            .cls-1{fill:#fff}.cls-2{fill:#005128}
        </style>
    </defs>
    <path id="Path_1893" d="M297.608 98.6h9.525v1.777h-3.745v9.99h-2.06v-9.99H297.6V98.6zm9.118 3.247h1.761v1.644h.033a1.932 1.932 0 0 1 .324-.673 3 3 0 0 1 .573-.6 3.054 3.054 0 0 1 .747-.44 2.287 2.287 0 0 1 .839-.166c.216 0 .374.008.457.017s.166.025.257.033v1.81a5.613 5.613 0 0 0-.407-.058 3.448 3.448 0 0 0-.407-.025 2.2 2.2 0 0 0-.9.191 2.066 2.066 0 0 0-.731.556 2.826 2.826 0 0 0-.5.913 3.872 3.872 0 0 0-.183 1.254v4.053h-1.877v-8.512zm13.619 8.52H318.5v-1.187h-.033a2.56 2.56 0 0 1-1.03 1.03 2.817 2.817 0 0 1-1.4.39 3.125 3.125 0 0 1-2.433-.83 3.674 3.674 0 0 1-.747-2.516v-5.406h1.877v5.224a2.3 2.3 0 0 0 .432 1.586 1.564 1.564 0 0 0 1.2.465 2.309 2.309 0 0 0 .988-.183 1.667 1.667 0 0 0 .639-.49 1.881 1.881 0 0 0 .357-.731 3.6 3.6 0 0 0 .108-.922v-4.941h1.877zm3.2-2.732a1.446 1.446 0 0 0 .623 1.154 2.513 2.513 0 0 0 1.3.332 5.577 5.577 0 0 0 .6-.042 2.511 2.511 0 0 0 .631-.158 1.213 1.213 0 0 0 .49-.34.826.826 0 0 0 .174-.581.8.8 0 0 0-.266-.59 1.87 1.87 0 0 0-.631-.374 6.334 6.334 0 0 0-.88-.241c-.332-.066-.664-.141-1-.216a9.539 9.539 0 0 1-1.013-.282 3.094 3.094 0 0 1-.872-.448 1.972 1.972 0 0 1-.615-.714 2.233 2.233 0 0 1-.233-1.08 1.946 1.946 0 0 1 .34-1.163 2.581 2.581 0 0 1 .855-.756 3.964 3.964 0 0 1 1.154-.407 7.028 7.028 0 0 1 1.212-.116 5.653 5.653 0 0 1 1.262.141 3.254 3.254 0 0 1 1.088.457 2.689 2.689 0 0 1 .806.814 2.833 2.833 0 0 1 .407 1.212h-1.96a1.169 1.169 0 0 0-.615-.905 2.517 2.517 0 0 0-1.113-.233 3.5 3.5 0 0 0-.473.033 2.591 2.591 0 0 0-.515.125 1.117 1.117 0 0 0-.407.266.642.642 0 0 0-.166.457.71.71 0 0 0 .241.556 2.014 2.014 0 0 0 .623.357 6.335 6.335 0 0 0 .88.241c.332.066.673.141 1.021.216s.673.174 1 .282a3.033 3.033 0 0 1 .88.448 2.211 2.211 0 0 1 .623.706 2.153 2.153 0 0 1 .241 1.055 2.294 2.294 0 0 1-.349 1.287 2.761 2.761 0 0 1-.9.855 4.217 4.217 0 0 1-1.229.482 6.167 6.167 0 0 1-1.337.149 5.672 5.672 0 0 1-1.495-.183 3.639 3.639 0 0 1-1.188-.548 2.717 2.717 0 0 1-.789-.922 3.026 3.026 0 0 1-.307-1.312h1.893zm6.2-5.788h1.42v-2.558h1.877v2.558h1.694v1.4h-1.694v4.553a4.636 4.636 0 0 0 .025.515.947.947 0 0 0 .116.365.533.533 0 0 0 .274.224 1.339 1.339 0 0 0 .5.075c.133 0 .266 0 .4-.008a2.2 2.2 0 0 0 .4-.058v1.453c-.208.025-.415.042-.606.066a4.854 4.854 0 0 1-.606.033 4.2 4.2 0 0 1-1.2-.141 1.552 1.552 0 0 1-.706-.415 1.441 1.441 0 0 1-.349-.681 5.122 5.122 0 0 1-.108-.938v-5.024h-1.42v-1.42zm6.32 0h1.777V103h.033a2.319 2.319 0 0 1 1.1-1.063 3.639 3.639 0 0 1 1.536-.324 3.977 3.977 0 0 1 1.752.357 3.424 3.424 0 0 1 1.246.972 4.251 4.251 0 0 1 .739 1.445 6.055 6.055 0 0 1 .249 1.761 6.121 6.121 0 0 1-.224 1.661 4.445 4.445 0 0 1-.673 1.428 3.3 3.3 0 0 1-1.146.988 3.4 3.4 0 0 1-1.636.374 4.587 4.587 0 0 1-.822-.075 3.619 3.619 0 0 1-.789-.241 2.849 2.849 0 0 1-.7-.424 2.631 2.631 0 0 1-.54-.6h-.033v4.252h-1.877zm6.561 4.269a4.242 4.242 0 0 0-.149-1.121 3.023 3.023 0 0 0-.448-.963 2.285 2.285 0 0 0-.739-.673 2.281 2.281 0 0 0-2.807.565 3.648 3.648 0 0 0-.6 2.192 4.208 4.208 0 0 0 .158 1.2 2.67 2.67 0 0 0 .473.947 2.241 2.241 0 0 0 .747.623 2.342 2.342 0 0 0 2.1-.033 2.3 2.3 0 0 0 .731-.681 2.831 2.831 0 0 0 .415-.955 5.339 5.339 0 0 0 .116-1.1zm3.314-7.516h1.877v1.777h-1.877zm0 3.247h1.877v8.52h-1.877zm3.554-3.247h1.877v11.768h-1.877zm7.632 12a4.642 4.642 0 0 1-1.819-.34 3.811 3.811 0 0 1-2.192-2.35 5.481 5.481 0 0 1-.291-1.81 5.417 5.417 0 0 1 .291-1.794 4.05 4.05 0 0 1 .839-1.42 3.824 3.824 0 0 1 1.354-.93 5.027 5.027 0 0 1 3.637 0 3.811 3.811 0 0 1 2.192 2.35 5.417 5.417 0 0 1 .291 1.794 5.481 5.481 0 0 1-.291 1.81 4.05 4.05 0 0 1-.839 1.42 3.825 3.825 0 0 1-1.354.93 4.642 4.642 0 0 1-1.825.34zm0-1.487a2.176 2.176 0 0 0 1.088-.266 2.316 2.316 0 0 0 .756-.689 3.1 3.1 0 0 0 .44-.963 4.294 4.294 0 0 0 0-2.184 2.841 2.841 0 0 0-.44-.963 2.291 2.291 0 0 0-.756-.681 2.36 2.36 0 0 0-2.176 0 2.384 2.384 0 0 0-.756.681 3.01 3.01 0 0 0-.44.963 4.294 4.294 0 0 0 0 2.184 2.917 2.917 0 0 0 .44.963 2.315 2.315 0 0 0 .756.689 2.093 2.093 0 0 0 1.081.267zm4.85-7.266h1.42v-2.558h1.877v2.558h1.694v1.4h-1.694v4.553a4.644 4.644 0 0 0 .025.515.946.946 0 0 0 .116.365.532.532 0 0 0 .274.224 1.339 1.339 0 0 0 .5.075c.133 0 .266 0 .4-.008a2.2 2.2 0 0 0 .4-.058v1.453c-.208.025-.415.042-.606.066a4.854 4.854 0 0 1-.606.033 4.2 4.2 0 0 1-1.2-.141 1.552 1.552 0 0 1-.706-.415 1.441 1.441 0 0 1-.349-.681 5.117 5.117 0 0 1-.108-.938v-5.024h-1.42v-1.42z" class="cls-1" data-name="Path 1893" transform="translate(-272.886 -90.412)"/>
    <path id="Path_1894" d="M22.53 8.188h-8.6L11.269 0 8.6 8.188 0 8.18l6.968 5.066-2.668 8.18 6.968-5.057 6.959 5.057-2.657-8.18z" class="cls-1" data-name="Path 1894"/>
    <path id="Path_1895" d="M140.6 161.352l-.6-1.852-4.3 3.123z" class="cls-2" data-name="Path 1895" transform="translate(-124.431 -146.254)"/>
</svg>
