<svg xmlns="http://www.w3.org/2000/svg" id="amazon-logo" width="107.398" height="32.357" viewBox="0 0 107.398 32.357">
    <defs>
        <style>
            .cls-1{fill:#9ba7be}
        </style>
    </defs>
    <g id="Group_224" data-name="Group 224" transform="translate(18.309 .158)">
        <g id="Group_223" data-name="Group 223">
            <path id="Path_122" d="M28.727 16.674a4.91 4.91 0 0 0-8.44 1.3c-.931-2.153-2.234-3.16-4.313-3.16a4.393 4.393 0 0 0-4.379 3.16h-.056V15.74a.622.622 0 0 0-.6-.57h-3.1a.626.626 0 0 0-.641.613v17.058a.622.622 0 0 0 .6.562h3.326a.628.628 0 0 0 .639-.616v-9.045c0-1.972-.1-4.7 2.29-4.7 2.361 0 2.053 2.8 2.053 4.7v9.043a.63.63 0 0 0 .6.616h3.318a.627.627 0 0 0 .641-.616v-9.043a10.417 10.417 0 0 1 .308-3.27 2.207 2.207 0 0 1 1.987-1.4 1.73 1.73 0 0 1 1.954 1.468 21.528 21.528 0 0 1 .094 3.2v9.043a.632.632 0 0 0 .6.616h3.32a.628.628 0 0 0 .639-.616l.005-10.763c-.008-1.827.205-3.911-.845-5.346z" class="cls-1" data-name="Path 122" transform="translate(-7.196 -14.809)"/>
        </g>
    </g>
    <g id="Group_226" data-name="Group 226" transform="translate(76.174 .16)">
        <g id="Group_225" data-name="Group 225">
            <path id="Path_123" d="M37.413 14.81c-4.809 0-7.475 4.13-7.475 9.437 0 5.277 2.633 9.511 7.475 9.511 4.651 0 7.6-4.127 7.6-9.33.013-5.384-2.664-9.618-7.6-9.618zm0 15.432c-2.605 0-2.577-4.45-2.577-6.534s.158-5.417 2.6-5.417a2.077 2.077 0 0 1 2.173 1.651 15.656 15.656 0 0 1 .5 4.524c.012 2.188-.109 5.776-2.696 5.776z" class="cls-1" data-name="Path 123" transform="translate(-29.938 -14.81)"/>
        </g>
    </g>
    <g id="Group_228" data-name="Group 228" transform="translate(43.575)">
        <g id="Group_227" data-name="Group 227">
            <path id="Path_124" d="M32.835 30.38a4.566 4.566 0 0 1-1.247-3.08v-5.18c0-2.191.15-4.206-1.466-5.717a7.535 7.535 0 0 0-5-1.654c-3.16 0-6.694 1.178-7.432 5.086a.584.584 0 0 0 .494.7l3.221.346a.7.7 0 0 0 .58-.608 2.528 2.528 0 0 1 2.672-1.995 2.2 2.2 0 0 1 1.86.865 4.212 4.212 0 0 1 .407 2.407v.422c-1.926.221-4.445.361-6.249 1.155a5.642 5.642 0 0 0-3.542 5.432c0 3.453 2.173 5.18 4.969 5.18a6.585 6.585 0 0 0 5.481-2.417 8.018 8.018 0 0 0 1.906 2.219.7.7 0 0 0 .789-.076l.005.005a164.53 164.53 0 0 1 2.544-2.206.625.625 0 0 0 .008-.884zm-5.918-5.025a6.458 6.458 0 0 1-.623 3.524A2.686 2.686 0 0 1 24 30.387c-1.28 0-2.028-.969-2.028-2.407 0-2.832 2.539-3.346 4.944-3.346v.72z" class="cls-1" data-name="Path 124" transform="translate(-17.126 -14.747)"/>
        </g>
    </g>
    <g id="Group_230" data-name="Group 230" transform="translate(93.743 .155)">
        <g id="Group_229" data-name="Group 229">
            <path id="Path_125" d="M49.629 16.821a4.383 4.383 0 0 0-3.885-2.013c-2.292 0-3.6 1.112-4.529 3.445h-.053v-2.608a.638.638 0 0 0-.6-.478h-3.078a.631.631 0 0 0-.641.557l.005 17.063a.633.633 0 0 0 .6.621h3.305a.64.64 0 0 0 .651-.621v-9.18a7.465 7.465 0 0 1 .532-3.231 2.169 2.169 0 0 1 1.924-1.364c2.29 0 2.071 2.73 2.071 4.6v9.264a.633.633 0 0 0 .585.539h3.336a.649.649 0 0 0 .646-.539V22.133c.002-1.651.002-3.944-.869-5.312z" class="cls-1" data-name="Path 125" transform="translate(-36.843 -14.808)"/>
        </g>
    </g>
    <g id="Group_232" data-name="Group 232" transform="translate(61.46 .476)">
        <g id="Group_231" data-name="Group 231">
            <path id="Path_126" d="M36.689 28.592a12.05 12.05 0 0 0-6.231-1.336l5.669-8.081c.522-.728.819-1.183.819-1.534v-2.089a.606.606 0 0 0-.631-.618H25.392a.6.6 0 0 0-.616.618v2.44a.6.6 0 0 0 .631.613h5.71l-6.559 9.4a2.95 2.95 0 0 0-.4 1.677v2.476c0 .356.4.766.781.557A12.575 12.575 0 0 1 36.47 32.7c.417.214.8-.2.8-.56v-2.601a1.119 1.119 0 0 0-.581-.947z" class="cls-1" data-name="Path 126" transform="translate(-24.155 -14.934)"/>
        </g>
    </g>
    <g id="Group_234" data-name="Group 234" transform="translate(61.42 19.522)">
        <g id="Group_233" data-name="Group 233">
            <path id="Path_127" d="M34.6 23.207c-.679-.842-6.531-1.567-10.1.939-.544.384-.455.916.158.845 2.008-.237 6.486-.773 7.279.244s-.888 5.234-1.644 7.112c-.232.57.262.8.776.371 3.356-2.794 4.216-8.661 3.531-9.511z" class="cls-1" data-name="Path 127" transform="translate(-24.139 -22.419)"/>
        </g>
    </g>
    <g id="Group_236" data-name="Group 236" transform="translate(15.117 20.64)">
        <g id="Group_235" data-name="Group 235">
            <path id="Path_128" d="M56.548 26.06a56.058 56.058 0 0 1-21.518 4.4 56.71 56.71 0 0 1-28.2-7.478c-.7-.412-1.221.308-.639.835a41.739 41.739 0 0 0 28.184 10.76c7.791 0 16.831-2.45 23.075-7.05 1.032-.765.15-1.91-.902-1.467z" class="cls-1" data-name="Path 128" transform="translate(-5.941 -22.859)"/>
        </g>
    </g>
    <g id="Group_238" data-name="Group 238">
        <g id="Group_237" data-name="Group 237">
            <path id="Path_129" d="M15.712 30.38a4.556 4.556 0 0 1-1.252-3.08v-5.18c0-2.191.155-4.206-1.46-5.717a7.544 7.544 0 0 0-5.01-1.654c-3.16 0-6.687 1.178-7.432 5.086a.591.591 0 0 0 .494.7l3.231.346a.7.7 0 0 0 .575-.608 2.53 2.53 0 0 1 2.674-1.995 2.218 2.218 0 0 1 1.862.865 4.272 4.272 0 0 1 .4 2.407v.427c-1.924.224-4.442.364-6.249 1.158A5.643 5.643 0 0 0 0 28.558c0 3.453 2.178 5.18 4.974 5.18a6.579 6.579 0 0 0 5.481-2.417 8.061 8.061 0 0 0 1.906 2.219.7.7 0 0 0 .786-.076l.01.005c.662-.585 1.865-1.641 2.547-2.206a.624.624 0 0 0 .008-.883zm-5.919-5.025a6.48 6.48 0 0 1-.621 3.524 2.688 2.688 0 0 1-2.3 1.509c-1.275 0-2.015-.969-2.015-2.407 0-2.832 2.537-3.346 4.936-3.346z" class="cls-1" data-name="Path 129" transform="translate(0 -14.747)"/>
        </g>
    </g>
</svg>
