<svg xmlns="http://www.w3.org/2000/svg" width="422.702" height="411.552" viewBox="0 0 422.702 411.552">
    <defs>
        <style>
            .cls-1{fill:#f05b4e}.cls-2{fill:#054d7f}.cls-3,.cls-4{fill:#fff}.cls-3{opacity:.53}.cls-5{fill:#f970a5}.cls-6{fill:#f16e63}.cls-7{fill:#fcaccb}.cls-8{filter:url(#Rectangle_950)}.cls-9{filter:url(#Path_216)}.cls-10{filter:url(#Path_215)}
        </style>
        <filter id="Path_215" width="50.592" height="52.576" x="188.427" y="129.805" filterUnits="userSpaceOnUse">
            <feOffset dy="3"/>
            <feGaussianBlur result="blur" stdDeviation="3"/>
            <feFlood flood-color="#9ba7be" flood-opacity=".2"/>
            <feComposite in2="blur" operator="in"/>
            <feComposite in="SourceGraphic"/>
        </filter>
        <filter id="Path_216" width="48.861" height="70.738" x="172.312" y="115.533" filterUnits="userSpaceOnUse">
            <feOffset dy="3"/>
            <feGaussianBlur result="blur-2" stdDeviation="3"/>
            <feFlood flood-color="#9ba7be" flood-opacity=".2"/>
            <feComposite in2="blur-2" operator="in"/>
            <feComposite in="SourceGraphic"/>
        </filter>
        <filter id="Rectangle_950" width="422.702" height="411.552" x="0" y="0" filterUnits="userSpaceOnUse">
            <feOffset dx="-10" dy="-10"/>
            <feGaussianBlur result="blur-3" stdDeviation="49.5"/>
            <feFlood flood-color="#9ba7be" flood-opacity=".2"/>
            <feComposite in2="blur-3" operator="in"/>
            <feComposite in="SourceGraphic"/>
        </filter>
    </defs>
    <g id="gift" transform="translate(158.403 121.533)">
        <g id="Layer_2" data-name="Layer 2">
            <g id="OBJECTS">
                <g class="cls-10" transform="translate(-158.4 -121.53)">
                    <path id="Path_215-2" d="M73.042 59.451a4.9 4.9 0 0 1-3.389-1.177c-2.672-2.371-2.069-7.343 1.9-15.657 2.76-5.781 6.493-11.642 8.37-13.757a11.839 11.839 0 1 1 17.711 15.714c-1.876 2.117-7.25 6.521-12.662 9.949-5.212 3.303-9.117 4.928-11.93 4.928zm-.242-4.729c.765.163 3.781-.37 10.312-4.612a67.706 67.706 0 0 0 10.99-8.667A7.123 7.123 0 1 0 83.45 31.99a67.566 67.566 0 0 0-7.293 11.946c-3.436 6.988-3.605 10.047-3.357 10.786zm23.07-11.713z" class="cls-1" data-name="Path 215" transform="translate(129.4 110.93)"/>
                </g>
                <g class="cls-9" transform="translate(-158.4 -121.53)">
                    <path id="Path_216-2" d="M60.115 52.739c-4.228 0-8.426-4.823-13.133-15.048-3.526-7.659-6.31-16.361-6.871-20.032a15.345 15.345 0 1 1 30.339-4.622c.559 3.672.49 12.808-.6 21.169-1.544 11.912-4.37 17.781-8.887 18.468a5.6 5.6 0 0 1-.848.065zM55.3 5.661a9.828 9.828 0 0 0-1.479.115 9.684 9.684 0 0 0-8.114 11.034c.414 2.721 2.771 10.441 6.119 17.865 4.4 9.748 7.477 12.253 8.285 12.4.728-.38 2.926-3.688 4.219-14.3.986-8.082.937-16.156.523-18.877A9.69 9.69 0 0 0 55.3 5.661z" class="cls-1" data-name="Path 216" transform="translate(141.38 121.53)"/>
                </g>
                <g class="cls-8" transform="translate(-158.4 -121.53)">
                    <path id="Rectangle_950-2" d="M0 0h111.821v98.44H0z" class="cls-1" data-name="Rectangle 950" transform="rotate(-8.9 1208.726 -930.427)"/>
                </g>
                <path id="Path_217" d="M55.248 160.774c-1.055-4.3-4.945-5.747-9.007-5.928-5.335-.237-10.67 1.042-15.745 2.56a93.972 93.972 0 0 0-18.11 7.623L20.6 217.52l3.385-.531q.959-1.037 1.907-2.086c9.557-10.623 19.689-22.259 25.778-35.293 2.542-5.427 5.061-12.798 3.578-18.836z" class="cls-2" data-name="Path 217" transform="translate(-5.281 -66.003)"/>
                <path id="Path_218" d="M108.7 83.485c6.368 15.7 23.871 21.06 39.574 19.015a69.43 69.43 0 0 0 12.9-2.988l-5.498-35.072-49.876 7.809a47.482 47.482 0 0 0 2.9 11.236z" class="cls-2" data-name="Path 218" transform="translate(-45.105 -27.473)"/>
                <path id="Path_219" d="M164.752 188.476a24.5 24.5 0 0 0-19.525 6.38c-4.589 4.393-7.213 10.366-8.8 16.425a72.04 72.04 0 0 0-1.927 10.836l48.639-7.614-3.047-19.465c-4.617-3.338-9.707-5.868-15.34-6.562z" class="cls-2" data-name="Path 219" transform="translate(-57.339 -80.282)"/>
                <path id="Path_221" d="M132.321 135.33l-9.075 1.492a2.52 2.52 0 0 0-2.084 2.86l1.36 9.089a2.52 2.52 0 0 0 1.007 1.664l24.186 17.635a2.52 2.52 0 0 0 3.521-.551l7.714-10.58a2.52 2.52 0 0 0-.551-3.521l-24.185-17.635a2.524 2.524 0 0 0-1.893-.453zm-6.188 7.76a1.632 1.632 0 1 1 1.79-.281 1.632 1.632 0 0 1-1.79.281z" class="cls-3" data-name="Path 221" transform="translate(-68.853 -57.681)"/>
                <path id="Path_222" d="M136.174 131.186l-9.075 1.492a2.519 2.519 0 0 0-2.084 2.859l1.36 9.089a2.518 2.518 0 0 0 1.007 1.664l24.186 17.635a2.52 2.52 0 0 0 3.52-.551l7.714-10.58a2.52 2.52 0 0 0-.551-3.521l-24.185-17.634a2.519 2.519 0 0 0-1.892-.453zm-6.188 7.76a1.632 1.632 0 1 1 1.79-.281 1.632 1.632 0 0 1-1.791.281z" class="cls-4" data-name="Path 222" transform="translate(-70.495 -55.914)"/>
                <path id="Path_223" d="M158.467 152.784a2.663 2.663 0 0 1 1.2 2.025 4.8 4.8 0 0 1-.762 2.771l1.409.991-.663.942-1.381-.971a9.344 9.344 0 0 1-2.66 2.524l-1.81-1.276a9.645 9.645 0 0 0 1.535-1.073 9.408 9.408 0 0 0 1.325-1.314l-2.131-1.5-.5.335a6.274 6.274 0 0 1-2.524 1.108 2.738 2.738 0 0 1-1.955-.527 2.48 2.48 0 0 1-1.09-1.934 4.842 4.842 0 0 1 .746-2.724l-1.052-.739.663-.941 1.024.721a9.536 9.536 0 0 1 2.634-2.4l1.154 1.778a9.093 9.093 0 0 0-2.082 1.822l2.028 1.426a13.01 13.01 0 0 1 2.237-1.279 3.2 3.2 0 0 1 1.417-.247 2.512 2.512 0 0 1 1.238.482zM151 154.755a.8.8 0 0 0 .645.141 3.012 3.012 0 0 0 .878-.394l-1.615-1.136q-.493.979.092 1.389zm6.116.172a.754.754 0 0 0-.652-.11 3.722 3.722 0 0 0-.906.411l1.712 1.2q.5-1.049-.154-1.507z" class="cls-2" data-name="Path 223" transform="translate(-80.369 -63.439)"/>
                <path id="Path_224" d="M124.1 126.271c-2.322 0-5.565-.447-7.406-2.658-1.7-2.05-1.823-5.106-.352-9.09 1.173-3.175 1.228-5.728.163-7.587a6.328 6.328 0 0 0-4-2.8.86.86 0 1 1 .293-1.7 7.98 7.98 0 0 1 5.186 3.614c1.342 2.325 1.332 5.373-.03 9.061-1.243 3.363-1.223 5.851.061 7.394 2.393 2.876 8.358 1.869 8.42 1.858a1.219 1.219 0 0 1 .238.741 1.329 1.329 0 0 1-.278 1.017 13.5 13.5 0 0 1-2.295.15z" class="cls-2" data-name="Path 224" transform="translate(-64.873 -43.669)"/>
                <path id="Rectangle_951" d="M0 0h113.995v21.986H0z" class="cls-5" data-name="Rectangle 951" transform="rotate(-8.898 344.754 26.824)"/>
                <path id="Rectangle_952" d="M0 0h113.995v21.986H0z" class="cls-6" data-name="Rectangle 952" transform="rotate(-8.898 344.754 26.824)"/>
                <path id="Path_225" d="M135.544 99.524q10.682-1.1 21.293-2.767c1.09-.172.628-1.829-.459-1.66q-10.384 1.624-20.836 2.7c-1.09.115-1.1 1.836 0 1.721z" class="cls-7" data-name="Path 225" transform="translate(-57.434 -40.538)"/>
                <path id="Path_226" d="M178.191 95.268l3.512-.426c1.086-.131 1.1-1.854 0-1.721l-3.512.426c-1.086.132-1.099 1.853 0 1.721z" class="cls-7" data-name="Path 226" transform="translate(-75.618 -39.698)"/>
            </g>
        </g>
    </g>
</svg>
