<svg id="Layer_1" data-name="Layer 1" xmlns="http://www.w3.org/2000/svg" viewBox="0 0 48 48"><defs><style>.cls-1{fill:#f05b4e;}</style></defs><title>24X7 support</title><path class="cls-1" d="M24,30H16V27.63l3.386-3.287A17.621,17.621,0,0,0,21.154,22.5a4.017,4.017,0,0,0,.618-1.023,2.153,2.153,0,0,0,.156-.871c0-.041-.017-1.012-1.427-1.369a3.433,3.433,0,0,0-3.492,1.7l-1.67-1.1A5.386,5.386,0,0,1,20.991,17.3a3.55,3.55,0,0,1,2.937,3.308,4.135,4.135,0,0,1-.319,1.661,6,6,0,0,1-.92,1.515A19.225,19.225,0,0,1,20.755,25.8L18.489,28H24Z"/><path class="cls-1" d="M32,30H30V27H25V24.251L29.6,17H32v8h1v2H32Zm-5-5h3V20.1l-3,4.733Z"/><path class="cls-1" d="M26,47.822V45H24A21.024,21.024,0,0,1,3,24,20.811,20.811,0,0,1,9.479,8.852l.567-.544,6.209,3.951-1.076.875A14,14,0,0,0,24,38h2V35.178L35.934,41.5ZM10.31,10.847A18.808,18.808,0,0,0,5,24,19.021,19.021,0,0,0,24,43h4v1.178L32.209,41.5,28,38.822V40H24A16,16,0,0,1,12.892,12.49Z"/><path class="cls-1" d="M37.954,39.692l-6.209-3.951,1.076-.875A14,14,0,0,0,24,10H22v2.822L12.066,6.5,22,.178V3h2A21.024,21.024,0,0,1,45,24a20.811,20.811,0,0,1-6.479,15.148ZM35.108,35.51l2.582,1.643A18.808,18.808,0,0,0,43,24,19.021,19.021,0,0,0,24,5H20V3.822L15.791,6.5,20,9.178V8h4A16,16,0,0,1,35.108,35.51Z"/></svg>