<svg id="Layer_1" data-name="Layer 1" xmlns="http://www.w3.org/2000/svg" viewBox="0 0 48 48"><defs><style>.cls-1{fill:#f05b4e;}</style></defs><title>Ac</title><polygon class="cls-1" points="44.659 31.5 35 31.5 35 29.5 43.341 29.5 46 23.3 46 8.5 2 8.5 2 23.3 4.659 29.5 13 29.5 13 31.5 3.341 31.5 0 23.71 0 6.5 48 6.5 48 23.71 44.659 31.5"/><polygon class="cls-1" points="42 28.5 40 28.5 40 25.5 8 25.5 8 28.5 6 28.5 6 23.5 42 23.5 42 28.5"/><rect class="cls-1" x="6" y="10.5" width="3" height="2"/><path class="cls-1" d="M17.854,41.124l-1.562-1.248c1.839-2.3,1.171-3.207.16-4.573-1.155-1.561-2.737-3.7.9-7.494L18.8,29.192c-2.469,2.579-1.816,3.46-.735,4.921C19.154,35.593,20.654,37.618,17.854,41.124Z"/><path class="cls-1" d="M24.807,41.123l-1.562-1.248c1.839-2.3,1.171-3.206.16-4.572-1.155-1.562-2.737-3.7.9-7.495l1.444,1.383c-2.47,2.579-1.817,3.46-.736,4.921C26.107,35.592,27.606,37.618,24.807,41.123Z"/><path class="cls-1" d="M31.76,41.123,30.2,39.875c1.84-2.3,1.172-3.206.16-4.572-1.155-1.562-2.736-3.7.9-7.495L32.7,29.191c-2.47,2.579-1.817,3.46-.736,4.921C33.06,35.592,34.559,37.618,31.76,41.123Z"/></svg>