<svg id="Layer_1" data-name="Layer 1" xmlns="http://www.w3.org/2000/svg" viewBox="0 0 48 48"><defs><style>.cls-1{fill:#f05b4e;}</style></defs><title>secure site key entry</title><path class="cls-1" d="M28.9,42.138h-2v-2.45l.4-.3c.024-.019,2.522-1.933,2.522-4.072V33.369h2v1.948c0,2.513-2.035,4.567-2.922,5.342Z"/><path class="cls-1" d="M12.285,42.137V27.524c0-2.378.858-3.336,2.273-4.634l4.922-3.941,1.249,1.563-4.871,3.9c-1.245,1.145-1.573,1.611-1.573,3.116V42.137Z"/><polygon class="cls-1" points="30.845 47.009 28.845 47.009 28.845 43.138 12.335 43.138 12.335 47.009 10.335 47.009 10.335 41.138 30.845 41.138 30.845 47.009"/><path class="cls-1" d="M21.078,38.267v-2a2.6,2.6,0,0,0,2.9-2.9V30.032l2.7-2.695a3.12,3.12,0,0,0-.38-3.878c-.372-.334-.5-.209-.608-.1l-7.793,7.793-1.414-1.414,7.793-7.793a2.308,2.308,0,0,1,3.356.023,5.057,5.057,0,0,1,.577,6.658l-.074.082L25.974,30.86v2.509A4.6,4.6,0,0,1,21.078,38.267Z"/><polygon class="cls-1" points="37.665 34.369 24.974 34.369 24.974 32.369 35.665 32.369 35.665 10.988 21.103 10.988 21.103 27.524 19.103 27.524 19.103 8.988 37.665 8.988 37.665 34.369"/><path class="cls-1" d="M34.047,4.5a1,1,0,0,1-.707-.293,6.792,6.792,0,0,0-9.607,0A1,1,0,0,1,22.319,2.8a8.791,8.791,0,0,1,12.435,0A1,1,0,0,1,34.047,4.5Z"/><path class="cls-1" d="M31.459,7.092a1,1,0,0,1-.707-.293,3.138,3.138,0,0,0-4.431,0,1,1,0,1,1-1.414-1.414,5.139,5.139,0,0,1,7.26,0,1,1,0,0,1-.708,1.707Z"/></svg>