<svg id="Layer_1" data-name="Layer 1" xmlns="http://www.w3.org/2000/svg" viewBox="0 0 48 48"><defs><style>.cls-1{fill:#f05b4e;}</style></defs><title>Appliances</title><path class="cls-1" d="M47,46H1V27H47ZM3,44H45V29H3Z"/><rect class="cls-1" x="15" y="28" width="2" height="17"/><rect class="cls-1" x="31" y="28" width="2" height="17"/><path class="cls-1" d="M29,42H19V35H29Zm-8-2h6V37H21Z"/><rect class="cls-1" x="27" y="31" width="2" height="2"/><rect class="cls-1" x="23" y="31" width="2" height="2"/><rect class="cls-1" x="19" y="31" width="2" height="2"/><polygon class="cls-1" points="32 19 16 19 16 16.68 21 9.68 21 3 23 3 23 10.32 18.229 17 29.771 17 25 10.32 25 3 27 3 27 9.68 32 16.68 32 19"/><path class="cls-1" d="M47,19H34V10H47ZM36,17h9V12H36Z"/><path class="cls-1" d="M14,19H1V10H14ZM3,17h9V12H3Z"/><rect class="cls-1" x="2" y="33" width="14" height="2"/><rect class="cls-1" x="37" y="33" width="4" height="2"/></svg>