<svg id="Layer_1" data-name="Layer 1" xmlns="http://www.w3.org/2000/svg" viewBox="0 0 48 48"><defs><style>.cls-1{fill:none;stroke:#f05b4e;stroke-miterlimit:10;stroke-width:2px;}</style></defs><title>Badminton</title><path class="cls-1" d="M28.466,9.49,1.169,21.919h0c-.5,3.891,2.314,6.57,6.223,5.916l.29-.048,0,.008c-.672,4.015,2.169,6.855,6.183,6.183h.009v.009C13.2,38,16.039,40.84,20.053,40.168h.009l-.048.29c-.655,3.909,2.024,6.727,5.916,6.222h0L38.661,19.685"/><line class="cls-1" x1="28.366" y1="30.642" x2="25.435" y2="35.215"/><line class="cls-1" x1="34.583" y1="19.685" x2="31.524" y2="23.763"/><line class="cls-1" x1="21.002" y1="23.277" x2="16.928" y2="26.708"/><line class="cls-1" x1="31.524" y1="16.627" x2="27.446" y2="20.705"/><line class="cls-1" x1="17.404" y1="19.707" x2="12.848" y2="22.628"/><line class="cls-1" x1="28.466" y1="13.568" x2="24.388" y2="16.627"/><line class="cls-1" x1="24.772" y1="27.076" x2="21.355" y2="31.135"/><path class="cls-1" d="M44.778,3.373a7.209,7.209,0,0,0-10.194,0L28.466,9.49l10.2,10.195,6.117-6.117A7.21,7.21,0,0,0,44.778,3.373Z"/><path class="cls-1" d="M42.564,6.432a4.291,4.291,0,0,0-5.942,0"/></svg>