<svg id="Layer_1" data-name="Layer 1" xmlns="http://www.w3.org/2000/svg" viewBox="0 0 48 48"><defs><style>.cls-1{fill:#f05b4e;}</style></defs><title>Shower-room</title><path class="cls-1" d="M39,41H9a6.006,6.006,0,0,1-6-6V30C3,28.647.752,27.969.729,27.963L0,27.756,0,24H11v2H2v.292c1.35.566,3,1.771,3,3.708v5a4,4,0,0,0,4,4H39a4,4,0,0,0,4-4V30c0-1.937,1.65-3.142,3-3.708V26H21V24H48v3.76l-.732.2C47.248,27.969,45,28.647,45,30v5A6.006,6.006,0,0,1,39,41Z"/><rect class="cls-1" x="6.438" y="41" width="4.123" height="2" transform="translate(-34.307 40.055) rotate(-75.957)"/><rect class="cls-1" x="38.5" y="39.938" width="2" height="4.123" transform="translate(-9.007 10.834) rotate(-14.036)"/><path class="cls-1" d="M22,35H10V21H22ZM12,33h8V23H12Z"/><rect class="cls-1" x="33" y="9" width="4" height="2"/><path class="cls-1" d="M45,25H43V8a3,3,0,0,0-3-3H39a3,3,0,0,0-3,3v2H34V8a5.006,5.006,0,0,1,5-5h1a5.006,5.006,0,0,1,5,5Z"/><rect class="cls-1" x="36" y="13" width="2" height="3"/><rect class="cls-1" x="32" y="13" width="2" height="3"/><rect class="cls-1" x="34" y="18" width="2" height="3"/><rect class="cls-1" x="30" y="18" width="2" height="3"/><rect class="cls-1" x="38" y="18" width="2" height="3"/></svg>