<svg id="Layer_1" data-name="Layer 1" xmlns="http://www.w3.org/2000/svg" viewBox="0 0 48 48"><defs><style>.cls-1{fill:#f05b4e;}</style></defs><title>Bedding-pack</title><path class="cls-1" d="M6.049,42.894A3.051,3.051,0,0,1,3.8,41.9,2.945,2.945,0,0,1,3.1,39.223a31.554,31.554,0,0,0,.478-6.474c.038-3.344.077-6.794,1.212-9.408C3.886,21.481.6,14.252.684,8.068A2.971,2.971,0,0,1,2.13,5.546a3.062,3.062,0,0,1,2.993-.1c5.19,2.66,13.717,3,17.384,3.011C26.5,6.587,35.53,5.486,42.137,5.4h0A3.055,3.055,0,0,1,44.579,6.58,2.977,2.977,0,0,1,45.1,9.219a29.822,29.822,0,0,0-.834,9.684c.1,2.9.188,5.653-.9,8.549,1.93,2.327,2.941,6.27,3.882,10.451a3.016,3.016,0,0,1-3.318,3.663c-4.71-.6-13.449-.69-18.239-.69-5.677,0-12.31.938-19.178,1.982A2.954,2.954,0,0,1,6.049,42.894ZM3.708,7.108a1.056,1.056,0,0,0-.546.151.972.972,0,0,0-.478.837C2.6,14.62,6.738,22.784,6.78,22.863a1,1,0,0,1,.007.918c-1.138,2.245-1.176,5.674-1.214,8.991a32.8,32.8,0,0,1-.533,6.916.94.94,0,0,0,.234.863,1.049,1.049,0,0,0,.933.331c6.945-1.058,13.662-2.006,19.478-2.006,4.837,0,13.672.092,18.492.705a1,1,0,0,0,.873-.321,1.014,1.014,0,0,0,.241-.917c-.908-4.033-1.949-8.125-3.8-9.977a1,1,0,0,1-.211-1.1c1.168-2.709,1.082-5.3.983-8.294a31.88,31.88,0,0,1,.905-10.286A1,1,0,0,0,43,7.8a1.072,1.072,0,0,0-.832-.4h0c-7.528.1-15.865,1.4-18.98,2.957a1.007,1.007,0,0,1-.448.105c-3.674,0-12.836-.314-18.524-3.231A1.1,1.1,0,0,0,3.708,7.108Z"/><path class="cls-1" d="M33.952,25.172c-12.128-4.489-18.035-1.233-19.557-.128L13.22,23.425c4.6-3.343,12.613-3.391,21.426-.128Z"/><path class="cls-1" d="M41.647,28.493c-.015-.01-1.515-1-2.731-1.64l.933-1.77c1.305.69,2.836,1.7,2.9,1.742Z"/><path class="cls-1" d="M21.863,12.613l-1.923-.547a13.37,13.37,0,0,1,2.089-3.313l1.413,1.416A13.344,13.344,0,0,0,21.863,12.613Z"/><path class="cls-1" d="M6.6,24.036,5.188,22.622a11.52,11.52,0,0,1,2.265-1.56L8.4,22.827A9.759,9.759,0,0,0,6.6,24.036Z"/></svg>