<svg id="Layer_1" data-name="Layer 1" xmlns="http://www.w3.org/2000/svg" viewBox="0 0 48 48"><defs><style>.cls-1{fill:#f05b4e;}</style></defs><title>Bike-storage</title><path class="cls-1" d="M38,39A10,10,0,1,1,48,29,10.011,10.011,0,0,1,38,39Zm0-18a8,8,0,1,0,8,8A8.009,8.009,0,0,0,38,21Z"/><path class="cls-1" d="M10,39A10,10,0,1,1,20,29,10.011,10.011,0,0,1,10,39Zm0-18a8,8,0,1,0,8,8A8.009,8.009,0,0,0,10,21Z"/><path class="cls-1" d="M37.092,29.419l-6-13a1,1,0,0,1,.076-.974l1.418-2.127-4.1-2.461,1.03-1.714,5,3a1,1,0,0,1,.317,1.412l-1.689,2.534,5.765,12.492Z"/><path class="cls-1" d="M23.916,30H10a1,1,0,0,1-.908-1.419l6-13A1,1,0,0,1,16,15H32v2H16.64L11.563,28H23.314l5.025-9.469,1.767.938-5.306,10A1,1,0,0,1,23.916,30Z"/><rect class="cls-1" x="15" y="13" width="2" height="3"/><rect class="cls-1" x="13" y="12" width="6" height="2"/></svg>