<svg id="Layer_1" data-name="Layer 1" xmlns="http://www.w3.org/2000/svg" viewBox="0 0 48 48"><defs><style>.cls-1{fill:#f05b4e;}</style></defs><title>Blender</title><rect class="cls-1" x="16.5" y="27" width="2" height="4"/><rect class="cls-1" x="29.5" y="27" width="2" height="4"/><path class="cls-1" d="M35.5,48h-23a1,1,0,0,1-.707-.293l-2-2a1,1,0,0,1-.212-1.1l6-14A1,1,0,0,1,16.5,30h15a1,1,0,0,1,.919.606l6,14a1,1,0,0,1-.212,1.1l-2,2A1,1,0,0,1,35.5,48ZM12.914,46H35.086l1.228-1.229L30.841,32H17.159L11.686,44.771Z"/><rect class="cls-1" x="19.5" y="31" width="2" height="16"/><rect class="cls-1" x="26.5" y="31" width="2" height="16"/><path class="cls-1" d="M31.5,28h-15a1,1,0,0,1-.959-.718l-5-17A1,1,0,0,1,11.5,9h29a1,1,0,0,1,.759,1.651L35.4,17.49l-2.939,9.8A1,1,0,0,1,31.5,28ZM17.248,26H30.756l2.786-9.287a1.012,1.012,0,0,1,.2-.364L38.326,11H12.836Z"/><rect class="cls-1" x="19.5" y="10" width="2" height="17"/><rect class="cls-1" x="26.5" y="10" width="2" height="17"/><path class="cls-1" d="M37.5,10h-2V9.7L25.324,6H23.662L12.5,9.721V10h-2V9a1,1,0,0,1,.684-.949l12-4A1,1,0,0,1,23.5,4h2a1.022,1.022,0,0,1,.342.06l11,4A1,1,0,0,1,37.5,9Z"/><path class="cls-1" d="M25.5,6h-2a1,1,0,0,1-.832-.445l-2-3A1.006,1.006,0,0,1,20.5,2V1a1,1,0,0,1,1-1h6a1,1,0,0,1,1,1V2a1.006,1.006,0,0,1-.168.555l-2,3A1,1,0,0,1,25.5,6ZM24.035,4h.93L26.3,2H22.7Z"/><rect class="cls-1" x="33" y="9.964" width="2" height="7.071" transform="translate(-1.567 4.944) rotate(-8.13)"/><path class="cls-1" d="M9.5,28a1,1,0,0,1-.707-.293L7.672,26.586A3.972,3.972,0,0,1,6.5,23.757V13a4,4,0,0,1,4-4h1a1,1,0,0,1,0,2h-1a2,2,0,0,0-2,2V23.757a1.987,1.987,0,0,0,.586,1.415l1.121,1.121A1,1,0,0,1,9.5,28Z"/></svg>