<svg id="Layer_1" data-name="Layer 1" xmlns="http://www.w3.org/2000/svg" viewBox="0 0 48 48"><defs><style>.cls-1{fill:#f05b4e;}</style></defs><title>Breakfast</title><path class="cls-1" d="M16,39.5c-5.846,0-9-2-9-3.88v-.391C2.26,32.378,0,29.78,0,23.5v-3H2v3c0,5.509,1.705,7.488,6.505,10.3A1,1,0,0,1,9,34.66v.96c.124.379,2.117,1.88,7,1.88s6.876-1.5,7-1.925l0-.915a1,1,0,0,1,.5-.864c4.8-2.808,6.5-4.787,6.5-10.3v-3h2v3c0,6.28-2.26,8.878-7,11.729v.391C25,37.5,21.846,39.5,16,39.5Z"/><path class="cls-1" d="M32,20.5H30c0-1.013-4.228-3-14-3s-14,1.987-14,3H0c0-3.686,8.265-5,16-5S32,16.814,32,20.5Z"/><path class="cls-1" d="M16,25.5c-5.279,0-9.818-.768-12.453-2.108l.906-1.783C6.783,22.793,11.1,23.5,16,23.5s9.218-.707,11.547-1.891l.906,1.783C25.818,24.732,21.279,25.5,16,25.5Z"/><path class="cls-1" d="M41,44.5c-2.29,0-4-2.639-4-5,0-1.191.744-13,.951-16.256C35.328,22.3,34,19.7,34,15.5c0-5.665,2.994-12,7-12s7,6.335,7,12c0,4.2-1.328,6.8-3.951,7.744C44.256,26.5,45,38.309,45,39.5,45,41.861,43.29,44.5,41,44.5Zm0-39c-2.43,0-5,5.141-5,10,0,4.8,1.828,5.736,3.2,6.021A1,1,0,0,1,40,22.564c-.345,5.406-1,15.9-1,16.936,0,1.323.942,3,2,3s2-1.677,2-3c0-1.033-.653-11.53-1-16.936a1,1,0,0,1,.795-1.043C44.172,21.236,46,20.3,46,15.5,46,10.641,43.43,5.5,41,5.5Z"/></svg>