<svg id="Layer_1" data-name="Layer 1" xmlns="http://www.w3.org/2000/svg" viewBox="0 0 48 48"><defs><style>.cls-1{fill:#f05b4e;}</style></defs><title>Cafe</title><path class="cls-1" d="M23.043,41A15.441,15.441,0,0,1,16.6,39.9l-.2-.1-.14-.18C15.917,39.178,8.043,28.881,8.043,20V17h30v3c0,8.881-7.873,19.178-8.208,19.612l-.14.18-.2.1A15.449,15.449,0,0,1,23.043,41Zm-5.36-2.813a15.145,15.145,0,0,0,5.36.813,15.121,15.121,0,0,0,5.361-.814C29.5,36.713,36.043,27.551,36.043,20V19h-26v1C10.043,27.552,16.594,36.715,17.683,38.187Z"/><path class="cls-1" d="M33.068,33.741l-.049-2c5.282-.13,9.126-2.339,9.791-5.628.207-1.022.476-3.456-1.477-4.015a3.617,3.617,0,0,0-2.75.27,1.723,1.723,0,0,0-.864.9l-1.926-.539a3.626,3.626,0,0,1,1.814-2.11,5.631,5.631,0,0,1,4.276-.446c2.43.7,3.537,3.122,2.887,6.334C43.913,30.747,39.319,33.586,33.068,33.741Z"/><path class="cls-1" d="M23.043,47c-9.939,0-20-2.06-20-6,0-1.966,2.314-3.528,6.877-4.638l.473,1.943c-3.925.955-5.35,2.136-5.35,2.7,0,1.358,6.354,4,18,4s18-2.642,18-4c0-.559-1.424-1.74-5.349-2.695l.473-1.943c4.563,1.11,6.876,2.672,6.876,4.638C43.043,44.94,32.982,47,23.043,47Z"/><path class="cls-1" d="M17.445,14.624l-1.562-1.248c1.839-2.3,1.171-3.206.159-4.573-1.154-1.56-2.736-3.7.9-7.494l1.444,1.383c-2.469,2.579-1.817,3.461-.736,4.922C18.745,9.093,20.245,11.119,17.445,14.624Z"/><path class="cls-1" d="M23.945,14.624l-1.562-1.248c1.839-2.3,1.171-3.206.16-4.572-1.155-1.561-2.737-3.7.9-7.495l1.444,1.383c-2.469,2.579-1.817,3.461-.736,4.922C25.245,9.093,26.745,11.119,23.945,14.624Z"/><path class="cls-1" d="M30.445,14.624l-1.562-1.248c1.839-2.3,1.171-3.206.16-4.572-1.155-1.561-2.737-3.7.9-7.495l1.444,1.383c-2.469,2.579-1.817,3.461-.736,4.922C31.745,9.093,33.245,11.119,30.445,14.624Z"/></svg>