<svg id="Layer_1" data-name="Layer 1" xmlns="http://www.w3.org/2000/svg" viewBox="0 0 48 48"><defs><style>.cls-1{fill:#f05b4e;}</style></defs><title>Car-parking</title><path class="cls-1" d="M21,37.019H14v-27H25a9.01,9.01,0,0,1,9,9v1a9.01,9.01,0,0,1-9,9H21Zm-5-2h3v-8h6a7.009,7.009,0,0,0,7-7v-1a7.008,7.008,0,0,0-7-7H16Zm9-11H19v-9h6a4,4,0,0,1,4,4v1A4,4,0,0,1,25,24.019Zm-4-2h4a2,2,0,0,0,2-2v-1a2,2,0,0,0-2-2H21Z"/><path class="cls-1" d="M40,43.019H8a3,3,0,0,1-3-3v-33a3,3,0,0,1,3-3H40a3,3,0,0,1,3,3v33A3,3,0,0,1,40,43.019Zm-32-37a1,1,0,0,0-1,1v33a1,1,0,0,0,1,1H40a1,1,0,0,0,1-1v-33a1,1,0,0,0-1-1Z"/><rect class="cls-1" x="26" y="42.019" width="2" height="6"/><rect class="cls-1" x="20" y="42.019" width="2" height="6"/><path class="cls-1" d="M28,5.019H26v-2a1,1,0,0,0-1-1H23a1,1,0,0,0-1,1v2H20v-2a3,3,0,0,1,3-3h2a3,3,0,0,1,3,3Z"/></svg>