<svg id="Layer_1" data-name="Layer 1" xmlns="http://www.w3.org/2000/svg" viewBox="0 0 48 48"><defs><style>.cls-1{fill:#f05b4e;}</style></defs><title>CCTV</title><path class="cls-1" d="M24.016,28.684a1,1,0,0,1-.8-1.593c.2-.272.413-.542.635-.807,3.58-4.266,8.489-5.842,11.175-3.588a1,1,0,1,1-1.285,1.532c-1.769-1.482-5.595.048-8.359,3.342q-.293.349-.555.706A1,1,0,0,1,24.016,28.684Z"/><path class="cls-1" d="M22.9,38.149a1,1,0,0,1-.643-.234c-1.538-1.291-2.017-3.561-1.312-6.23a1,1,0,0,1,1.934.509c-.491,1.862-.243,3.427.664,4.188a1,1,0,0,1-.643,1.767Z"/><path class="cls-1" d="M27.054,34.313a1,1,0,0,1-.185-1.983,4.713,4.713,0,0,0,2.238-1.647,4.521,4.521,0,0,0,1.231-2.56,1,1,0,0,1,1.995-.144,6.129,6.129,0,0,1-1.694,3.989,6.522,6.522,0,0,1-3.4,2.327A1,1,0,0,1,27.054,34.313Z"/><path class="cls-1" d="M17.154,23.349a3.632,3.632,0,0,1-3.628-3.627V1.33a1,1,0,0,1,2,0V19.722a1.628,1.628,0,0,0,3.255,0V1.33a1,1,0,1,1,2,0V19.722A3.631,3.631,0,0,1,17.154,23.349Z"/><path class="cls-1" d="M29.24,2.33H5.068a1,1,0,0,1,0-2H29.24a1,1,0,0,1,0,2Z"/><path class="cls-1" d="M25.268,38.941a4.591,4.591,0,0,1-3.016-1.027L4.541,23.052c-1.358-1.139-1.894-3.029-1.509-5.324a13.659,13.659,0,0,1,3.1-6.305c2.492-2.97,5.733-4.715,8.44-4.606a1,1,0,0,1,.951,1.046.987.987,0,0,1-1.046.952c-2.056-.1-4.777,1.467-6.813,3.893A11.641,11.641,0,0,0,5.005,18.06c-.263,1.566.028,2.8.821,3.461L23.538,36.383c1.766,1.479,5.593-.049,8.358-3.343a11.643,11.643,0,0,0,2.661-5.351c.263-1.567-.028-2.8-.821-3.461l-14.6-12.249a1,1,0,0,1,1.285-1.532L35.021,22.7c1.358,1.14,1.894,3.031,1.509,5.326a13.661,13.661,0,0,1-3.1,6.3C30.952,37.276,27.84,38.941,25.268,38.941Z"/><path class="cls-1" d="M39.674,44.681a.993.993,0,0,1-.766-.358l-2.7-3.219a1,1,0,0,1,1.532-1.286l2.7,3.22a1,1,0,0,1-.766,1.643Z"/><path class="cls-1" d="M31.208,47.67a.883.883,0,0,1-.089,0,1,1,0,0,1-.909-1.083l.389-4.441a1,1,0,1,1,1.992.174L32.2,46.757A1,1,0,0,1,31.208,47.67Z"/><path class="cls-1" d="M44.089,36.861l-.089,0-4.441-.389a1,1,0,0,1,.174-1.992l4.442.388a1,1,0,0,1-.086,2Z"/></svg>