<svg id="Layer_1" data-name="Layer 1" xmlns="http://www.w3.org/2000/svg" viewBox="0 0 48 48"><defs><style>.cls-1{fill:#f05b4e;}</style></defs><title>Cinema-room</title><path class="cls-1" d="M39.5,36.5A4.5,4.5,0,1,1,44,32,4.505,4.505,0,0,1,39.5,36.5Zm0-7A2.5,2.5,0,1,0,42,32,2.5,2.5,0,0,0,39.5,29.5Z"/><path class="cls-1" d="M39.5,24.5A4.5,4.5,0,1,1,44,20,4.505,4.505,0,0,1,39.5,24.5Zm0-7A2.5,2.5,0,1,0,42,20,2.5,2.5,0,0,0,39.5,17.5Z"/><polygon class="cls-1" points="48 41.5 32 41.5 32 39.5 46 39.5 46 7.5 33 7.5 33 20.5 31 20.5 31 5.5 48 5.5 48 41.5"/><path class="cls-1" d="M8.5,36.5A4.5,4.5,0,1,1,13,32,4.505,4.505,0,0,1,8.5,36.5Zm0-7A2.5,2.5,0,1,0,11,32,2.5,2.5,0,0,0,8.5,29.5Z"/><path class="cls-1" d="M8.5,24.5A4.5,4.5,0,1,1,13,20,4.505,4.505,0,0,1,8.5,24.5Zm0-7A2.5,2.5,0,1,0,11,20,2.5,2.5,0,0,0,8.5,17.5Z"/><polygon class="cls-1" points="16 41.5 0 41.5 0 5.5 17 5.5 17 20.5 15 20.5 15 7.5 2 7.5 2 39.5 16 39.5 16 41.5"/><path class="cls-1" d="M34,38.5H14v-17H34Zm-18-2H32v-13H16Z"/><path class="cls-1" d="M29,32.5H19v-7H29Zm-8-2h6v-3H21Z"/><rect class="cls-1" x="19" y="37.5" width="2" height="4"/><rect class="cls-1" x="27" y="37.5" width="2" height="4"/><rect class="cls-1" x="19" y="33.5" width="2" height="2"/><rect class="cls-1" x="23" y="33.5" width="2" height="2"/><rect class="cls-1" x="27" y="33.5" width="2" height="2"/></svg>