<svg id="Layer_1" data-name="Layer 1" xmlns="http://www.w3.org/2000/svg" viewBox="0 0 48 48"><defs><style>.cls-1{fill:#f05b4e;}</style></defs><title>City-centre</title><rect class="cls-1" x="8" y="13.5" width="15" height="2"/><path class="cls-1" d="M4,40.522H2V13.5a5.942,5.942,0,0,1,6-6H9v29H8A3.973,3.973,0,0,0,4,40.522ZM7,9.616A3.982,3.982,0,0,0,4,13.5V35.993a5.748,5.748,0,0,1,3-1.418Z"/><path class="cls-1" d="M46,46.5H8.022A6.018,6.018,0,0,1,2,40.5H4a4.065,4.065,0,0,0,4.022,4H44v-29H41v-2h5Z"/><polygon class="cls-1" points="16 43.5 14 43.5 14 30.5 10 30.5 10 28.5 16 28.5 16 43.5"/><polygon class="cls-1" points="16 25.5 10 25.5 10 23.5 14 23.5 14 16.5 16 16.5 16 25.5"/><polygon class="cls-1" points="43 34.5 19 34.5 19 16.5 21 16.5 21 32.5 43 32.5 43 34.5"/><polygon class="cls-1" points="21 43.5 19 43.5 19 37.5 43 37.5 43 39.5 21 39.5 21 43.5"/><path class="cls-1" d="M32,29.235l-.817-1.159c-.256-.361-6.268-8.888-7.487-10.792a9.992,9.992,0,0,1-1.7-6,10,10,0,0,1,20,0,9.991,9.991,0,0,1-1.7,6c-1.219,1.9-7.231,10.431-7.487,10.792ZM32,3.5a7.9,7.9,0,0,0-8,7.784,7.982,7.982,0,0,0,1.38,4.922c.932,1.454,4.888,7.095,6.62,9.556,1.732-2.461,5.688-8.1,6.62-9.556A7.981,7.981,0,0,0,40,11.285,7.9,7.9,0,0,0,32,3.5Z"/><path class="cls-1" d="M32.013,15.5A4,4,0,1,1,32,7.5h0a4,4,0,1,1,.013,8ZM32,9.5a1.953,1.953,0,0,0-2,2,2,2,0,0,0,.569,1.43,2.122,2.122,0,0,0,2.862,0A2,2,0,0,0,34,11.5a1.953,1.953,0,0,0-1.995-2Z"/></svg>