<svg id="Layer_1" data-name="Layer 1" xmlns="http://www.w3.org/2000/svg" viewBox="0 0 48 48"><defs><style>.cls-1{fill:#f05b4e;}</style></defs><title>Cleaning</title><path class="cls-1" d="M18,47.646H1a1,1,0,0,1-.832-1.555l1.305-1.957A4.02,4.02,0,0,1,4.04,42.426l6.836-1.505,8.666-29.185C21.628,4.9,24.375.354,31,.354a8.828,8.828,0,0,1,6.837,2.8c1.9,2.137,2.706,5.36,2.269,9.074-.734,6.243-7.785,12.214-11.574,15.423l-.879.749c-2.679,2.308-3.039,4.084-3.015,4.938a1.8,1.8,0,0,0,.613,1.405,7.641,7.641,0,0,0,3.75.9v2c-.333,0-3.3-.038-4.967-1.314A3.779,3.779,0,0,1,22.639,33.4C22.58,31.31,23.9,29,26.347,26.888l.893-.76C30.818,23.1,37.478,17.457,38.12,12c.369-3.14-.262-5.807-1.777-7.511A6.8,6.8,0,0,0,31,2.354c-4.74,0-7.327,2.7-9.543,9.959L12.793,41.489a2,2,0,0,1-1.487,1.385l-6.861,1.51a2.028,2.028,0,0,0-1.308.859l-.268.4H17V44.2a3.76,3.76,0,0,1-1.428-3.969L23.54,12.742C24.974,7.8,27.1,5.161,30.051,4.69a4.845,4.845,0,0,1,4.2,1.276,6.459,6.459,0,0,1,1.74,5.477c-.5,4.525-5.948,9.356-9.2,12.242-.656.583-1.2,1.064-1.554,1.418l-1.414-1.415c.374-.374.948-.884,1.641-1.5,2.839-2.518,8.123-7.206,8.541-10.965a4.5,4.5,0,0,0-1.131-3.809,2.855,2.855,0,0,0-2.508-.749C28.291,7,26.64,9.229,25.46,13.3L17.5,40.755a1.767,1.767,0,0,0,.944,2,1,1,0,0,1,.553.9v3A1,1,0,0,1,18,47.646Z"/><path class="cls-1" d="M27.846,41.646c-3.384,0-6.623-1.315-8.253-3.35l1.562-1.25c1.244,1.555,3.933,2.6,6.691,2.6Z"/><path class="cls-1" d="M41,47.646a7,7,0,1,1,7-7A7.008,7.008,0,0,1,41,47.646Zm0-12a5,5,0,1,0,5,5A5.006,5.006,0,0,0,41,35.646Z"/><path class="cls-1" d="M33.8,47.626c-.227-.045-5.583-1.154-6.753-4.664-1.188-3.566,3.07-13.894,8.324-18.1A17.521,17.521,0,0,1,43.3,20.958a3.92,3.92,0,0,1,3.243.847A4.012,4.012,0,0,1,48,24.9v9.745H46V24.9a2.017,2.017,0,0,0-.733-1.557,1.936,1.936,0,0,0-1.6-.421,15.622,15.622,0,0,0-7.044,3.5c-5,4-8.463,13.543-7.676,15.9.666,2,4.014,3.086,5.248,3.336Z"/><rect class="cls-1" x="13.831" y="36.508" width="2.001" height="4.305" transform="translate(-26.178 44.392) rotate(-76.968)"/></svg>