<svg id="Layer_1" data-name="Layer 1" xmlns="http://www.w3.org/2000/svg" viewBox="0 0 48 48"><defs><style>.cls-1{fill:#f05b4e;}</style></defs><title>Co-working</title><polygon class="cls-1" points="46 44 2 44 2 26 4 26 4 42 44 42 44 26 46 26 46 44"/><polygon class="cls-1" points="19 32 9 32 9 29 11 29 11 30 17 30 17 29 19 29 19 32"/><path class="cls-1" d="M48,28H37V26H31v2H17V26H11v2H0V13H48Zm-9-2h7V15H2V26H9V24H19v2H29V24H39Z"/><polygon class="cls-1" points="39 32 29 32 29 29 31 29 31 30 37 30 37 29 39 29 39 32"/><polygon class="cls-1" points="19 12 17 12 17 11 13 11 13 12 11 12 11 9 19 9 19 12"/><polygon class="cls-1" points="37 12 35 12 35 11 31 11 31 12 29 12 29 9 37 9 37 12"/><path class="cls-1" d="M34,10H32V7a1,1,0,0,0-1-1H17a1,1,0,0,0-1,1v3H14V7a3,3,0,0,1,3-3H31a3,3,0,0,1,3,3Z"/></svg>