<svg id="Layer_1" data-name="Layer 1" xmlns="http://www.w3.org/2000/svg" viewBox="0 0 48 48"><defs><style>.cls-1{fill:#f05b4e;}</style></defs><title>Coffee-machine</title><path class="cls-1" d="M28.5,23.5h-4a2,2,0,0,1-2-2v-4h2v4h4v-4h2v4A2,2,0,0,1,28.5,23.5Z"/><rect class="cls-1" x="25.5" y="22.5" width="2" height="2"/><path class="cls-1" d="M43.5,20.5h-14a1,1,0,0,1,0-2h14a1,1,0,0,1,0,2Z"/><path class="cls-1" d="M26.5,40.5a8.009,8.009,0,0,1-8-8v-4a1,1,0,0,1,1-1h14a1,1,0,0,1,1,1v4A8.009,8.009,0,0,1,26.5,40.5Zm-6-11v3a6,6,0,0,0,12,0v-3Z"/><path class="cls-1" d="M36.5,35.5h-3a1,1,0,0,1,0-2h3a1,1,0,0,0,1-1v-1a1,1,0,0,0-1-1h-3a1,1,0,0,1,0-2h3a3,3,0,0,1,3,3v1A3,3,0,0,1,36.5,35.5Z"/><path class="cls-1" d="M37.5,45.5H6.5a3,3,0,0,1-3-3v-4h37v4A3,3,0,0,1,37.5,45.5Zm-32-5v2a1,1,0,0,0,1,1h31a1,1,0,0,0,1-1v-2Z"/><rect class="cls-1" x="20.5" y="8.5" width="2" height="2"/><rect class="cls-1" x="24.5" y="8.5" width="2" height="2"/><path class="cls-1" d="M16.5,12.5h-5a2,2,0,0,1-2-2v-2a2,2,0,0,1,2-2h5a2,2,0,0,1,2,2v2A2,2,0,0,1,16.5,12.5Zm-5-4v2h5v-2Z"/><path class="cls-1" d="M15.5,37.5h-2v-23h23a1,1,0,0,0,1-1v-8a1,1,0,0,0-1-1H8.5a1,1,0,0,0-1,1v32h-2V5.5a3,3,0,0,1,3-3h28a3,3,0,0,1,3,3v8a3,3,0,0,1-3,3h-21Z"/></svg>