<svg id="Layer_1" data-name="Layer 1" xmlns="http://www.w3.org/2000/svg" viewBox="0 0 48 48"><defs><style>.cls-1{fill:#f05b4e;}</style></defs><title>Coffee-lounge</title><path class="cls-1" d="M29.5,48H8.5a3,3,0,0,1-3-3V18a1,1,0,0,1,1-1h25a1,1,0,0,1,1,1v4.441a9.768,9.768,0,0,1,3-.441c4.449,0,7,2.916,7,8,0,4.956-5.2,8.712-8.3,10.957-.634.458-1.4,1.014-1.7,1.3V45A3,3,0,0,1,29.5,48ZM7.5,19V45a1,1,0,0,0,1,1h21a1,1,0,0,0,1-1V42c0-.841.739-1.375,2.523-2.664,2.8-2.02,7.477-5.4,7.477-9.336,0-3.981-1.682-6-5-6a6.3,6.3,0,0,0-3.413.81,1.011,1.011,0,0,1-1.042.075A1,1,0,0,1,30.5,24V19Z"/><path class="cls-1" d="M31.5,38.034A1.026,1.026,0,0,1,30.5,37c0-1.182,1.221-2.14,2.767-3.353C34.631,32.576,36.5,31.109,36.5,30a1.958,1.958,0,0,0-2-2c-1.5,0-2,1.588-2,2.313a1,1,0,1,1-2,0c0-1.74,1.271-4.313,4-4.313a3.918,3.918,0,0,1,4,4c0,2.082-2.124,3.749-4,5.22a9.312,9.312,0,0,0-2.01,1.847A.969.969,0,0,1,31.5,38.034Z"/><path class="cls-1" d="M14.05,15.835l-1.1-1.67c2.072-1.364,2.509-2.1,2.512-2.484,0-.32-.361-.74-1.021-1.185a3.51,3.51,0,0,1-1.877-2.954c.041-1.395,1.162-2.726,3.426-4.069l1.02,1.72C14.827,6.487,14.572,7.308,14.563,7.6c-.013.458.535.925,1,1.237a3.508,3.508,0,0,1,1.9,2.853C17.453,13.365,15.816,14.672,14.05,15.835Z"/><path class="cls-1" d="M21.6,15.8,20.405,14.2c1.306-.967,3.044-2.388,3.051-3.549,0-.566-.438-1.189-1.31-1.85a4.378,4.378,0,0,1-2.071-3.588c.051-1.69,1.318-3.34,3.87-5.041l1.11,1.664C22.628,3.449,22.1,4.594,22.074,5.27c-.019.624.412,1.274,1.28,1.933a4.367,4.367,0,0,1,2.1,3.454C25.444,12.681,23.5,14.4,21.6,15.8Z"/></svg>