<svg id="Layer_1" data-name="Layer 1" xmlns="http://www.w3.org/2000/svg" viewBox="0 0 48 48"><defs><style>.cls-1,.cls-3{fill:none;stroke:#054d7f;stroke-linecap:round;stroke-width:0.564px;}.cls-1{stroke-miterlimit:10;}.cls-2{fill:#fff;}.cls-3{stroke-linejoin:round;}</style></defs><title>console</title><path class="cls-1" d="M19.266,24.559s-2.737,2.678-3.15,10.536a2.831,2.831,0,0,0,2.83,2.969h0a2.833,2.833,0,0,0,2.324-1.213,2.793,2.793,0,0,0,.426-1.04l.135-.656"/><line class="cls-1" x1="35.223" y1="24.559" x2="20.892" y2="24.559"/><path class="cls-1" d="M34.284,35.134l.105.58a3,3,0,0,0,.445,1.1A2.822,2.822,0,0,0,40,35.1c-.413-7.858-3.15-10.536-3.15-10.536"/><path class="cls-1" d="M19.266,24.559v-1a.584.584,0,0,1,.584-.585h2.085a.584.584,0,0,1,.584.585v1"/><path class="cls-1" d="M33.6,24.559v-1a.584.584,0,0,1,.584-.585h2.085a.584.584,0,0,1,.584.585v1"/><path class="cls-1" d="M25.779,32.572A1.974,1.974,0,1,1,23.805,30.6,1.974,1.974,0,0,1,25.779,32.572Z"/><path class="cls-2" d="M23.805,33.21a.638.638,0,0,1-.539-.3.628.628,0,0,1-.1-.343.639.639,0,1,1,.639.638Z"/><path class="cls-1" d="M34.284,32.572A1.974,1.974,0,1,1,32.31,30.6,1.974,1.974,0,0,1,34.284,32.572Z"/><path class="cls-2" d="M32.31,33.21a.639.639,0,1,1,.639-.638A.639.639,0,0,1,32.31,33.21Z"/><path class="cls-1" d="M31.535,24.559v2.6a.653.653,0,0,1-.653.653H25.233a.653.653,0,0,1-.653-.653v-2.6"/><path class="cls-1" d="M36.912,28a.126.126,0,1,1,.125-.126A.125.125,0,0,1,36.912,28Z"/><path class="cls-1" d="M35.625,26.465a.125.125,0,1,1-.125-.125A.125.125,0,0,1,35.625,26.465Z"/><circle class="cls-1" cx="35.5" cy="29.29" r="0.125"/><circle class="cls-1" cx="34.088" cy="27.877" r="0.125"/><circle class="cls-1" cx="22.018" cy="27.877" r="0.125"/><path class="cls-1" d="M20.731,26.465a.125.125,0,1,1-.125-.125A.125.125,0,0,1,20.731,26.465Z"/><circle class="cls-1" cx="20.606" cy="29.29" r="0.125"/><path class="cls-1" d="M19.194,28a.126.126,0,1,1,.125-.126A.125.125,0,0,1,19.194,28Z"/><polygon class="cls-3" points="35.731 9.936 25.458 9.936 8.388 9.936 7.997 12.983 25.458 12.983 36.122 12.983 35.731 9.936"/><polygon class="cls-3" points="35.731 15.284 25.458 15.284 8.388 15.284 7.997 18.33 25.458 18.33 36.122 18.33 35.731 15.284"/><polyline class="cls-3" points="35.86 21.638 35.731 20.631 25.458 20.631 8.388 20.631 7.997 23.678 17.733 23.678"/><line class="cls-3" x1="34.052" y1="12.983" x2="34.052" y2="15.284"/><line class="cls-3" x1="33.524" y1="18.33" x2="33.524" y2="20.631"/><line class="cls-3" x1="10.595" y1="12.983" x2="10.595" y2="15.284"/><line class="cls-3" x1="10.595" y1="18.33" x2="10.595" y2="20.631"/><line class="cls-1" x1="25.779" y1="32.572" x2="30.336" y2="32.572"/></svg>