<svg id="Layer_1" data-name="Layer 1" xmlns="http://www.w3.org/2000/svg" viewBox="0 0 48 48"><defs><style>.cls-1{fill:#f05b4e;}</style></defs><title>Dedicated-on-site-team</title><path class="cls-1" d="M41,14.5H26a1,1,0,0,1-.8-1.6l2.352-3.137C25.793,8.3,24,5.123,24,3.5a1,1,0,0,1,.357-.765.986.986,0,0,1,.817-.219l17,3a1,1,0,0,1,.775,1.3L42,9.662V13.5A1,1,0,0,1,41,14.5Zm-13-2H40v-3a1,1,0,0,1,.051-.316l.634-1.9L26.358,4.755c.677,1.516,2.15,3.516,2.97,3.8A1,1,0,0,1,29.8,10.1Z"/><rect class="cls-1" x="29" y="8.5" width="12" height="2"/><path class="cls-1" d="M34.5,23.5A7.373,7.373,0,0,1,27,16.278V13.5h2v2.778a5.507,5.507,0,0,0,11,0V13.5h2v2.778A7.373,7.373,0,0,1,34.5,23.5Z"/><path class="cls-1" d="M47,44.5a1,1,0,0,1-1-1v-11a5.006,5.006,0,0,0-5-5H28a5.006,5.006,0,0,0-5,5v11a1,1,0,0,1-2,0v-11a7.008,7.008,0,0,1,7-7H41a7.008,7.008,0,0,1,7,7v11A1,1,0,0,1,47,44.5Z"/><path class="cls-1" d="M27,46.5a1,1,0,0,1-1-1v-11a1,1,0,0,1,2,0v11A1,1,0,0,1,27,46.5Z"/><path class="cls-1" d="M42,46.5a1,1,0,0,1-1-1v-11a1,1,0,0,1,2,0v11A1,1,0,0,1,42,46.5Z"/><path class="cls-1" d="M42,44.5H28a1,1,0,0,1-.817-1.577l12-17,1.634,1.154L29.93,42.5H42Z"/><path class="cls-1" d="M21.558,23.982a10.817,10.817,0,0,1-5.321-1.819A10.994,10.994,0,1,1,22,12.5a10.861,10.861,0,0,1-.86,4.243,22.421,22.421,0,0,0,1.479,2.438c1.064,1.6,1.832,2.75,1.244,3.778a2.012,2.012,0,0,1-1.377.925A4.168,4.168,0,0,1,21.558,23.982Zm-5.291-3.993a.994.994,0,0,1,.563.174c2.431,1.656,4.424,1.937,5.148,1.795a15.8,15.8,0,0,0-1.024-1.669,20.611,20.611,0,0,1-1.83-3.14,1,1,0,0,1,.013-.825A8.911,8.911,0,0,0,20,12.5a9.026,9.026,0,1,0-4.261,7.64A1,1,0,0,1,16.267,19.989Zm5.932,1.89Z"/><path class="cls-1" d="M10,17.5a1,1,0,0,1-.707-.293l-3-3,1.414-1.414,2.166,2.165,4.313-6.039,1.628,1.162-5,7a1,1,0,0,1-.731.416Z"/></svg>