<svg id="Layer_1" data-name="Layer 1" xmlns="http://www.w3.org/2000/svg" viewBox="0 0 48 48"><defs><style>.cls-1{fill:#f05b4e;}</style></defs><title>Dining-room</title><path class="cls-1" d="M46.5,46H1.5V44a4.857,4.857,0,0,1,1.793-3.707A2.949,2.949,0,0,0,4.5,38V37h4v2H6.4a5.261,5.261,0,0,1-1.693,2.707A2.949,2.949,0,0,0,3.5,44h41a2.949,2.949,0,0,0-1.207-2.293A5.261,5.261,0,0,1,41.6,39H39.5V37h4v1a2.949,2.949,0,0,0,1.207,2.293A4.857,4.857,0,0,1,46.5,44Z"/><path class="cls-1" d="M39.5,39H8.5a2,2,0,0,1-2-2V34a2,2,0,0,1,2-2h5v2h-5v3h31V34h-1V32h1a2,2,0,0,1,2,2v3A2,2,0,0,1,39.5,39Z"/><path class="cls-1" d="M38.5,33h-2c0-7.381-7-10-13-10s-13,2.619-13,10h-2c0-7.178,6.028-12,15-12S38.5,25.822,38.5,33Z"/><rect class="cls-1" x="22.5" y="18" width="2" height="4"/><rect class="cls-1" x="20.5" y="17" width="6" height="2"/><rect class="cls-1" x="33.5" y="32" width="5" height="2"/><rect class="cls-1" x="22.5" y="3" width="2" height="7"/><rect class="cls-1" x="14.55" y="6.419" width="2" height="6.262" transform="translate(-2.564 11.762) rotate(-38.516)"/><rect class="cls-1" x="11" y="14.95" width="2" height="5.099" transform="translate(-7.514 25.835) rotate(-78.69)"/><rect class="cls-1" x="28.319" y="8.55" width="6.262" height="2" transform="translate(4.385 28.2) rotate(-51.463)"/><rect class="cls-1" x="32.45" y="16.5" width="5.099" height="2" transform="matrix(0.981, -0.196, 0.196, 0.981, -2.754, 7.211)"/></svg>