<svg id="Layer_1" data-name="Layer 1" xmlns="http://www.w3.org/2000/svg" viewBox="0 0 48 48"><defs><style>.cls-1{fill:none;stroke:#054d7f;stroke-linecap:round;stroke-linejoin:round;stroke-width:0.582px;}.cls-2{fill:#fff;}</style></defs><title>Dining</title><path class="cls-1" d="M18.089,16.693c0-3.781-2.269-6.845-5.067-6.845s-5.068,3.064-5.068,6.845c0,3.014,1.442,5.57,3.445,6.485V36.529a1.622,1.622,0,0,0,1.623,1.623h0a1.623,1.623,0,0,0,1.623-1.623V23.178C16.647,22.263,18.089,19.707,18.089,16.693Z"/><path class="cls-1" d="M38.286,27.333C34.593,27.159,34.766,24,34.766,24V15.128a5.28,5.28,0,0,1,5.28-5.28h0v26.84a1.463,1.463,0,0,1-1.464,1.464h0a1.463,1.463,0,0,1-1.464-1.464V28.749"/><line class="cls-1" x1="25.826" y1="9.992" x2="25.826" y2="18.223"/><path class="cls-1" d="M29.877,9.992v8.074a3.845,3.845,0,0,1-.99,2.577l-1.514,2V36.6a1.547,1.547,0,0,1-1.547,1.547h0A1.548,1.548,0,0,1,24.278,36.6V22.643l-1.514-2a3.845,3.845,0,0,1-.99-2.577V9.992"/><line class="cls-1" x1="23.306" y1="18.223" x2="28.345" y2="18.223"/><path class="cls-2" d="M13.843,14.2a5.932,5.932,0,0,1,1.938-.344,3.318,3.318,0,0,0-2.759-2.276c-1.811,0-3.341,2.344-3.341,5.118a7.15,7.15,0,0,0,.452,2.521,10.21,10.21,0,0,1,.318-1.16A6.13,6.13,0,0,1,13.843,14.2Z"/></svg>