<svg id="Layer_1" data-name="Layer 1" xmlns="http://www.w3.org/2000/svg" viewBox="0 0 48 48"><defs><style>.cls-1{fill:#f05b4e;}</style></defs><title>Dishwasher</title><polygon class="cls-1" points="45 27.5 43 27.5 43 13.5 4 13.5 4 27.5 2 27.5 2 11.5 45 11.5 45 27.5"/><polygon class="cls-1" points="45 12.5 43 12.5 43 2.5 4 2.5 4 12.5 2 12.5 2 0.5 45 0.5 45 12.5"/><path class="cls-1" d="M43.769,47.5H3.181L0,31.5v-5H48l-.034,5.258Zm-38.95-2H42.231L46,31.369V28.5H2v2.9Z"/><polygon class="cls-1" points="24 34.5 7.586 34.5 5.293 32.207 6.707 30.793 8.414 32.5 24 32.5 24 34.5"/><polygon class="cls-1" points="40.414 34.5 24 34.5 24 32.5 39.586 32.5 41.293 30.793 42.707 32.207 40.414 34.5"/><path class="cls-1" d="M30,10.5H17v-7H30Zm-11-2h9v-3H19Z"/><rect class="cls-1" x="13" y="6.5" width="2" height="2"/><rect class="cls-1" x="9" y="6.5" width="2" height="2"/><rect class="cls-1" x="32" y="6.5" width="2" height="2"/><rect class="cls-1" x="36" y="6.5" width="2" height="2"/></svg>