<svg id="Layer_1" data-name="Layer 1" xmlns="http://www.w3.org/2000/svg" viewBox="0 0 48 48"><defs><style>.cls-1{fill:#f05b4e;}</style></defs><title>Loan_1</title><path class="cls-1" d="M33.638,37.53A10.639,10.639,0,1,1,44.277,26.891,10.651,10.651,0,0,1,33.638,37.53Zm0-19.277a8.639,8.639,0,1,0,8.639,8.638A8.648,8.648,0,0,0,33.638,18.253Z"/><path class="cls-1" d="M34.6,32.71H32.675a2.93,2.93,0,0,1-2.928-2.927v-.964h2v.964a.928.928,0,0,0,.928.927H34.6a.928.928,0,0,0,.928-.927v-.538a.924.924,0,0,0-.634-.879l-3.148-1.051a2.922,2.922,0,0,1-2-2.776V24a2.93,2.93,0,0,1,2.928-2.927H34.6A2.931,2.931,0,0,1,37.53,24v.964h-2V24a.928.928,0,0,0-.928-.927H32.675a.928.928,0,0,0-.928.927v.539a.923.923,0,0,0,.633.878l3.148,1.051a2.922,2.922,0,0,1,2,2.777v.538A2.931,2.931,0,0,1,34.6,32.71Z"/><rect class="cls-1" x="32.638" y="19.181" width="2" height="2.892"/><rect class="cls-1" x="32.638" y="31.71" width="2" height="2.892"/><path class="cls-1" d="M37.494,47.168a1,1,0,0,1-.6-.2l-3.255-2.441-3.255,2.441a1,1,0,0,1-1.6-.8V35.728h2v8.44l2.255-1.691a1,1,0,0,1,1.2,0l2.256,1.691v-8.44h2v10.44a1,1,0,0,1-1,1Z"/><path class="cls-1" d="M25.928,40.421H4.724a1,1,0,0,1-1-1V1.831a1,1,0,0,1,1-1H33.638a1,1,0,0,1,1,1V13.4h-2V2.831H5.724v35.59h20.2Z"/><rect class="cls-1" x="11.47" y="8.542" width="15.421" height="2"/><rect class="cls-1" x="11.47" y="12.398" width="15.421" height="2"/><rect class="cls-1" x="11.47" y="16.253" width="11.566" height="2"/><rect class="cls-1" x="11.47" y="20.109" width="9.638" height="2"/><rect class="cls-1" x="11.47" y="23.964" width="8.674" height="2"/><rect class="cls-1" x="11.47" y="31.674" width="4.819" height="2"/></svg>