<svg id="Layer_1" data-name="Layer 1" xmlns="http://www.w3.org/2000/svg" viewBox="0 0 48 48"><defs><style>.cls-1{fill:#f05b4e;}</style></defs><title>Double bed</title><path class="cls-1" d="M41.5,36H6.5a3,3,0,0,1-3-3V30.411a2.967,2.967,0,0,1,.244-1.184L11.089,14.76A2.97,2.97,0,0,1,13.818,13H14.5v2h-.682a1,1,0,0,0-.919.606L5.554,30.075a1.009,1.009,0,0,0-.054.336V33a1,1,0,0,0,1,1h35a1,1,0,0,0,1-1V30.411a.985.985,0,0,0-.08-.392L35.128,15.665A1.03,1.03,0,0,0,34.182,15H33.5V13h.682a3,3,0,0,1,2.756,1.818L44.229,29.17a3.015,3.015,0,0,1,.271,1.241V33A3,3,0,0,1,41.5,36Z"/><path class="cls-1" d="M41.5,41H6.5a3,3,0,0,1-3-3V37a3,3,0,0,1,3-3v2a1,1,0,0,0-1,1v1a1,1,0,0,0,1,1h35a1,1,0,0,0,1-1V37a1,1,0,0,0-1-1V34a3,3,0,0,1,3,3v1A3,3,0,0,1,41.5,41Z"/><path class="cls-1" d="M20.5,17h-4a3,3,0,0,1-3-3V13a4,4,0,0,1,4-4h2a4,4,0,0,1,4,4v1A3,3,0,0,1,20.5,17Zm-3-6a2,2,0,0,0-2,2v1a1,1,0,0,0,1,1h4a1,1,0,0,0,1-1V13a2,2,0,0,0-2-2Z"/><path class="cls-1" d="M31.5,17h-4a3,3,0,0,1-3-3V13a4,4,0,0,1,4-4h2a4,4,0,0,1,4,4v1A3,3,0,0,1,31.5,17Zm-3-6a2,2,0,0,0-2,2v1a1,1,0,0,0,1,1h4a1,1,0,0,0,1-1V13a2,2,0,0,0-2-2Z"/><rect class="cls-1" x="22.5" y="13" width="3" height="2"/><path class="cls-1" d="M41.5,18h-2V6a1,1,0,0,0-1-1H9.5a1,1,0,0,0-1,1V18h-2V6a3,3,0,0,1,3-3h29a3,3,0,0,1,3,3Z"/><rect class="cls-1" x="7.5" y="40" width="2" height="4"/><rect class="cls-1" x="38.5" y="40" width="2" height="4"/></svg>