<svg id="Layer_1" data-name="Layer 1" xmlns="http://www.w3.org/2000/svg" viewBox="0 0 48 48"><defs><style>.cls-1{fill:#f05b4e;}</style></defs><title>Drawers</title><path class="cls-1" d="M41.315,17.654H6.685a1,1,0,0,1-1-1V1.963a1,1,0,0,1,1-1h34.63a1,1,0,0,1,1,1V16.654A1,1,0,0,1,41.315,17.654Zm-33.63-2h32.63V2.963H7.685Z"/><path class="cls-1" d="M27.673,12.407H20.327a1,1,0,0,1-1-1v-2.1h2v1.1h5.346v-1.1h2v2.1A1,1,0,0,1,27.673,12.407Z"/><path class="cls-1" d="M41.315,32.346H6.685a1,1,0,0,1-1-1V16.654a1,1,0,0,1,1-1h34.63a1,1,0,0,1,1,1V31.346A1,1,0,0,1,41.315,32.346Zm-33.63-2h32.63V17.654H7.685Z"/><path class="cls-1" d="M27.673,27.1H20.327a1,1,0,0,1-1-1V24h2v1.1h5.346V24h2v2.1A1,1,0,0,1,27.673,27.1Z"/><path class="cls-1" d="M41.315,47.037H6.685a1,1,0,0,1-1-1V31.346a1,1,0,0,1,1-1h34.63a1,1,0,0,1,1,1V46.037A1,1,0,0,1,41.315,47.037Zm-33.63-2h32.63V32.346H7.685Z"/><path class="cls-1" d="M27.673,41.79H20.327a1,1,0,0,1-1-1v-2.1h2v1.1h5.346v-1.1h2v2.1A1,1,0,0,1,27.673,41.79Z"/></svg>