<svg id="Layer_1" data-name="Layer 1" xmlns="http://www.w3.org/2000/svg" viewBox="0 0 48 48"><defs><style>.cls-1{fill:#f05b4e;}</style></defs><title>Drinks-cooler</title><path class="cls-1" d="M43.4,23.245H4.615a3,3,0,0,1-2.742-4.219l2.223-5a3,3,0,0,1,2.741-1.781H9a1,1,0,0,1,0,2H6.837a1,1,0,0,0-.913.594l-2.223,5a1,1,0,0,0,.914,1.406H43.4a1,1,0,0,0,.913-1.406l-2.221-5a1,1,0,0,0-.914-.594H25a1,1,0,0,1,0-2H41.178a3,3,0,0,1,2.742,1.781l2.222,5A3,3,0,0,1,43.4,23.245Z"/><path class="cls-1" d="M40.7,46.245H7.313A3,3,0,0,1,4.334,43.6L2.52,28.363a1,1,0,1,1,1.986-.237L6.32,43.363a1,1,0,0,0,.993.882H40.7a1,1,0,0,0,.994-.885l1.769-15.231a1,1,0,1,1,1.986.231L43.677,43.591A3,3,0,0,1,40.7,46.245Z"/><path class="cls-1" d="M44.452,29.245H3.513a1,1,0,0,1-.84-.458A9.971,9.971,0,0,1,1.62,19.849a1,1,0,1,1,1.836.792,7.929,7.929,0,0,0,.623,6.6H43.887a7.929,7.929,0,0,0,.672-6.6,1,1,0,1,1,1.837-.791,10,10,0,0,1-1.1,8.938A1,1,0,0,1,44.452,29.245Z"/><path class="cls-1" d="M11.542,20.652l-.406-.921a6.678,6.678,0,0,1,.037-4.391,4.908,4.908,0,0,0,.234-1.367A53.653,53.653,0,0,1,9.518,8.26c-.039-.136-.072-.249-.1-.334-.066-.045-.156-.1-.224-.141a2.012,2.012,0,0,1-.9-.865A2.342,2.342,0,0,1,8.244,5.6c.015-.1.032-.205.041-.292L8.1,4.9c-.441-1,.436-1.991,2.6-2.948a9.461,9.461,0,0,1,1.9-.629c1.322-.253,1.833.233,2.035.689l.2.457c.073.055.164.109.253.166a2.19,2.19,0,0,1,.914.882,2.029,2.029,0,0,1,.029,1.252c-.015.078-.035.183-.047.262.041.065.105.167.182.292a53.953,53.953,0,0,1,2.955,5.258,5.063,5.063,0,0,0,1.163.737,6.687,6.687,0,0,1,3.27,2.933l2.469,5.594-1.83.807-2.47-5.594a4.994,4.994,0,0,0-2.385-1.977A4.175,4.175,0,0,1,17.3,11.384a52.709,52.709,0,0,0-2.827-5.015c-.215-.348-.344-.573-.361-.61a2.261,2.261,0,0,1-.035-1.377l.005-.026-.07-.045a2.248,2.248,0,0,1-.939-.906l-.056-.128a7.265,7.265,0,0,0-1.5.5,7.163,7.163,0,0,0-1.38.771l.116.309a2.877,2.877,0,0,1-.029,1.03c-.008.055-.017.111-.025.164l.039.024a2.245,2.245,0,0,1,.994.954c.017.037.1.284.209.679a52.251,52.251,0,0,0,1.8,5.467,4.182,4.182,0,0,1-.129,2.653,5,5,0,0,0-.146,3.095l.406.92ZM15.983,5.113Z"/></svg>