<svg id="Layer_1" data-name="Layer 1" xmlns="http://www.w3.org/2000/svg" viewBox="0 0 48 48"><defs><style>.cls-1{fill:#f05b4e;}</style></defs><title>Electricity</title><path class="cls-1" d="M24,47.993a1.027,1.027,0,0,1-.258-.034C22.684,47.678,4,37.8,4,28.007v-19a1,1,0,0,1,1-1C9.555,8.007,21.6,2.7,23.193.431a1,1,0,0,1,.818-.424h0a1,1,0,0,1,.817.425C26.375,2.628,37.9,8.007,43,8.007a1,1,0,0,1,1,1v20c0,8.1-18.863,18.718-19.742,18.952A1.021,1.021,0,0,1,24,47.993ZM6,9.946V28.007c0,7.5,15.04,16.6,17.992,17.91C26.587,44.672,42,35.136,42,29.007V9.956C36.663,9.45,27.223,5.272,24.008,2.449,20.711,5.305,10.945,9.4,6,9.946Z"/><path class="cls-1" d="M18.669,38.272,19.9,26.007H15.646l4.616-15H30.443l-3,8h6.638Zm-.315-14.265h3.751l-.774,7.734,8.588-10.734H24.557l3-8H21.738Z"/></svg>