<svg id="Layer_1" data-name="Layer 1" xmlns="http://www.w3.org/2000/svg" viewBox="0 0 48 48"><defs><style>.cls-1{fill:#f05b4e;}</style></defs><title>Fridge</title><path class="cls-1" d="M34.962,47.447H13.038A4.138,4.138,0,0,1,8.9,43.314V4.686A4.138,4.138,0,0,1,13.038.553H34.962A4.138,4.138,0,0,1,39.1,4.686V43.314A4.138,4.138,0,0,1,34.962,47.447ZM13.038,2.553a2.136,2.136,0,0,0-2.133,2.133V43.314a2.136,2.136,0,0,0,2.133,2.133H34.962A2.136,2.136,0,0,0,37.1,43.314V4.686a2.136,2.136,0,0,0-2.133-2.133Z"/><path class="cls-1" d="M38.1,20.3H9.9a1,1,0,0,1,0-2H38.1a1,1,0,0,1,0,2Z"/><rect class="cls-1" x="13.082" y="22.434" width="2" height="7.308"/><rect class="cls-1" x="13.082" y="8.861" width="2" height="7.309"/></svg>