<svg id="Layer_1" data-name="Layer 1" xmlns="http://www.w3.org/2000/svg" viewBox="0 0 48 48"><defs><style>.cls-1{fill:#f05b4e;}</style></defs><title>Friendly-staff</title><path class="cls-1" d="M17.349,39.707l-1.414-1.414.125-.132A3.181,3.181,0,0,1,18.642,37H33.261c1.134-.474,6.2-5.38,7.351-6.666a57.8,57.8,0,0,0,4.523-7.084,3.609,3.609,0,0,0-2.55-.276c-1.3.3-2.17,1.213-3.337,3.483a1,1,0,0,1-.429.431l-4.355,2.261-.922-1.775,4.075-2.116c1.188-2.249,2.39-3.738,4.515-4.232A4.916,4.916,0,0,1,47.161,22.4a1,1,0,0,1,.116.99A54.11,54.11,0,0,1,42.1,31.666C42.039,31.739,35.222,39,33.358,39H18.642a1.244,1.244,0,0,0-1.119.523Zm15.864-2.689Z"/><path class="cls-1" d="M31.358,33h-9a1,1,0,0,1,0-2h9c1.382,0,2-.753,2-1.5s-.618-1.5-2-1.5h-6A3.68,3.68,0,0,1,23.3,26.965,4.4,4.4,0,0,0,21.642,26h-5a6.115,6.115,0,0,0-3.319,1.732c-1.466,1.467-4.039,3.9-4.065,3.924A1,1,0,0,1,7.885,30.2c.025-.025,2.578-2.438,4.05-3.91A7.929,7.929,0,0,1,16.642,24h5a5.091,5.091,0,0,1,2.874,1.377,5.5,5.5,0,0,0,.927.632L31.358,26c2.626,0,4,1.761,4,3.5S33.984,33,31.358,33Z"/><path class="cls-1" d="M12.642,46a1,1,0,0,1-.707-.293l-11-11a1,1,0,0,1,0-1.414l5-5a1,1,0,0,1,1.414,0l11,11a1,1,0,0,1,0,1.414l-5,5A1,1,0,0,1,12.642,46ZM3.056,34l9.586,9.586L16.228,40,6.642,30.414Z"/><rect class="cls-1" x="6.642" y="33.586" width="2" height="2.828" transform="translate(-22.511 15.655) rotate(-45)"/><path class="cls-1" d="M29.358,24a1,1,0,0,1-.706-.292,59.509,59.509,0,0,0-5.388-4.637c-3.236-2.553-6.03-4.758-6.75-8.247A7.571,7.571,0,0,1,17.8,4.847a6.749,6.749,0,0,1,4.755-2.8,8.023,8.023,0,0,1,6.8,2.652,8.016,8.016,0,0,1,6.8-2.652h0a6.748,6.748,0,0,1,4.754,2.8A7.577,7.577,0,0,1,42.2,10.824c-.722,3.49-3.515,5.694-6.75,8.247a59.65,59.65,0,0,0-5.389,4.637A.994.994,0,0,1,29.358,24ZM23.346,4a5.18,5.18,0,0,0-.572.031,4.769,4.769,0,0,0-3.355,1.991,5.566,5.566,0,0,0-.946,4.4C19.046,13.2,21.454,15.1,24.5,17.5c1.5,1.181,3.166,2.5,4.856,4.1,1.691-1.605,3.361-2.923,4.856-4.1,3.049-2.4,5.456-4.3,6.03-7.081a5.569,5.569,0,0,0-.947-4.4,4.771,4.771,0,0,0-3.354-1.99h0A5.818,5.818,0,0,0,30.27,6.945a1,1,0,0,1-1.823,0A5.768,5.768,0,0,0,23.346,4Z"/><path class="cls-1" d="M21.358,10a1,1,0,0,1-1-1,3,3,0,0,1,3-3,1,1,0,0,1,0,2,1,1,0,0,0-1,1A1,1,0,0,1,21.358,10Z"/></svg>