<svg id="Layer_1" data-name="Layer 1" xmlns="http://www.w3.org/2000/svg" viewBox="0 0 48 48"><defs><style>.cls-1{fill:#f05b4e;}</style></defs><title>Full-length-mirrors</title><path class="cls-1" d="M38,42H10a1,1,0,0,1-1-1V2a1,1,0,0,1,1-1H38a1,1,0,0,1,1,1V41A1,1,0,0,1,38,42ZM11,40H37V3H11Z"/><rect class="cls-1" x="10.307" y="42.5" width="5.385" height="2" transform="translate(-32.219 39.431) rotate(-68.219)"/><rect class="cls-1" x="34" y="40.808" width="2" height="5.385" transform="translate(-13.652 16.11) rotate(-21.801)"/><rect class="cls-1" x="23" y="41" width="2" height="5"/><rect class="cls-1" x="13.998" y="7.235" width="3.536" height="2" transform="translate(-1.205 13.56) rotate(-45)"/><rect class="cls-1" x="13.55" y="9.501" width="9.899" height="2" transform="translate(-2.006 16.157) rotate(-45)"/></svg>