<svg id="Layer_1" data-name="Layer 1" xmlns="http://www.w3.org/2000/svg" viewBox="0 0 48 48"><defs><style>.cls-1{fill:#f05b4e;}</style></defs><title>Games</title><path class="cls-1" d="M15.5,31.425a5,5,0,1,1,5.005-5A5.01,5.01,0,0,1,15.5,31.425Zm0-8.009a3,3,0,1,0,3.005,3A3.008,3.008,0,0,0,15.5,23.416Z"/><path class="cls-1" d="M4.555,42.569A4.639,4.639,0,0,1,3.2,42.38C2.374,42.126-.248,40.934.5,36.267c.111-.689.276-1.822.476-3.191.418-2.857.989-6.77,1.527-9.824l1.97.347c-.533,3.025-1.1,6.921-1.518,9.766-.2,1.382-.368,2.525-.48,3.219-.339,2.107.138,3.524,1.309,3.886a3.56,3.56,0,0,0,3.849-1.563c.656-.965,2.994-4.955,3.957-6.921l1.8.879c-.97,1.981-3.346,6.058-4.072,7.123A5.525,5.525,0,0,1,4.555,42.569Z"/><rect class="cls-1" x="16.491" y="13.425" width="15" height="2"/><rect class="cls-1" x="19.491" y="25.425" width="8" height="2"/><path class="cls-1" d="M13.491,8.425h-2c0-.542-.327-1-.715-1H8.205c-.387,0-.714.458-.714,1h-2a2.871,2.871,0,0,1,2.714-3h2.571A2.872,2.872,0,0,1,13.491,8.425Z"/><rect class="cls-1" x="8.491" y="15.425" width="2" height="6"/><rect class="cls-1" x="6.491" y="17.425" width="6" height="2"/><path class="cls-1" d="M9.491,27.425a9,9,0,1,1,7.381-3.85l-1.64-1.145a6.986,6.986,0,1,0-3.742,2.705l.571,1.917A9.022,9.022,0,0,1,9.491,27.425Z"/><path class="cls-1" d="M32.505,31.425a5,5,0,1,1,5-5A5.01,5.01,0,0,1,32.505,31.425Zm0-8.009a3,3,0,1,0,3,3A3.008,3.008,0,0,0,32.505,23.416Z"/><path class="cls-1" d="M43.451,42.568a5.568,5.568,0,0,1-4.8-2.625c-.7-1.02-3.073-5.1-4.043-7.078l1.8-.879c.963,1.966,3.3,5.956,3.928,6.876a3.583,3.583,0,0,0,3.878,1.608c1.171-.362,1.648-1.779,1.309-3.886-.112-.694-.279-1.837-.48-3.219-.416-2.845-.985-6.741-1.518-9.766l1.97-.347c.538,3.054,1.109,6.967,1.527,9.824.2,1.369.365,2.5.476,3.191.751,4.667-1.871,5.859-2.692,6.113A4.637,4.637,0,0,1,43.451,42.568Z"/><path class="cls-1" d="M42.509,8.425h-2c0-.542-.327-1-.714-1H37.224c-.388,0-.715.458-.715,1h-2a2.872,2.872,0,0,1,2.715-3H39.8A2.871,2.871,0,0,1,42.509,8.425Z"/><rect class="cls-1" x="37.491" y="19.425" width="2" height="2"/><rect class="cls-1" x="37.491" y="15.425" width="2" height="2"/><rect class="cls-1" x="35.491" y="17.425" width="2" height="2"/><rect class="cls-1" x="39.491" y="17.425" width="2" height="2"/><path class="cls-1" d="M38.509,27.425a9.022,9.022,0,0,1-2.57-.373l.571-1.917a7,7,0,1,0-3.742-2.705l-1.64,1.145a9,9,0,1,1,7.381,3.85Z"/></svg>