<svg id="Layer_1" data-name="Layer 1" xmlns="http://www.w3.org/2000/svg" viewBox="0 0 48 48"><defs><style>.cls-1{fill:#f05b4e;}</style></defs><title>Garbage-collection</title><path class="cls-1" d="M45.018,34.5H43v-2h2.018a.994.994,0,0,0,.982-1V25.712c0-1.212-.739-1.212-.982-1.212H43.481l-3.7-5.575a1,1,0,0,0-.819-.425H32v-2h6.961a3,3,0,0,1,2.477,1.308L44.554,22.5h.464A2.938,2.938,0,0,1,48,25.712V31.5A3,3,0,0,1,45.018,34.5Z"/><polygon class="cls-1" points="34 34.5 20 34.5 20 32.5 32 32.5 32 16.149 36 11.149 36 10.5 11.589 10.5 2.088 27.604 3.721 32.5 5 32.5 5 34.5 2.279 34.5 -0.088 27.403 10.411 8.5 38 8.5 38 11.85 34 16.85 34 34.5"/><rect class="cls-1" x="17.554" y="18.5" width="13.892" height="2.001" transform="translate(-4.686 30.843) rotate(-59.756)"/><rect class="cls-1" x="11.554" y="18.5" width="13.892" height="2.001" transform="translate(-7.664 25.66) rotate(-59.756)"/><rect class="cls-1" x="5.554" y="18.5" width="13.892" height="2.001" transform="translate(-10.642 20.477) rotate(-59.756)"/><path class="cls-1" d="M39.009,39.5a4.991,4.991,0,1,1,5.009-4.991A5.006,5.006,0,0,1,39.009,39.5Zm0-7.982a2.991,2.991,0,1,0,3.009,2.991A3,3,0,0,0,39.009,31.518Z"/><rect class="cls-1" x="32" y="32.5" width="3" height="2"/><polygon class="cls-1" points="41 25.5 35 25.5 35 23.5 38.8 23.5 37.176 21.053 38.842 19.948 41 23.199 41 25.5"/><path class="cls-1" d="M8.991,39.5A4.991,4.991,0,1,1,14,34.509,5.006,5.006,0,0,1,8.991,39.5Zm0-7.982A2.991,2.991,0,1,0,12,34.509,3,3,0,0,0,8.991,31.518Z"/><path class="cls-1" d="M16.991,39.5A4.991,4.991,0,1,1,22,34.509,5.006,5.006,0,0,1,16.991,39.5Zm0-7.982A2.991,2.991,0,1,0,20,34.509,3,3,0,0,0,16.991,31.518Z"/></svg>