<svg id="Layer_1" data-name="Layer 1" xmlns="http://www.w3.org/2000/svg" viewBox="0 0 48 48"><defs><style>.cls-1{fill:#f05b4e;}</style></defs><title>Garden</title><path class="cls-1" d="M36.026,47.75h-15V45.985c-.54-1.1-2.529-5.307-2.929-8.235H17.026v-7h23v7h-1.07c-.4,2.928-2.389,7.131-2.93,8.235Zm-13-2h11v-.236l.106-.211c.816-1.63,2.925-6.34,2.894-8.539l-.014-1.014h1.014v-3h-19v3h1.015l-.015,1.015c-.031,2.2,2.079,6.908,2.894,8.538l.106.211Z"/><rect class="cls-1" x="19.026" y="35.75" width="10" height="2"/><path class="cls-1" d="M38.344,16.5a1,1,0,0,1-.675-.261c-1.443-1.316-7.272-2.412-10.244-1.131l-.791-1.838c2.726-1.174,7.159-.834,10.092.232-1.473-3.094-4.811-3.969-5.955-4.182l.365-1.967c3.515.653,7.514,3.1,8.2,8.01a1,1,0,0,1-.989,1.137Z"/><path class="cls-1" d="M26.186,11.055l-1.741-.984a19.473,19.473,0,0,1,7.763-7.706A10.043,10.043,0,0,0,23.8,5.113L22.386,3.7C25.983.1,32.417-.895,35.375,1.684A1,1,0,0,1,34.992,3.4C31.7,4.337,28.326,7.271,26.186,11.055Z"/><path class="cls-1" d="M19.632,28.519a1,1,0,0,1-.684-.271c-2.8-2.622-3.292-4.668-3.292-8h2c0,2.256.229,3.628,1.313,5.075a30.241,30.241,0,0,1,1.251-3.008c1.6-3.5,3.406-7.469.617-10.264l1.416-1.412c3.768,3.775,1.467,8.821-.213,12.506-.749,1.643-1.525,3.344-1.415,4.253a1,1,0,0,1-.993,1.119Z"/><path class="cls-1" d="M9.2,21.792a.987.987,0,0,1-.317-.051,1,1,0,0,1-.652-.7,9.159,9.159,0,0,1,1.937-7.993,10.22,10.22,0,0,1,8.178-3.918l-.063,2A8.292,8.292,0,0,0,11.723,14.3a7.5,7.5,0,0,0-1.746,4.849c.618-.3,1.282-.545,1.967-.8,2.27-.84,4.842-1.793,6.92-5.147l1.7,1.052c-2.439,3.939-5.481,5.066-7.925,5.971a10.157,10.157,0,0,0-2.815,1.349A1,1,0,0,1,9.2,21.792Z"/><path class="cls-1" d="M20.975,9.487c-.442-3.134-2.181-4.408-3.562-4.925a6.991,6.991,0,0,0-5.482.428,7.6,7.6,0,0,1,3.641,2.86l-1.749.971c-.457-.824-1.984-1.94-4.366-2.58a1,1,0,0,1-.4-1.722,9.29,9.29,0,0,1,9.052-1.83,7.667,7.667,0,0,1,4.841,6.518Z"/><rect class="cls-1" x="34.026" y="35.75" width="4" height="2"/><path class="cls-1" d="M33.026,31.75h-2v-.475c0-6.494.008-9.754-10.162-19.2l1.36-1.464c10.811,10.034,10.807,13.809,10.8,20.662Z"/><path class="cls-1" d="M28.026,31.75h-2l0-.91c.011-5.179.014-6.257-3.922-12.2l1.667-1.106c4.27,6.446,4.267,8.037,4.255,13.307Z"/></svg>