<svg id="Layer_1" data-name="Layer 1" xmlns="http://www.w3.org/2000/svg" viewBox="0 0 48 48"><defs><style>.cls-1{fill:#f05b4e;}</style></defs><title>Gym</title><path class="cls-1" d="M21.5,28h-6c-1.991,0-3-1.346-3-4s1.009-4,3-4h6v2h-6c-.469,0-1,0-1,2s.531,2,1,2h6Z"/><path class="cls-1" d="M39.5,28h-1c-1.991,0-3-1.346-3-4s1.009-4,3-4h1c2.093,0,3.5,1.608,3.5,4S41.593,28,39.5,28Zm-1-6c-.469,0-1,0-1,2s.531,2,1,2h1c1.354,0,1.5-1.4,1.5-2s-.146-2-1.5-2Z"/><path class="cls-1" d="M8.481,14.664l-1.8-.87C8.765,9.477,11.979,7,15.5,7c3.1,0,6.056,2,8.121,5.489L21.9,13.507C20.18,10.6,17.906,9,15.5,9,12.777,9,10.219,11.064,8.481,14.664Z"/><path class="cls-1" d="M15.5,41c-6.065,0-11-7.626-11-17a25.781,25.781,0,0,1,.574-5.464l1.954.425A23.821,23.821,0,0,0,6.5,24c0,8.271,4.038,15,9,15,2.406,0,4.68-1.6,6.4-4.509l1.721,1.018C21.557,39,18.6,41,15.5,41Z"/><path class="cls-1" d="M10.5,39a7.805,7.805,0,0,1-5.465-2.408C2.195,33.828.5,29.12.5,24s1.695-9.829,4.534-12.593A7.694,7.694,0,0,1,10.683,9l-.053,2a5.806,5.806,0,0,0-4.2,1.84C4.005,15.2,2.5,19.476,2.5,24s1.505,8.8,3.929,11.159A5.793,5.793,0,0,0,10.63,37l.053,2C10.622,39,10.56,39,10.5,39Z"/><path class="cls-1" d="M37.5,39c-5.514,0-10-6.729-10-15a22.013,22.013,0,0,1,.606-5.184l1.944.472A19.989,19.989,0,0,0,29.5,24c0,7.168,3.589,13,8,13s8-5.832,8-13-3.589-13-8-13c-2.052,0-4.014,1.293-5.523,3.642L30.294,13.56C32.185,10.619,34.744,9,37.5,9c5.514,0,10,6.729,10,15S43.014,39,37.5,39Z"/><path class="cls-1" d="M34,41c-6.341,0-11.5-7.626-11.5-17S27.659,7,34,7a8.837,8.837,0,0,1,5.643,2.161A1,1,0,0,1,38.367,10.7,6.769,6.769,0,0,0,34,9c-5.238,0-9.5,6.729-9.5,15S28.762,39,34,39a6.8,6.8,0,0,0,4.441-1.763,1,1,0,1,1,1.291,1.527A8.861,8.861,0,0,1,34,41Z"/></svg>