<svg id="Layer_1" data-name="Layer 1" xmlns="http://www.w3.org/2000/svg" viewBox="0 0 48 48"><defs><style>.cls-1{fill:#f05b4e;}</style></defs><title>Heating</title><path class="cls-1" d="M46,14H2V11.414l-1-1V5H47v5.414l-1,1ZM4,12H44V10.586l1-1V7H3V9.585l1,1Z"/><rect class="cls-1" x="4" y="13" width="2" height="29"/><rect class="cls-1" x="42" y="13" width="2" height="29"/><path class="cls-1" d="M39,42H37V23.957a14.106,14.106,0,0,1-6.53-2.609C28.538,20.141,26.713,19,24,19s-4.538,1.141-6.47,2.348A14.106,14.106,0,0,1,11,23.957V42H9V22h1c2.713,0,4.538-1.141,6.47-2.348C18.556,18.348,20.713,17,24,17s5.444,1.348,7.53,2.652C33.462,20.859,35.287,22,38,22h1Z"/><path class="cls-1" d="M29.235,43a1,1,0,0,1-.5-1.869A4.928,4.928,0,0,0,31,37.175a3.346,3.346,0,0,0-1.03-2.322c-.012.044-.025.088-.04.133A3.46,3.46,0,0,1,28.067,37.1c-.837.362-3.008.945-5.078-1.469a13.2,13.2,0,0,1-3.081-7.052A11.522,11.522,0,0,0,17,35.984a6.236,6.236,0,0,0,2.845,5.094,1,1,0,0,1-.833,1.818A8.12,8.12,0,0,1,15,36c-.015-2.2.657-6.519,5.327-10.74a1,1,0,0,1,1.654.922c-.746,4.081,1.972,7.5,2.524,8.146.884,1.032,1.814,1.348,2.765.935a1.478,1.478,0,0,0,.754-.888,1.292,1.292,0,0,0-.122-1.085,1,1,0,0,1,1.321-1.4c3.067,1.6,3.745,3.739,3.773,5.251a6.931,6.931,0,0,1-3.27,5.731A.994.994,0,0,1,29.235,43Z"/></svg>