<svg id="Layer_1" data-name="Layer 1" xmlns="http://www.w3.org/2000/svg" viewBox="0 0 48 48"><defs><style>.cls-1{fill:#f05b4e;}</style></defs><title>City-centre copy</title><path class="cls-1" d="M23,42H18C7.383,42,2,35.945,2,24V20a1,1,0,0,1,1-1H38a1,1,0,0,1,1,1v4C39,35.945,33.617,42,23,42ZM4,21v3C4,34.916,8.449,40,18,40h5c9.551,0,14-5.084,14-16V21Z"/><path class="cls-1" d="M13.6,37.667A12.144,12.144,0,0,1,6,26V24H8v2a10.234,10.234,0,0,0,6.4,9.833Z"/><rect class="cls-1" x="2" y="43" width="37" height="2"/><path class="cls-1" d="M14.4,16.624l-1.563-1.248c1.84-2.3,1.172-3.206.16-4.573-1.155-1.56-2.737-3.7.9-7.494l1.445,1.383c-2.47,2.579-1.817,3.461-.736,4.922C15.7,11.093,17.2,13.12,14.4,16.624Z"/><path class="cls-1" d="M20.9,16.624l-1.563-1.248c1.84-2.3,1.172-3.206.16-4.573-1.155-1.56-2.737-3.7.9-7.494l1.445,1.383c-2.47,2.579-1.817,3.461-.736,4.922C22.2,11.093,23.7,13.12,20.9,16.624Z"/><path class="cls-1" d="M27.4,16.624l-1.563-1.248c1.84-2.3,1.172-3.206.16-4.573-1.155-1.56-2.737-3.7.9-7.494l1.445,1.383c-2.47,2.579-1.817,3.461-.736,4.922C28.7,11.093,30.2,13.12,27.4,16.624Z"/><path class="cls-1" d="M36.075,36.018l-1.29-1.527A28.729,28.729,0,0,1,40.8,30.656c2.145-1.089,3.44-1.747,3.983-3.624a3.8,3.8,0,0,0-.128-2.867A2.222,2.222,0,0,0,43.289,23.1c-1.826-.526-3.865.077-4.365,1.285l-1.848-.765c.9-2.16,3.93-3.258,6.763-2.443A4.184,4.184,0,0,1,46.408,23.2a5.747,5.747,0,0,1,.3,4.39c-.785,2.711-2.644,3.656-5,4.851A26.658,26.658,0,0,0,36.075,36.018Z"/></svg>