<svg id="Layer_1" data-name="Layer 1" xmlns="http://www.w3.org/2000/svg" viewBox="0 0 48 48"><defs><style>.cls-1{fill:#f05b4e;}</style></defs><title>Insurance</title><path class="cls-1" d="M10.5,25.319a5.094,5.094,0,0,1-5-5.286V18.605a5.094,5.094,0,0,1,5-5.286,5.094,5.094,0,0,1,5,5.286v1.428A5.094,5.094,0,0,1,10.5,25.319Zm0-10a3.119,3.119,0,0,0-3,3.286v1.428a3.118,3.118,0,0,0,3,3.286,3.118,3.118,0,0,0,3-3.286V18.605A3.119,3.119,0,0,0,10.5,15.319Z"/><path class="cls-1" d="M11.5,43.319h-4c-4.383,0-7-2.243-7-6v-4c0-4.579,2.421-7,7-7h5a16.951,16.951,0,0,1,6.47,2.118L18.03,30.2a15.472,15.472,0,0,0-5.57-1.884H7.5c-3.5,0-5,1.5-5,5v4c0,3.306,2.719,4,5,4h4Z"/><path class="cls-1" d="M13.5,38.319h-6a2,2,0,0,1-2-2v-4h2v4h6Z"/><rect class="cls-1" x="4.5" y="42.319" width="2" height="5"/><rect class="cls-1" x="15.5" y="44.319" width="2" height="3"/><path class="cls-1" d="M23.264,41.319H19.5a1,1,0,0,1-.895-1.447l2-4a1,1,0,0,1,.895-.553h3.382a2,2,0,0,1,1.789,2.894l-.724,1.448A2.982,2.982,0,0,1,23.264,41.319Zm-2.146-2h2.146a1,1,0,0,0,.894-.552l.724-1.448H22.118Z"/><rect class="cls-1" x="12" y="30.904" width="2" height="5.831" transform="translate(-22.688 27.567) rotate(-59.036)"/><path class="cls-1" d="M20.5,45.319h-10a1,1,0,0,1-.895-1.447l6-12a1,1,0,0,1,.895-.553h10a1,1,0,0,1,.895,1.448l-2,4-1.79-.9,1.277-2.553H17.118l-5,10h7.764l1.723-3.447,1.79.9-2,4A1,1,0,0,1,20.5,45.319Z"/><path class="cls-1" d="M24.516,29.323a2.075,2.075,0,0,1-.649-.106,1.974,1.974,0,0,1-1.367-1.9v-4h-1a4,4,0,0,1-4-4v-15a4,4,0,0,1,4-4h22a4,4,0,0,1,4,4v14a5.006,5.006,0,0,1-5,5H30l-3.9,5.2A1.97,1.97,0,0,1,24.516,29.323Zm-3.016-27a2,2,0,0,0-2,2v15a2,2,0,0,0,2,2h2a1,1,0,0,1,1,1v5l4.2-5.6a1,1,0,0,1,.8-.4h13a3,3,0,0,0,3-3v-14a2,2,0,0,0-2-2Z"/><path class="cls-1" d="M33.5,17.319H31.522a3.09,3.09,0,0,1-3.022-3v-1h2v1a1.1,1.1,0,0,0,1.022,1H33.5a1.084,1.084,0,0,0,1-1v-.3a.829.829,0,0,0-.644-.75l-3.27-.98A2.82,2.82,0,0,1,28.5,9.622v-.3a3.079,3.079,0,0,1,3-3h2a3.079,3.079,0,0,1,3,3v1h-2v-1a1.084,1.084,0,0,0-1-1h-2a1.084,1.084,0,0,0-1,1v.3a.841.841,0,0,0,.66.749l3.271.98A2.812,2.812,0,0,1,36.5,14.017v.3A3.079,3.079,0,0,1,33.5,17.319Z"/><rect class="cls-1" x="31.5" y="4.319" width="2" height="3"/><rect class="cls-1" x="31.5" y="16.319" width="2" height="3"/></svg>