<svg id="Layer_1" data-name="Layer 1" xmlns="http://www.w3.org/2000/svg" viewBox="0 0 48 48"><defs><style>.cls-1{fill:#f05b4e;}</style></defs><title>Iron</title><path class="cls-1" d="M33.344,27.5H19a1.714,1.714,0,0,1-1.363-.589,1.93,1.93,0,0,1-.426-1.287c0-2.553,3.91-8.124,7.789-8.124H36.49a2.725,2.725,0,0,1,2.749,2.589,7.63,7.63,0,0,1-1.46,5.038,7.32,7.32,0,0,1-2.556,1.964h0A4.357,4.357,0,0,1,33.344,27.5Zm-14.131-2H33.344a2.422,2.422,0,0,0,1.025-.217h0a5.316,5.316,0,0,0,1.852-1.41,5.573,5.573,0,0,0,1.02-3.7.738.738,0,0,0-.751-.676H25c-1.223,0-2.835,1.107-4.2,2.887A7.437,7.437,0,0,0,19.213,25.5Z"/><path class="cls-1" d="M15,15.5H13v-2a1,1,0,0,1,.37-.776A5.025,5.025,0,0,1,17,11.5a1,1,0,0,1,.707.293l1,1-1.414,1.414-.7-.7A2.733,2.733,0,0,0,15,14Z"/><path class="cls-1" d="M40,39.5H1a1,1,0,0,1-1-1,5.426,5.426,0,0,1,3.663-4.941A.992.992,0,0,1,4,33.5H39a1,1,0,0,1,.97.758l1,4A1,1,0,0,1,40,39.5Zm-37.808-2H38.719l-.5-2H4.184A3.625,3.625,0,0,0,2.192,37.5Z"/><path class="cls-1" d="M39.917,34.9l-1.834-.8A5.34,5.34,0,0,1,43,31.5h2.586l.316-.316c-.739-3.242-2.045-8.878-2.876-12.457C42.529,16.585,40.5,15.5,37,15.5H24a12.65,12.65,0,0,0-8.415,2.811c-4.406,3.178-8.578,9.645-10.627,16.477l-1.916-.575c1.646-5.488,5.613-13.371,11.373-17.524A14.754,14.754,0,0,1,24,13.5H37c4.428,0,7.259,1.7,7.974,4.774.88,3.79,2.292,9.882,3,13.005a1,1,0,0,1-.268.928l-1,1A1,1,0,0,1,46,33.5H43A3.6,3.6,0,0,0,39.917,34.9Z"/><rect class="cls-1" x="26" y="22.5" width="6" height="2"/><rect class="cls-1" x="39.394" y="11.5" width="7.211" height="2" transform="translate(8.747 41.345) rotate(-56.31)"/><rect class="cls-1" x="40" y="37.5" width="2" height="2"/></svg>