<svg id="Layer_1" data-name="Layer 1" xmlns="http://www.w3.org/2000/svg" viewBox="0 0 48 48"><defs><style>.cls-1{fill:#f05b4e;}</style></defs><title>Karaoke-room</title><path class="cls-1" d="M33.194,21.248q-.351,0-.706-.029a10.81,10.81,0,0,1-6.634-3.28c-4.1-4.1-4.394-9.748-.707-13.435L26.562,3.09a8.525,8.525,0,0,1,6.8-2.572A10.8,10.8,0,0,1,40,3.8c4.1,4.1,4.395,9.747.707,13.435l-1.415,1.414A8.557,8.557,0,0,1,33.194,21.248Zm-.553-18.76A6.493,6.493,0,0,0,27.976,4.5L26.562,5.918c-2.915,2.914-2.624,7.276.706,10.607a8.822,8.822,0,0,0,5.386,2.7,6.461,6.461,0,0,0,5.22-1.993l1.415-1.414C42.2,12.9,41.913,8.542,38.582,5.212a8.811,8.811,0,0,0-5.386-2.7C33.01,2.5,32.825,2.488,32.641,2.488Z"/><path class="cls-1" d="M37.6,18.827c-2.288,0-5.379-1.593-8.209-4.424a17.134,17.134,0,0,1-3.9-5.676c-.819-2.127-.69-3.878.362-4.93l1.414,1.414c-.439.439-.4,1.511.09,2.8a15.138,15.138,0,0,0,3.446,4.98c3.452,3.454,6.913,4.4,7.777,3.537l1.414,1.414A3.273,3.273,0,0,1,37.6,18.827Z"/><path class="cls-1" d="M11.505,36.639a2.442,2.442,0,0,1-1.75-.7L7.2,33.419a2.785,2.785,0,0,1,.138-3.9l12.967-13.4v-1.3l2.435-3.782,1.681,1.083-2.116,3.287V16.93L8.782,30.9A.836.836,0,0,0,8.609,32l2.555,2.517c.2.2.727.142,1.128-.239L26.886,21.207H28.4l3.218-1.985,1.05,1.7-3.7,2.283H27.65l-14,12.542A3.142,3.142,0,0,1,11.505,36.639Z"/><path class="cls-1" d="M12.5,47.509a6.282,6.282,0,0,1-4.455-1.842l-1.5-1.505a6.307,6.307,0,0,1,0-8.91L8.293,33.5l1.414,1.414L7.955,36.667a4.3,4.3,0,0,0,0,6.081l1.5,1.5a4.306,4.306,0,0,0,6.082,0l12-12a6.3,6.3,0,0,1,8.914,8.914l-3.252,3.252L31.793,43l3.252-3.252a4.3,4.3,0,0,0-6.086-6.086l-12,12.005A6.282,6.282,0,0,1,12.5,47.509Z"/></svg>