<svg id="Layer_1" data-name="Layer 1" xmlns="http://www.w3.org/2000/svg" viewBox="0 0 48 48"><defs><style>.cls-1{fill:#f05b4e;}</style></defs><title>Kitchen</title><path class="cls-1" d="M39.5,47.454a3.87,3.87,0,0,1-4-4c0-1.214.781-18.277.965-22.252-2.632-.934-3.965-3.535-3.965-7.748,0-5.665,2.993-12,7-12s7,6.335,7,12c0,4.213-1.333,6.814-3.965,7.748.184,3.975.965,21.038.965,22.252A3.87,3.87,0,0,1,39.5,47.454Zm0-44c-2.43,0-5,5.14-5,10,0,4.8,1.828,5.736,3.2,6.02l.836.173L38.5,20.5c-.346,7.484-1,21.914-1,22.954a2,2,0,1,0,4,0c0-1.04-.653-15.47-1-22.954l-.039-.853.836-.173c1.374-.284,3.2-1.218,3.2-6.02C44.5,8.594,41.93,3.454,39.5,3.454Z"/><rect class="cls-1" x="19.5" y="1.454" width="2" height="12"/><rect class="cls-1" x="23.5" y="1.454" width="2" height="12"/><path class="cls-1" d="M22.5,47.546a4,4,0,0,1-4-4.092l.971-23.307-.206-.065c-2.133-.675-3.765-1.591-3.765-6.628v-12h2v12c0,3.972.891,4.254,2.367,4.72.333.106.674.215,1.015.355l.646.267L20.5,43.5a2,2,0,1,0,4-.041L23.472,18.8l.646-.267c.341-.14.682-.249,1.015-.355,1.476-.466,2.367-.748,2.367-4.72v-12h2v12c0,5.037-1.632,5.953-3.765,6.628l-.206.065.97,23.265A4.012,4.012,0,0,1,22.5,47.546Z"/><path class="cls-1" d="M7.5,47.454a4,4,0,0,1-4-4l.961-13.491L1.5,27.989V11.454c0-8.919,8.8-9.985,8.892-10L11.5,1.338V43.454A4,4,0,0,1,7.5,47.454Zm-4-20.536,3.039,2.026L5.5,43.525a2,2,0,0,0,4-.071V3.678a7.667,7.667,0,0,0-6,7.776Z"/></svg>