<svg id="Layer_1" data-name="Layer 1" xmlns="http://www.w3.org/2000/svg" viewBox="0 0 48 48"><defs><style>.cls-1{fill:#f05b4e;}</style></defs><title>Laundry</title><path class="cls-1" d="M36.433,32.355,35.69,30.5l8.3-3.319c-2.288-4.863-4.89-9.915-5.65-10.658-.2-.092-.51-.24-.888-.42-1.219-.583-3.32-1.589-4.661-2.058-2.379,3.58-5.333,5.393-8.788,5.393s-6.409-1.813-8.788-5.393c-1.341.469-3.442,1.475-4.661,2.058-.378.18-.686.328-.888.42-.76.743-3.362,5.795-5.65,10.658l8.3,3.319-.743,1.857L2.288,28.644a1,1,0,0,1-.536-1.35c2.482-5.348,5.7-11.862,6.93-12.522.249-.113.58-.272,1.006-.476a37.685,37.685,0,0,1,5.735-2.4,1,1,0,0,1,1.08.453c2.06,3.376,4.582,5.088,7.5,5.088s5.438-1.712,7.5-5.088a1,1,0,0,1,1.08-.453,37.731,37.731,0,0,1,5.736,2.4c.425.2.756.363.934.441,1.3.7,4.519,7.209,7,12.557a1,1,0,0,1-.536,1.35Z"/><path class="cls-1" d="M36.062,46.344H11.938a1,1,0,0,1-1-1V26.787h2V44.344H35.062V26.787h2V45.344A1,1,0,0,1,36.062,46.344Z"/><polygon class="cls-1" points="17.061 16.044 16.094 14.294 24 9.923 31.905 14.293 30.938 16.043 24 12.208 17.061 16.044"/><path class="cls-1" d="M25,11.014H23v-.876c0-.659-.244-.924-1.214-1.625a3.787,3.787,0,1,1,6-3.079,3.69,3.69,0,0,1-.215,1.248l-1.886-.666a1.7,1.7,0,0,0,.1-.582,1.772,1.772,0,0,0-.634-1.361,1.786,1.786,0,1,0-2.191,2.819A3.83,3.83,0,0,1,25,10.138Z"/></svg>