<svg id="Layer_1" data-name="Layer 1" xmlns="http://www.w3.org/2000/svg" viewBox="0 0 48 48"><defs><style>.cls-1{fill:#f05b4e;}</style></defs><title>Loan</title><path class="cls-1" d="M21,47.061c-10.641,0-17-4.86-17-13,.01-8.163,9.312-17.912,13.31-21.724l1.38,1.447C10.75,21.355,6.006,28.935,6,34.062c0,9.927,10.492,11,15,11,4.791,0,8.7-1.049,11.3-3.032a9.814,9.814,0,0,0,.812-.69l1.376,1.452a12.111,12.111,0,0,1-.975.828C30.559,45.871,26.232,47.061,21,47.061ZM33.478,25.592c-2.394-4.134-6.3-8.118-10.168-11.808l1.38-1.447c4.593,4.383,8.139,8.143,10.518,12.252Z"/><path class="cls-1" d="M22,37.061H20a3,3,0,0,1-3-3v-1h2v1a1,1,0,0,0,1,1h2a1,1,0,0,0,1-1V32.5a1,1,0,0,0-.684-.948l-3.265-1.089A3,3,0,0,1,17,27.619V26.061a3,3,0,0,1,3-3h2a3,3,0,0,1,3,3v1H23v-1a1,1,0,0,0-1-1H20a1,1,0,0,0-1,1v1.558a1,1,0,0,0,.684.949l3.265,1.088A3,3,0,0,1,25,32.5v1.559A3,3,0,0,1,22,37.061Z"/><rect class="cls-1" x="20" y="21.061" width="2" height="3"/><rect class="cls-1" x="20" y="36.061" width="2" height="3"/><path class="cls-1" d="M21,15.061c-.959,0-3.138-.434-3.825-1.435l-.063-.1c-4.746-9.146-4.628-9.373-4.345-9.92,1.96-3.785,6.214-2.626,8.5-2a16.984,16.984,0,0,0,5.922.843l1.206-.049.057.979c.071,1.2-2.18,6.826-3.527,10.074l-.069.134C24.184,14.688,21.927,15.061,21,15.061Zm-2.16-2.553a5.191,5.191,0,0,0,2.16.553,4.934,4.934,0,0,0,2.138-.532C24.391,9.5,25.677,6.156,26.206,4.46a22.824,22.824,0,0,1-5.465-.934c-2.97-.807-4.939-.954-6.008.67C15.2,5.342,17.079,9.111,18.84,12.508Z"/><rect class="cls-1" x="32" y="27.061" width="11" height="2"/><polygon class="cls-1" points="39.707 32.768 38.293 31.354 41.586 28.061 38.293 24.768 39.707 23.354 44.414 28.061 39.707 32.768"/><rect class="cls-1" x="32" y="36.061" width="11" height="2"/><polygon class="cls-1" points="35.293 41.768 30.586 37.061 35.293 32.354 36.707 33.768 33.414 37.061 36.707 40.354 35.293 41.768"/></svg>