<svg id="Layer_1" data-name="Layer 1" xmlns="http://www.w3.org/2000/svg" viewBox="0 0 48 48"><defs><style>.cls-1{fill:#f05b4e;}</style></defs><title>Lounge-area</title><path class="cls-1" d="M24.258,48C20,48,17.329,46.76,14.5,45.447l-.394-.182c-1.144-.529-2.252-1.039-3.465-1.5a36.752,36.752,0,0,0-9.7-1.74L0,41.97v-9.5L2.2,31,0,29.535V21.586L1.586,20,0,18.414V8H48V27.414L46.414,29,48,30.586V41.97l-.938.057a33.025,33.025,0,0,0-9.182,1.739c-1.246.473-2.375,1-3.467,1.5l-.4.183C31.185,46.761,28.511,48,24.258,48ZM2,40.1a35.793,35.793,0,0,1,9.347,1.8c1.278.484,2.418,1.01,3.521,1.519l.47.218C18.078,44.9,20.444,46,24.258,46s6.177-1.1,8.916-2.365l.4-.186c1.123-.518,2.285-1.054,3.595-1.553A33.561,33.561,0,0,1,46,40.1V31.414L43.586,29,46,26.586V10H2v7.586L4.414,20,2,22.414v6.051L5.8,31,2,33.535Z"/><rect class="cls-1" y="2" width="48" height="2"/><rect class="cls-1" x="7" width="2" height="12"/><rect class="cls-1" x="39" width="2" height="12"/><path class="cls-1" d="M29,39H16a2,2,0,0,1-2-2V23h2V37H29V23h2V37A2,2,0,0,1,29,39Z"/><rect class="cls-1" x="19" y="23" width="2" height="11"/><rect class="cls-1" x="24" y="23" width="2" height="11"/><path class="cls-1" d="M33.415,35H29V24h5a3,3,0,0,1,3,3v3.172a2.978,2.978,0,0,1-.879,2.121ZM31,33h1.586l2.121-2.121A1.009,1.009,0,0,0,35,30.172V27a1,1,0,0,0-1-1H31Z"/><path class="cls-1" d="M32,21H30V19.722a2.7,2.7,0,0,0-1.531-2.458,2.984,2.984,0,0,0-3.144.452,1,1,0,0,1-1.647-.455A2.673,2.673,0,0,0,21,15c-1.822,0-3,.785-3,2a1,1,0,0,1-1,1,2.045,2.045,0,0,0-2,2v1H13V20a4.078,4.078,0,0,1,3.117-3.91C16.538,14.473,18.1,13,21,13a4.461,4.461,0,0,1,4.114,2.482,4.931,4.931,0,0,1,4.194-.034A4.7,4.7,0,0,1,32,19.722Z"/></svg>