<svg id="Layer_1" data-name="Layer 1" xmlns="http://www.w3.org/2000/svg" viewBox="0 0 48 48"><defs><style>.cls-1{fill:#f05b4e;}</style></defs><title>Maintenance</title><path class="cls-1" d="M30.6,24.075l-1.414-1.414,4.754-4.754a2.051,2.051,0,0,1,2.139-.472,6.56,6.56,0,0,0,7.129-1.469,7.3,7.3,0,0,0,2.021-6.447l-3.538,3.464a2.038,2.038,0,0,1-2.879,0l-2.932-2.931a2.04,2.04,0,0,1,0-2.879L39.348,3.7A7.083,7.083,0,0,0,32.9,5.656a6.561,6.561,0,0,0-1.47,7.129,2.049,2.049,0,0,1-.472,2.14L26.2,19.678l-1.414-1.414L29.54,13.51a8.654,8.654,0,0,1,1.941-9.268A9.306,9.306,0,0,1,39.7,1.667a2.013,2.013,0,0,1,1.57,1.387,2.039,2.039,0,0,1-.5,2.061l-3.47,3.471,2.931,2.983L43.746,8.1a2.037,2.037,0,0,1,2.061-.5,2.015,2.015,0,0,1,1.387,1.57,9.3,9.3,0,0,1-2.575,8.214,8.581,8.581,0,0,1-9.2,1.945Z"/><path class="cls-1" d="M6.49,46.478a4.108,4.108,0,0,1-2.9-7.013l14.7-14.7L19.7,26.176,5,40.879a2.109,2.109,0,0,0,2.982,2.983L22.6,29.245l1.414,1.414L9.4,45.276A4.1,4.1,0,0,1,6.49,46.478Z"/><rect class="cls-1" x="19.948" y="14.003" width="2" height="21.309" transform="translate(-11.3 22.034) rotate(-45)"/><path class="cls-1" d="M38.883,45.944h0a1,1,0,0,1-.707-.293l-.588-.588a1.011,1.011,0,0,1-.241-.391l-.513-1.539L28.951,35.25a1.028,1.028,0,0,1-.188-.26l-1.176-2.351a1,1,0,0,1,.185-1.152l2.811-2.833L16.233,14.3l1.414-1.414L32.6,27.843l2.206,1.1a1,1,0,0,1,.259.188l7.884,7.883,1.539.513a1.013,1.013,0,0,1,.391.242l.588.588a1,1,0,0,1,0,1.414L39.59,45.651A1,1,0,0,1,38.883,45.944Zm-8.4-11.994,7.936,7.936a1.009,1.009,0,0,1,.242.39l.37,1.11L43.2,39.21l-1.111-.37a1,1,0,0,1-.39-.242l-7.936-7.935-1.577-.789L29.7,32.386Z"/><path class="cls-1" d="M6.361,22.825a1,1,0,0,1-.707-.293l-4.7-4.7a1,1,0,0,1,0-1.414l1.763-1.764a3.387,3.387,0,0,1,2.391-.87c.581-.035.895-.065,1.135-.3a2.618,2.618,0,0,0,.279-1.126,3.849,3.849,0,0,1,.9-2.4l3.527-3.526a15.845,15.845,0,0,1,11.965-4.4,1,1,0,0,1,.9.886,18.586,18.586,0,0,1,0,2.521,1,1,0,0,1-.975.94c-.969.022-3,1.037-5.78,3.821-.7.694.353,2.381.671,2.8a1,1,0,0,1-.084,1.319l-3.526,3.527a1,1,0,0,1-.707.293h0a1,1,0,0,1-.707-.293,2.677,2.677,0,0,0-1.773-.915,1.44,1.44,0,0,0-.927.327c-.239.238-.21.779-.184,1.257a2.052,2.052,0,0,1-.4,1.681L7.068,22.532A.993.993,0,0,1,6.361,22.825Zm-3.287-5.7,3.287,3.287,1.478-1.478c0-.1-.007-.224-.013-.326a3.441,3.441,0,0,1,.767-2.778,3.292,3.292,0,0,1,2.37-.913,4.186,4.186,0,0,1,2.4.849l2.292-2.293c-.79-1.345-1.376-3.326,0-4.7,1.418-1.419,3.957-3.685,6.206-4.268,0-.174.006-.358.006-.538a14.122,14.122,0,0,0-9.5,3.869L8.832,11.365a2.507,2.507,0,0,0-.326,1.229,3.653,3.653,0,0,1-.85,2.3,3.43,3.43,0,0,1-2.427.887c-.568.035-.875.063-1.1.288Z"/></svg>