<svg id="Layer_1" data-name="Layer 1" xmlns="http://www.w3.org/2000/svg" viewBox="0 0 48 48"><defs><style>.cls-1,.cls-2{fill:none;stroke:#054d7f;stroke-linecap:round;stroke-width:0.591px;}.cls-1{stroke-miterlimit:10;}.cls-2{stroke-linejoin:round;}.cls-3{fill:#fff;}</style></defs><title>management service</title><path class="cls-1" d="M29.692,24.749a76.064,76.064,0,0,1,7.841,4.826,6,6,0,0,1,1.319,1.5,6.656,6.656,0,0,1,.969,3.542v5.448H8.179"/><path class="cls-1" d="M18.308,24.749a76.064,76.064,0,0,0-7.841,4.826,6,6,0,0,0-1.319,1.5,6.656,6.656,0,0,0-.969,3.542v5.448"/><ellipse class="cls-1" cx="24" cy="17.829" rx="7.965" ry="9.893"/><polygon class="cls-2" points="24 31.203 27.754 33.811 27.754 31.203 27.754 28.595 24 31.203"/><polygon class="cls-2" points="24 31.203 20.246 33.811 20.246 31.203 20.246 28.595 24 31.203"/><path class="cls-1" d="M17.472,12.142A6.106,6.106,0,0,0,20.359,13.7a4.371,4.371,0,0,0,3.13-.364,6.745,6.745,0,0,0,1.928-1.994"/><path class="cls-1" d="M23.916,13.108a3.862,3.862,0,0,0,5.736.071"/><path class="cls-3" d="M38.266,34.616a5.1,5.1,0,0,0-.732-2.717,4.443,4.443,0,0,0-.976-1.113,30.414,30.414,0,0,0-2.837-1.916c.053.122.108.242.164.362a15.53,15.53,0,0,1,1.092,2.582,3.58,3.58,0,0,1-.236,2.725A4.208,4.208,0,0,1,32.269,36.2a16.076,16.076,0,0,0-2.887.957,4.517,4.517,0,0,0-1.522,1.354H38.266Z"/></svg>