<svg id="Layer_1" data-name="Layer 1" xmlns="http://www.w3.org/2000/svg" viewBox="0 0 48 48"><defs><style>.cls-1{fill:#f05b4e;}</style></defs><title>Meeting-room</title><path class="cls-1" d="M34,19H32V17.78c0-2.229-5.19-3.794-8-3.794s-8,1.565-8,3.794V19H14V17.78c0-4.127,7.057-5.794,10-5.794s10,1.667,10,5.794Z"/><path class="cls-1" d="M21.813,48H17.381a1,1,0,0,1-.952-.7L13.455,38H7.794A5.8,5.8,0,0,1,2,32.209V20.2A4.2,4.2,0,0,1,6.2,16h.152A8.029,8.029,0,0,1,12.2,18.548L15.419,22H21a1,1,0,0,1,1,1.086C21.85,24.789,20.616,28,17,28H11.788a1,1,0,0,1-.715-.3L11,27.627V30h3.984A5.007,5.007,0,0,1,19.7,33.358a.815.815,0,0,1,.031.107l3.059,13.314A1,1,0,0,1,21.813,48Zm-3.7-2h2.447L17.794,33.971A3.005,3.005,0,0,0,14.984,32H10a1,1,0,0,1-1-1V25.584L6.185,22.707l1.429-1.4L12.209,26H17a2.806,2.806,0,0,0,2.744-2h-4.76a1,1,0,0,1-.731-.318l-3.517-3.774A6.021,6.021,0,0,0,6.347,18H6.2A2.2,2.2,0,0,0,4,20.2V32.209A3.8,3.8,0,0,0,7.794,36h6.392a1,1,0,0,1,.952.7Z"/><path class="cls-1" d="M9,15a5.067,5.067,0,0,1-5-5V9A5.07,5.07,0,0,1,9,4,5.07,5.07,0,0,1,14,9v1A5.067,5.067,0,0,1,9,15ZM9,6A3.044,3.044,0,0,0,6,9v1a3,3,0,0,0,6,0V9A3.044,3.044,0,0,0,9,6Z"/><path class="cls-1" d="M30.432,48H26a1,1,0,0,1-.975-1.224l3.059-13.314c.008-.036.019-.071.03-.107A5.006,5.006,0,0,1,32.829,30H37V27.441l-.268.268a1,1,0,0,1-.708.294H31c-3.616,0-4.85-3.214-5-4.914A1,1,0,0,1,27,22h5.4l3.219-3.455A8.029,8.029,0,0,1,41.466,16h.151A4.349,4.349,0,0,1,46,20.2V32.209A5.968,5.968,0,0,1,40.02,38H34.358l-2.974,9.305A1,1,0,0,1,30.432,48Zm-3.176-2H29.7l2.975-9.3a1,1,0,0,1,.952-.7H40.02A3.942,3.942,0,0,0,44,32.209V20.2A2.354,2.354,0,0,0,41.617,18h-.151a6.021,6.021,0,0,0-4.389,1.908l-3.516,3.774a1,1,0,0,1-.732.318H28.256A2.806,2.806,0,0,0,31,26h4.609l4.69-4.7,1.416,1.412L39,25.436V31a1,1,0,0,1-1,1H32.829A3,3,0,0,0,30.02,33.97Z"/><path class="cls-1" d="M39,15a5.067,5.067,0,0,1-5-5V9A5,5,0,1,1,44,9v1A5.067,5.067,0,0,1,39,15ZM39,6A3.044,3.044,0,0,0,36,9v1a3,3,0,0,0,6,0V9A3.044,3.044,0,0,0,39,6Z"/><rect class="cls-1" x="10" y="26.003" width="28" height="2"/><path class="cls-1" d="M24,11a5.067,5.067,0,0,1-5-5V5A5,5,0,1,1,29,5V6A5.067,5.067,0,0,1,24,11ZM24,2A3.044,3.044,0,0,0,21,5V6a3,3,0,0,0,6,0V5A3.044,3.044,0,0,0,24,2Z"/></svg>