<svg id="Layer_1" data-name="Layer 1" xmlns="http://www.w3.org/2000/svg" viewBox="0 0 48 48"><defs><style>.cls-1{fill:#f05b4e;}.cls-2{fill:#054d7f;}</style></defs><title>Other</title><path class="cls-1" d="M23.965,41.22A17.057,17.057,0,1,1,41.021,24.163,17.077,17.077,0,0,1,23.965,41.22Zm0-32.114A15.057,15.057,0,1,0,39.021,24.163,15.075,15.075,0,0,0,23.965,9.106Z"/><path class="cls-2" d="M23.005,12.7a11.62,11.62,0,0,0-10.68,10.47h-.92a12.546,12.546,0,0,1,11.58-11.38C22.985,12.132,23,12.442,23.005,12.7Z"/><path class="cls-2" d="M22.985,11.792a12.546,12.546,0,0,0-11.58,11.38h.92A11.62,11.62,0,0,1,23.005,12.7c-.01-.26-.02-.57-.02-.91Z"/><path class="cls-2" d="M24.924,12.7A11.62,11.62,0,0,1,35.6,23.172h.92a12.546,12.546,0,0,0-11.58-11.38C24.944,12.132,24.934,12.442,24.924,12.7Z"/><path class="cls-2" d="M24.944,11.792c0,.34-.01.65-.02.91A11.62,11.62,0,0,1,35.6,23.172h.92a12.546,12.546,0,0,0-11.58-11.38Z"/><path class="cls-2" d="M23.005,35.624a11.62,11.62,0,0,1-10.68-10.47h-.92a12.546,12.546,0,0,0,11.58,11.38C22.985,36.194,23,35.884,23.005,35.624Z"/><path class="cls-2" d="M12.325,25.154h-.92a12.546,12.546,0,0,0,11.58,11.38c0-.34.01-.65.02-.91a11.62,11.62,0,0,1-10.68-10.47Z"/><path class="cls-2" d="M24.924,35.624A11.62,11.62,0,0,0,35.6,25.154h.92a12.546,12.546,0,0,1-11.58,11.38C24.944,36.194,24.934,35.884,24.924,35.624Z"/><path class="cls-2" d="M36.524,25.154H35.6a11.62,11.62,0,0,1-10.68,10.47c.01.26.02.57.02.91a12.546,12.546,0,0,0,11.58-11.38Z"/></svg>