<svg id="Layer_1" data-name="Layer 1" xmlns="http://www.w3.org/2000/svg" viewBox="0 0 48 48"><defs><style>.cls-1{fill:#f05b4e;}</style></defs><title>Outdoor-space</title><polygon class="cls-1" points="30.775 46.124 28.775 46.124 28.775 45.317 21.935 30.66 8.136 30.66 8.136 46.124 6.136 46.124 6.136 28.66 23.208 28.66 30.775 44.873 30.775 46.124"/><path class="cls-1" d="M34.892,40.951H15.368A4.327,4.327,0,0,1,11.4,38.81l-.076-.107L1.7,23.549C.15,21.22.756,19.47,1.846,18.615A3.235,3.235,0,0,1,4.5,17.8c1.307.24,2.463,1.378,3.993,3.927,4.087,6.622,6.58,10.671,7.437,12.08H28.746c4.078,0,6.146,1.375,6.146,4.087ZM4.015,19.752a1.592,1.592,0,0,0-.934.435c-.72.565-.03,1.776.3,2.271l9.655,15.208a2.378,2.378,0,0,0,2.332,1.285H32.892V37.892c0-.678,0-2.087-4.146-2.087h-14l-.275-.558c-.183-.318-4.7-7.644-7.684-12.482-.425-.707-1.7-2.825-2.647-3A.634.634,0,0,0,4.015,19.752Z"/><path class="cls-1" d="M39.036,24.486H33.892v-2h5.144a6.2,6.2,0,1,0-.779-12.352l-1.124.141,0-1.235a6.2,6.2,0,0,0-12.408.038v.883l-.873.172a6.2,6.2,0,0,0,.774,12.353h3.087v2H24.63A8.2,8.2,0,0,1,22.773,8.3a8.2,8.2,0,0,1,16.3-.218,8.2,8.2,0,0,1-.039,16.408Z"/><rect class="cls-1" x="29.804" y="8.05" width="2" height="24.696"/><rect class="cls-1" x="29.738" y="17.855" width="7.276" height="2" transform="translate(-3.557 29.123) rotate(-45)"/><rect class="cls-1" x="27.232" y="11.101" width="2" height="7.275" transform="translate(-2.153 24.279) rotate(-45)"/><rect class="cls-1" x="22.571" y="28.66" width="5.146" height="2"/></svg>