<svg id="Layer_1" data-name="Layer 1" xmlns="http://www.w3.org/2000/svg" viewBox="0 0 48 48"><defs><style>.cls-1{fill:#f05b4e;}</style></defs><title>Oven</title><path class="cls-1" d="M48,38.5H0V6.5H48Zm-46-2H46V8.5H2Z"/><path class="cls-1" d="M24.414,33.5H9.586L8.563,32.478C6.087,32.229,4,29.924,4,28.5v-3H30v3c0,1.424-2.087,3.729-4.563,3.978Zm-14-2H23.586l1-1H25a3.645,3.645,0,0,0,3-2.028V27.5H6v1a3.678,3.678,0,0,0,3,2h.414Z"/><path class="cls-1" d="M40,34.5a4,4,0,1,1,4-4A4,4,0,0,1,40,34.5Zm0-6a2,2,0,1,0,2,2A2,2,0,0,0,40,28.5Z"/><path class="cls-1" d="M40,25.5a4,4,0,1,1,4-4A4,4,0,0,1,40,25.5Zm0-6a2,2,0,1,0,2,2A2,2,0,0,0,40,19.5Z"/><rect class="cls-1" x="32" y="7.5" width="2" height="30"/><rect class="cls-1" x="4" y="39.5" width="7" height="2"/><rect class="cls-1" x="37" y="39.5" width="7" height="2"/></svg>