<svg id="Layer_1" data-name="Layer 1" xmlns="http://www.w3.org/2000/svg" viewBox="0 0 48 48"><defs><style>.cls-1{fill:#f05b4e;}</style></defs><title>Pet-friendly</title><path class="cls-1" d="M39,48H17a1,1,0,0,1-1-1V45a3,3,0,0,1,3-3h4.141c-1.285-2.115-3.113-5.814-2.067-8.378.968-2.374,3.392-4.841,9.434-3.117a1,1,0,0,1-.549,1.924c-5.587-1.6-6.676,1.073-7.033,1.949-.877,2.147,1.855,6.63,2.881,8.031A1,1,0,0,1,25,44H19a1,1,0,0,0-1,1v1H38.643c.987-.815,4.343-3.59,5.709-4.76a1.42,1.42,0,0,0,.325-2.086c-.2-.251-.68-.646-1.083-.348-1.723,1.265-3.985,2.988-3.987,2.99A1,1,0,0,1,38,41V40c0-8.728-1.993-10.658-4.1-12.7-.2-.194-.4-.391-.6-.592l-8-8a1,1,0,0,1,1.414-1.414l8,8c.193.193.388.382.582.569,2.232,2.163,4.539,4.4,4.7,13.134.744-.56,1.635-1.227,2.417-1.8a2.746,2.746,0,0,1,3.833.716,3.392,3.392,0,0,1-.591,4.85c-1.615,1.384-5.97,4.975-6.013,5.012A1.008,1.008,0,0,1,39,48Z"/><path class="cls-1" d="M14,48H9a1,1,0,0,1-1-1V45a3,3,0,0,1,2.226-2.9l2.634-8.784C8.769,29.544,8,26.844,8,23c0-2.889,1.224-7.472,1.781-9.407-2.612-1.023-5.6-2.105-7.121-2.652a1,1,0,0,1-.633-.709A29.906,29.906,0,0,1,1,5,2.812,2.812,0,0,1,4,2H8.574c.209-.216.494-.5.755-.739A5.134,5.134,0,0,1,13,0c1.938,0,6.667.829,8.578,2.185C24.556,4.294,26,7.832,26,13a5.005,5.005,0,0,1-5.957,4.911A5.065,5.065,0,0,1,16,12.821a14.9,14.9,0,0,1,1.111-6.28,1,1,0,0,1,1.781.912A13.477,13.477,0,0,0,18,12.835a3.1,3.1,0,0,0,2.41,3.109,2.968,2.968,0,0,0,2.505-.634A3,3,0,0,0,24,13c0-4.473-1.171-7.476-3.578-9.184C19.034,2.831,14.877,2,13,2a3.14,3.14,0,0,0-2.327.74c-.431.392-.941.941-.941.941A1,1,0,0,1,9,4H4c-.617,0-1,.167-1,1A28.8,28.8,0,0,0,3.85,9.243c1.824.66,4.967,1.806,7.523,2.828a1,1,0,0,1,.577,1.246C11.934,13.369,10,19.652,10,23c0,3.089.324,5.4,4.664,9.252a1,1,0,0,1,.294,1.035l-3,10A1,1,0,0,1,11,44a1,1,0,0,0-1,1v1h4a1,1,0,1,1,0,2Z"/></svg>