<svg id="Layer_1" data-name="Layer 1" xmlns="http://www.w3.org/2000/svg" viewBox="0 0 48 48"><defs><style>.cls-1{fill:#f05b4e;}</style></defs><title>Play-station</title><path class="cls-1" d="M43.714,44.717H4.286A3.194,3.194,0,0,1,1.1,41.526V33.882h2v7.644a1.192,1.192,0,0,0,1.19,1.191H43.714a1.192,1.192,0,0,0,1.19-1.191V33.882h2v7.644A3.194,3.194,0,0,1,43.714,44.717Z"/><rect class="cls-1" x="2.096" y="33.973" width="43.809" height="2"/><rect class="cls-1" x="6.477" y="39.449" width="2.19" height="2"/><rect class="cls-1" x="10.857" y="39.449" width="2.19" height="2"/><rect class="cls-1" x="15.238" y="39.449" width="2.19" height="2"/><path class="cls-1" d="M23.736,21.53a3.4,3.4,0,1,1,3.4-3.4A3.4,3.4,0,0,1,23.736,21.53Zm0-5.548a2.149,2.149,0,1,0,2.149,2.15A2.151,2.151,0,0,0,23.736,15.982Z"/><path class="cls-1" d="M16.16,29.248a3.157,3.157,0,0,1-.923-.128c-.555-.172-2.328-.979-1.817-4.159.076-.472.188-1.247.326-2.184.29-1.985.687-4.705,1.061-6.829l1.23.217c-.37,2.106-.766,4.814-1.055,6.793-.137.944-.252,1.726-.328,2.2-.24,1.5.107,2.506.952,2.768a2.546,2.546,0,0,0,2.745-1.114c.5-.731,2.11-3.5,2.743-4.8l1.123.548c-.673,1.375-2.316,4.193-2.816,4.926A3.761,3.761,0,0,1,16.16,29.248Z"/><rect class="cls-1" x="24.426" y="9.199" width="10.389" height="1.25"/><rect class="cls-1" x="26.503" y="17.51" width="5.541" height="1.25"/><path class="cls-1" d="M22.28,5.668H21.03c0-.412-.258-.76-.562-.76H18.687c-.3,0-.562.348-.562.76h-1.25a1.921,1.921,0,0,1,1.812-2.01h1.781A1.921,1.921,0,0,1,22.28,5.668Z"/><rect class="cls-1" x="18.952" y="10.517" width="1.25" height="4.155"/><rect class="cls-1" x="17.5" y="11.969" width="4.155" height="1.25"/><path class="cls-1" d="M19.577,18.76a6.162,6.162,0,1,1,5.058-2.637l-1.026-.717a4.915,4.915,0,1,0-4.032,2.1,4.946,4.946,0,0,0,1.4-.2l.358,1.2A6.157,6.157,0,0,1,19.577,18.76Z"/><path class="cls-1" d="M35.517,21.53a3.4,3.4,0,1,1,3.4-3.4A3.4,3.4,0,0,1,35.517,21.53Zm0-5.548a2.149,2.149,0,1,0,2.148,2.15A2.152,2.152,0,0,0,35.517,15.982Z"/><path class="cls-1" d="M43.1,29.248a3.785,3.785,0,0,1-3.262-1.786c-.485-.709-2.128-3.527-2.8-4.9l1.123-.548c.666,1.363,2.289,4.13,2.726,4.769a2.549,2.549,0,0,0,2.761,1.142c.846-.263,1.193-1.271.953-2.767-.078-.482-.194-1.275-.334-2.235-.287-1.969-.682-4.665-1.05-6.76l1.23-.217c.372,2.113.768,4.82,1.057,6.8.139.952.254,1.739.331,2.217.511,3.18-1.263,3.987-1.818,4.159A3.129,3.129,0,0,1,43.1,29.248Z"/><path class="cls-1" d="M42.378,5.668h-1.25c0-.412-.258-.76-.563-.76H38.784c-.3,0-.561.348-.561.76h-1.25a1.92,1.92,0,0,1,1.811-2.01h1.781A1.922,1.922,0,0,1,42.378,5.668Z"/><rect class="cls-1" x="39.037" y="13.287" width="1.25" height="1.385"/><rect class="cls-1" x="39.037" y="10.517" width="1.25" height="1.385"/><rect class="cls-1" x="37.584" y="11.969" width="1.386" height="1.25"/><rect class="cls-1" x="40.354" y="11.969" width="1.385" height="1.25"/><path class="cls-1" d="M39.675,18.76a6.14,6.14,0,0,1-1.761-.256l.357-1.2a4.917,4.917,0,1,0-3.511-4.713,4.874,4.874,0,0,0,.884,2.812l-1.026.717a6.166,6.166,0,1,1,5.057,2.637Z"/></svg>