<svg id="Layer_1" data-name="Layer 1" xmlns="http://www.w3.org/2000/svg" viewBox="0 0 48 48"><defs><style>.cls-1{fill:#f05b4e;}</style></defs><title>Pool-table</title><path class="cls-1" d="M24,47.489A23.489,23.489,0,1,1,47.489,24,23.515,23.515,0,0,1,24,47.489ZM24,2.511A21.489,21.489,0,1,0,45.489,24,21.513,21.513,0,0,0,24,2.511Z"/><path class="cls-1" d="M19.229,35.779a12.33,12.33,0,0,1-6.2-1.646A12.675,12.675,0,0,1,7,25.69,15.179,15.179,0,0,1,8.783,14.877h0a15.177,15.177,0,0,1,8.474-6.949,12.521,12.521,0,0,1,16.354,9.441,15.186,15.186,0,0,1-1.78,10.814A14.8,14.8,0,0,1,19.229,35.779ZM21.373,9.273a11.491,11.491,0,0,0-3.506.559,13.187,13.187,0,0,0-7.352,6.045h0a13.19,13.19,0,0,0-1.559,9.389A10.7,10.7,0,0,0,14.03,32.4c5.4,3.117,12.607.778,16.068-5.217a13.185,13.185,0,0,0,1.559-9.389,10.7,10.7,0,0,0-5.074-7.135A10.358,10.358,0,0,0,21.373,9.273Z"/><path class="cls-1" d="M22.529,23.367a3.063,3.063,0,0,1-1.541-.416L18.27,21.383a3.1,3.1,0,0,1-1.132-4.225l1.57-2.718a3.094,3.094,0,0,1,4.223-1.131l2.718,1.569A3.1,3.1,0,0,1,26.78,19.1l-1.568,2.717a3.1,3.1,0,0,1-2.683,1.548ZM21.387,14.9a1.1,1.1,0,0,0-.948.545l-1.568,2.718a1.092,1.092,0,0,0,.4,1.492l2.717,1.569a1.091,1.091,0,0,0,1.491-.4L25.048,18.1a1.092,1.092,0,0,0-.4-1.492l-2.717-1.569A1.084,1.084,0,0,0,21.387,14.9Z"/><path class="cls-1" d="M18.867,29.706a3.075,3.075,0,0,1-1.54-.413h0l-2.718-1.569A3.091,3.091,0,0,1,13.478,23.5l1.568-2.718a3.1,3.1,0,0,1,4.225-1.132l2.717,1.569a3.1,3.1,0,0,1,1.132,4.223l-1.569,2.719A3.1,3.1,0,0,1,18.867,29.706Zm-.54-2.145a1.1,1.1,0,0,0,1.492-.4l1.569-2.718a1.1,1.1,0,0,0-.4-1.492L18.27,21.383a1.089,1.089,0,0,0-1.491.4L15.209,24.5a1.091,1.091,0,0,0,.4,1.491Z"/></svg>