<svg id="Layer_1" data-name="Layer 1" xmlns="http://www.w3.org/2000/svg" viewBox="0 0 48 48"><defs><style>.cls-1{fill:#f05b4e;}</style></defs><title>Pop-pans</title><path class="cls-1" d="M18.562,36.749C9.771,36.749.429,34.34.429,29.875S9.771,23,18.562,23,36.7,25.409,36.7,29.875,27.353,36.749,18.562,36.749Zm0-11.749c-10,0-16.133,2.84-16.133,4.875s6.137,4.874,16.133,4.874S34.7,31.91,34.7,29.875,28.557,25,18.562,25Z"/><path class="cls-1" d="M29.438,32.209a1.019,1.019,0,0,1-.272-.037,40.487,40.487,0,0,0-10.6-1.3,40.481,40.481,0,0,0-10.6,1.3,1,1,0,0,1-.543-1.926,42.585,42.585,0,0,1,11.147-1.371,42.577,42.577,0,0,1,11.146,1.371,1,1,0,0,1-.27,1.963Z"/><path class="cls-1" d="M18.562,42.622c-7.625,0-14.081-2.294-16.066-5.708a13.1,13.1,0,0,1-2.068-7.04,1,1,0,0,1,2,0,11.132,11.132,0,0,0,1.8,6.035c1.361,2.342,6.722,4.713,14.336,4.713a1,1,0,0,1,0,2Z"/><path class="cls-1" d="M18.562,42.622a1,1,0,1,1,0-2c7.613,0,12.975-2.371,14.335-4.713a11.132,11.132,0,0,0,1.8-6.035,1,1,0,0,1,2,0,13.1,13.1,0,0,1-2.068,7.039C32.643,40.328,26.187,42.622,18.562,42.622Z"/><path class="cls-1" d="M32.134,27.29a1,1,0,0,1-.85-1.525c2.225-3.6,3.591-5.426,6.491-6.616.248-.1.558-.247.931-.42a40.173,40.173,0,0,1,4.031-1.68l.483-.167c2.038-.7,2.352-.81,2.352-2.284,0-.089-.013-.144-.038-.161a1.461,1.461,0,0,0-1.045,0l-9.27,4.119c-2.459,1.007-3.57,2.87-4.855,5.025-.383.641-.774,1.3-1.21,1.95a1,1,0,1,1-1.664-1.109c.417-.626.791-1.253,1.156-1.865,1.346-2.257,2.738-4.591,5.788-5.841l9.319-4.136a3.334,3.334,0,0,1,2.938.222,2.127,2.127,0,0,1,.881,1.793c0,2.9-1.552,3.435-3.7,4.175l-.475.165a38.442,38.442,0,0,0-3.843,1.6c-.409.191-.749.35-1.02.46-2.381.976-3.466,2.445-5.549,5.815A1,1,0,0,1,32.134,27.29Z"/><path class="cls-1" d="M11.826,19.126a.989.989,0,0,1-.623-.219,1,1,0,0,1-.158-1.405c1.791-2.242,1.141-3.121.157-4.451-1.136-1.534-2.691-3.635.881-7.364a1,1,0,1,1,1.445,1.382c-2.406,2.513-1.771,3.371-.719,4.792,1.076,1.454,2.549,3.445-.2,6.889A1,1,0,0,1,11.826,19.126Z"/><path class="cls-1" d="M18.19,19.126a1,1,0,0,1-.781-1.624c1.791-2.242,1.14-3.121.156-4.451-1.135-1.534-2.69-3.635.882-7.364a1,1,0,1,1,1.445,1.382c-2.406,2.513-1.771,3.371-.719,4.792,1.076,1.454,2.549,3.445-.2,6.889A1,1,0,0,1,18.19,19.126Z"/><path class="cls-1" d="M24.554,19.126a1,1,0,0,1-.781-1.624c1.79-2.242,1.14-3.121.156-4.451-1.135-1.534-2.69-3.635.882-7.364a1,1,0,1,1,1.444,1.382c-2.4,2.513-1.771,3.371-.718,4.792,1.075,1.454,2.549,3.445-.2,6.889A1,1,0,0,1,24.554,19.126Z"/></svg>