<svg id="Layer_1" data-name="Layer 1" xmlns="http://www.w3.org/2000/svg" viewBox="0 0 48 48"><defs><style>.cls-1{fill:#f05b4e;}</style></defs><title>Post-delivery</title><path class="cls-1" d="M44.829,34.688H42.892v-2h1.937a.941.941,0,0,0,.938-.941V25.172c0-1.141-.706-1.141-.938-1.141H43.272l-3.584-6.45a.931.931,0,0,0-.727-.331H31.266v-2h7.7a2.94,2.94,0,0,1,2.428,1.282l3.059,5.5h.381a2.882,2.882,0,0,1,2.938,3.141v6.575A2.943,2.943,0,0,1,44.829,34.688Z"/><polygon class="cls-1" points="32.266 34.688 16.734 34.688 16.734 32.688 30.266 32.688 30.266 10.468 14.797 10.468 14.797 8.468 32.266 8.468 32.266 34.688"/><rect class="cls-1" x="4.14" y="32.688" width="4.844" height="2"/><path class="cls-1" d="M39.008,39.532a4.867,4.867,0,1,1,4.884-4.867A4.88,4.88,0,0,1,39.008,39.532Zm0-7.733a2.867,2.867,0,1,0,2.884,2.866A2.879,2.879,0,0,0,39.008,31.8Z"/><path class="cls-1" d="M12.867,39.532a4.867,4.867,0,1,1,4.884-4.867A4.881,4.881,0,0,1,12.867,39.532Zm0-7.733a2.867,2.867,0,1,0,2.884,2.866A2.879,2.879,0,0,0,12.867,31.8Z"/><rect class="cls-1" x="31.266" y="32.688" width="3.876" height="2"/><polygon class="cls-1" points="40.985 25 33.203 25 33.203 23 38.765 23 37.216 20.678 38.88 19.568 40.985 22.726 40.985 25"/><rect class="cls-1" x="1.233" y="20.094" width="16.47" height="2"/><rect class="cls-1" x="8.983" y="14.281" width="14.532" height="2"/><rect class="cls-1" x="5.108" y="14.281" width="1.938" height="2"/><rect class="cls-1" x="10.921" y="8.468" width="1.938" height="2"/></svg>