<svg id="Layer_1" data-name="Layer 1" xmlns="http://www.w3.org/2000/svg" viewBox="0 0 48 48"><defs><style>.cls-1{fill:#f05b4e;}</style></defs><title>Reception</title><path class="cls-1" d="M34,21.5H32V18.28c0-2.229-5.19-3.793-8-3.793s-8,1.564-8,3.793V21.5H14V18.28c0-4.126,7.057-5.793,10-5.793s10,1.667,10,5.793Z"/><rect class="cls-1" x="28" y="19.502" width="2" height="2"/><rect class="cls-1" x="18" y="19.502" width="2" height="2"/><path class="cls-1" d="M24,11.5a5.006,5.006,0,0,1-5-5v-1a5,5,0,1,1,10,0v1A5.006,5.006,0,0,1,24,11.5Zm0-9a3.043,3.043,0,0,0-3,3v1a3,3,0,1,0,6,0v-1A3.043,3.043,0,0,0,24,2.5Z"/><path class="cls-1" d="M47,32.5H1a1,1,0,0,1-1-1v-9a1,1,0,0,1,1-1H47a1,1,0,0,1,1,1v9A1,1,0,0,1,47,32.5Zm-45-2H46v-7H2Z"/><path class="cls-1" d="M44,47.5H4a1,1,0,0,1-1-1v-15a1,1,0,0,1,1-1H44a1,1,0,0,1,1,1v15A1,1,0,0,1,44,47.5Zm-39-2H43v-13H5Z"/></svg>