<svg id="Layer_1" data-name="Layer 1" xmlns="http://www.w3.org/2000/svg" viewBox="0 0 48 48"><defs><style>.cls-1{fill:#f05b4e;}</style></defs><title>Room-type</title><path class="cls-1" d="M44,17.5H34V15.338L36.279,8.5h5.442L44,15.338Zm-7.946-2h5.892l-1.667-5H37.721Z"/><rect class="cls-1" x="38" y="16.5" width="2" height="5"/><path class="cls-1" d="M48,29.5H34v-9H48Zm-12-2H46v-5H36Z"/><path class="cls-1" d="M48,36.5H34v-9H48Zm-12-2H46v-5H36Z"/><rect class="cls-1" x="35" y="35.5" width="2" height="3"/><rect class="cls-1" x="28" y="35.5" width="2" height="3"/><rect class="cls-1" x="2" y="35.5" width="2" height="3"/><rect class="cls-1" x="45" y="35.5" width="2" height="3"/><path class="cls-1" d="M31,20.5H29v-10H3v10H1v-10a2,2,0,0,1,2-2H29a2,2,0,0,1,2,2Z"/><path class="cls-1" d="M32,36.5H0v-11a4,4,0,0,1,4-4H28a4,4,0,0,1,4,4Zm-30-2H30v-9a2,2,0,0,0-2-2H4a2,2,0,0,0-2,2Z"/><path class="cls-1" d="M15,20.5H13v-2a1,1,0,0,0-1-1H8a1,1,0,0,0-1,1v2H5v-2a3,3,0,0,1,3-3h4a3,3,0,0,1,3,3Z"/><path class="cls-1" d="M27,20.5H25v-2a1,1,0,0,0-1-1H20a1,1,0,0,0-1,1v2H17v-2a3,3,0,0,1,3-3h4a3,3,0,0,1,3,3Z"/></svg>