<svg id="Layer_1" data-name="Layer 1" xmlns="http://www.w3.org/2000/svg" viewBox="0 0 48 48"><defs><style>.cls-1{fill:#f05b4e;}</style></defs><title>Room-size</title><path class="cls-1" d="M40,21.5H38v-5c0-.559,0-1-1.5-1s-1.5.441-1.5,1H33c0-1.368.607-3,3.5-3s3.5,1.632,3.5,3Z"/><path class="cls-1" d="M45,21.5H43v-5c0-.559,0-1-1.5-1s-1.5.441-1.5,1H38c0-1.368.607-3,3.5-3s3.5,1.632,3.5,3Z"/><rect class="cls-1" x="33" y="13.5" width="2" height="8"/><path class="cls-1" d="M48,12.5H42V10.054l.331-.3A32.325,32.325,0,0,1,45,7.588c.548-.406.774-.577.881-.771a1.384,1.384,0,0,0,.064-.948.445.445,0,0,0-.326-.274,1.672,1.672,0,0,0-1.253.052.878.878,0,0,0-.427.6L42,5.745a2.863,2.863,0,0,1,1.4-1.847,3.609,3.609,0,0,1,2.827-.209A2.429,2.429,0,0,1,47.8,5.126a3.33,3.33,0,0,1-.17,2.655A4.44,4.44,0,0,1,46.186,9.2c-.419.311-.953.7-1.665,1.3H48Z"/><polygon class="cls-1" points="24 44.558 0 36.211 0 17.789 24 9.441 30.729 11.782 30.073 13.671 24 11.558 2 19.211 2 34.789 24 42.441 46 34.789 46 23.559 48 23.559 48 36.211 24 44.558"/><polygon class="cls-1" points="4.827 34.27 4.167 32.382 24 25.44 43.831 32.381 43.171 34.269 24 27.559 4.827 34.27"/><rect class="cls-1" x="23" y="14.5" width="2" height="12"/></svg>