<svg id="Layer_1" data-name="Layer 1" xmlns="http://www.w3.org/2000/svg" viewBox="0 0 48 48"><defs><style>.cls-1{fill:#f05b4e;}</style></defs><title>Optional-sky-sports</title><path class="cls-1" d="M10.182,47.815a32.931,32.931,0,0,1-8.079-.9,1.107,1.107,0,0,1-.758-.758A37.327,37.327,0,0,1,45.9,1.6a1.105,1.105,0,0,1,.758.758A37.215,37.215,0,0,1,36.616,36.873,36.711,36.711,0,0,1,10.182,47.815ZM3.325,44.932a35,35,0,0,0,31.727-9.623A35.007,35.007,0,0,0,44.675,3.582a35.164,35.164,0,0,0-41.35,41.35Z"/><rect class="cls-1" x="10.893" y="22.834" width="26.602" height="2.212" transform="translate(-9.842 24.12) rotate(-45)"/><rect class="cls-1" x="16.449" y="26.667" width="2.212" height="7.824" transform="translate(-16.481 21.37) rotate(-45)"/><rect class="cls-1" x="20.875" y="22.24" width="2.212" height="7.825" transform="translate(-12.055 23.203) rotate(-45)"/><rect class="cls-1" x="25.301" y="17.815" width="2.212" height="7.824" transform="translate(-7.628 25.037) rotate(-45)"/><rect class="cls-1" x="29.727" y="13.389" width="2.212" height="7.824" transform="translate(-3.203 26.87) rotate(-45)"/><path class="cls-1" d="M45.942,17.458a25.6,25.6,0,0,1-8.2-5.553A24.77,24.77,0,0,1,31.428,1.569L33.549.938a22.555,22.555,0,0,0,5.755,9.4,23.424,23.424,0,0,0,7.484,5.074Z"/><path class="cls-1" d="M15.156,47.045a23.4,23.4,0,0,0-5.073-7.484A23.043,23.043,0,0,0,1.73,34.152l.752-2.082A25.244,25.244,0,0,1,11.647,38,25.591,25.591,0,0,1,17.2,46.2Z"/></svg>