<svg id="Layer_1" data-name="Layer 1" xmlns="http://www.w3.org/2000/svg" viewBox="0 0 48 48"><defs><style>.cls-1{fill:#f05b4e;}</style></defs><title>Sauna-spa</title><path class="cls-1" d="M22.922,10.986a5.312,5.312,0,1,1,5.312-5.312A5.318,5.318,0,0,1,22.922,10.986Zm0-8.624a3.312,3.312,0,1,0,3.312,3.312A3.316,3.316,0,0,0,22.922,2.362Z"/><path class="cls-1" d="M41.248,37.936a5.312,5.312,0,1,1,5.312-5.312A5.318,5.318,0,0,1,41.248,37.936Zm0-8.624a3.312,3.312,0,1,0,3.312,3.312A3.316,3.316,0,0,0,41.248,29.312Z"/><path class="cls-1" d="M42.326,46.56H34.78a1,1,0,0,1-.651-.24l-7.546-6.468a1,1,0,0,1,1.3-1.52L35.15,44.56h7.176c1.525,0,2.456-1.413,2.936-2.458l-8.436-.938a1,1,0,0,1-.682-.383c-.093-.121-2.3-2.986-3.237-4.384a5.057,5.057,0,0,0-4.82-2.773H12.142a1,1,0,0,1,0-2H28.087a7.05,7.05,0,0,1,6.482,3.66c.717,1.07,2.283,3.131,2.9,3.939l9.279,1.031a1,1,0,0,1,.859,1.237C47.557,41.7,46.3,46.56,42.326,46.56Z"/><path class="cls-1" d="M29.75,42.248H12.142a1,1,0,0,1,0-2H29.75a1,1,0,0,1,0,2Z"/><path class="cls-1" d="M12.142,47.638a1,1,0,0,1-1-1V32.546H1.362a1,1,0,0,1,0-2h10.78a1,1,0,0,1,1,1V46.638A1,1,0,0,1,12.142,47.638Z"/><path class="cls-1" d="M18.057,30.559a.986.986,0,0,1-.323-.054,1,1,0,0,1-.624-1.268l1.336-3.919a1,1,0,0,1,1.893.644L19,29.881A1,1,0,0,1,18.057,30.559Z"/><path class="cls-1" d="M25.5,30.154a4.918,4.918,0,0,1-3.029-1.118l-5.3-3.747a1,1,0,0,1-.392-.57L15.2,18.528a1,1,0,1,1,1.938-.492l1.481,5.833,5.039,3.561a2.621,2.621,0,0,0,3.693-.068L22.126,22.3a1,1,0,0,1-.283-.514c-.009-.043-.892-4.3-1.237-5.49-.2-.682-1.009-2.95-3.126-3.445-2.487-.581-3.335.116-3.843,1.345L7.526,29.043a1,1,0,1,1-1.849-.761L11.788,13.43c.992-2.4,3.061-3.25,6.148-2.529,3.174.742,4.316,3.888,4.591,4.836.314,1.085,1,4.324,1.212,5.338l5.739,5.563a1,1,0,0,1,.01,1.426l-.544.542A4.876,4.876,0,0,1,25.5,30.154Z"/></svg>