<svg id="Layer_1" data-name="Layer 1" xmlns="http://www.w3.org/2000/svg" viewBox="0 0 48 48"><defs><style>.cls-1{fill:#f05b4e;}</style></defs><title>Security</title><path class="cls-1" d="M37,46H11a3,3,0,0,1-3-3V24a3,3,0,0,1,3-3H37a3,3,0,0,1,3,3V43A3,3,0,0,1,37,46ZM11,23a1,1,0,0,0-1,1V43a1,1,0,0,0,1,1H37a1,1,0,0,0,1-1V24a1,1,0,0,0-1-1Z"/><path class="cls-1" d="M35,22H33V13a9,9,0,0,0-18,0v9H13V13a11,11,0,0,1,22,0Z"/><path class="cls-1" d="M24,41a3,3,0,0,1-3-3V34.981a4.988,4.988,0,0,1,1.814-8.843h0A4.991,4.991,0,0,1,27,34.98V38A3,3,0,0,1,24,41Zm-.733-12.915a2.989,2.989,0,0,0-.764,5.5,1,1,0,0,1,.5.864V38a1,1,0,0,0,2,0V34.445a1,1,0,0,1,.5-.864,2.983,2.983,0,0,0,.367-4.932,3.006,3.006,0,0,0-2.6-.564Z"/></svg>