<svg id="Layer_1" data-name="Layer 1" xmlns="http://www.w3.org/2000/svg" viewBox="0 0 48 48"><defs><style>.cls-1{fill:#f05b4e;}</style></defs><title>Security-alarm</title><path class="cls-1" d="M34.172,13.787H14.8a1,1,0,0,1-1-1V7.943a1,1,0,0,1,1-1H34.172a1,1,0,0,1,1,1v4.844A1,1,0,0,1,34.172,13.787Zm-18.375-2H33.172V8.943H15.8Z"/><rect class="cls-1" x="29.328" y="15.662" width="3.875" height="2"/><rect class="cls-1" x="22.547" y="15.662" width="3.875" height="2"/><rect class="cls-1" x="15.766" y="15.662" width="3.875" height="2"/><rect class="cls-1" x="29.328" y="19.537" width="3.875" height="2"/><rect class="cls-1" x="22.547" y="19.537" width="3.875" height="2"/><rect class="cls-1" x="22.547" y="23.412" width="3.875" height="2"/><rect class="cls-1" x="29.328" y="23.412" width="3.875" height="2"/><path class="cls-1" d="M30.328,47.661h-2V46.119a4.9,4.9,0,0,1,.968-2.456,5.013,5.013,0,0,0,.97-2.388V33.129a1.049,1.049,0,0,0-.938-.937H27.391a1,1,0,0,1-1-1,1.049,1.049,0,0,0-.938-.937H23.516a1,1,0,0,1-.844-.463,1.685,1.685,0,0,0-1.094-.505h-.937v2.874a1,1,0,0,1-2,0V22.474a.938.938,0,0,0-1.875,0V36.036a1,1,0,0,1-.308.721L15.163,38a.986.986,0,0,1-.808.272,1,1,0,0,1-.724-.451L11.1,33.9a1.58,1.58,0,0,0-1.335-.733,1.263,1.263,0,0,0-.651.214c1.188,2.768,2.838,6.531,3.106,6.965a14.958,14.958,0,0,0,1.338,1.528c1.43,1.519,2.239,2.419,2.239,3.28v2.511h-2V45.242a14.115,14.115,0,0,0-1.7-2,14.935,14.935,0,0,1-1.568-1.825c-.432-.674-2.739-6.041-3.436-7.669a.989.989,0,0,1-.081-.394,2.331,2.331,0,0,1,1.789-2.031,3.479,3.479,0,0,1,3.944,1.443l1.9,2.951.112-.108V22.474a2.938,2.938,0,0,1,5.875,0v4.813h.937a3.782,3.782,0,0,1,2.394.968h1.481a3.071,3.071,0,0,1,2.754,1.937h1.121a3.018,3.018,0,0,1,2.938,2.937v8.146A6.672,6.672,0,0,1,31,44.7a4.163,4.163,0,0,0-.676,1.415ZM13.814,45.284Z"/><rect class="cls-1" x="22.516" y="29.255" width="2" height="3.874"/><rect class="cls-1" x="26.391" y="31.192" width="2" height="2.906"/><path class="cls-1" d="M39.984,29.287H29.328v-2h9.656V3.13h-29V27.287H12.86v2H8.985a1,1,0,0,1-1-1V2.13a1,1,0,0,1,1-1h31a1,1,0,0,1,1,1V28.287A1,1,0,0,1,39.984,29.287Z"/></svg>