<svg id="Layer_1" data-name="Layer 1" xmlns="http://www.w3.org/2000/svg" viewBox="0 0 48 48"><defs><style>.cls-1{fill:#f05b4e;}</style></defs><title>Shower-room copy</title><path class="cls-1" d="M25.022,10.2H22.978V8.153a2.046,2.046,0,0,0-2.043-2.044H6.63V4.066H20.935a4.092,4.092,0,0,1,4.087,4.087Z"/><path class="cls-1" d="M29.109,12.239H27.065V8.153a6.137,6.137,0,0,0-6.13-6.131H6.63V-.021H20.935a8.183,8.183,0,0,1,8.174,8.174Z"/><rect class="cls-1" x="25.021" y="33.695" width="2.044" height="2.044"/><rect class="cls-1" x="25.021" y="39.826" width="2.044" height="2.043"/><rect class="cls-1" x="25.021" y="45.956" width="2.044" height="2.044"/><rect class="cls-1" x="31.471" y="33.645" width="2.043" height="2.043" transform="translate(-9.199 11.877) rotate(-18.192)"/><rect class="cls-1" x="33.383" y="39.469" width="2.043" height="2.043" transform="translate(-10.911 12.748) rotate(-18.171)"/><rect class="cls-1" x="35.296" y="45.294" width="2.043" height="2.043" transform="translate(-12.645 13.654) rotate(-18.192)"/><rect class="cls-1" x="18.573" y="33.644" width="2.043" height="2.043" transform="translate(-19.455 42.464) rotate(-71.816)"/><rect class="cls-1" x="16.661" y="39.469" width="2.043" height="2.043" transform="translate(-26.304 44.654) rotate(-71.816)"/><rect class="cls-1" x="14.748" y="45.294" width="2.043" height="2.043" transform="translate(-33.154 46.866) rotate(-71.842)"/><rect class="cls-1" x="27.065" y="15.305" width="4.087" height="2.043"/><rect class="cls-1" x="26.043" y="24.5" width="15.326" height="2.043"/><path class="cls-1" d="M41.37,30.63H10.717A1.022,1.022,0,0,1,9.7,29.609V25.522A1.022,1.022,0,0,1,10.717,24.5h.125a6.346,6.346,0,0,1,2.342-3.893c1.25-.9,5.381-3.848,6.729-4.807V13.261a2.046,2.046,0,0,1,2.044-2.043H30.13a2.046,2.046,0,0,1,2.044,2.043V15.8c1.348.959,5.479,3.9,6.729,4.807A6.127,6.127,0,0,1,41.254,24.5h.116a1.022,1.022,0,0,1,1.022,1.022v4.087A1.022,1.022,0,0,1,41.37,30.63ZM11.739,28.587H40.348V26.543a1.021,1.021,0,0,1-1.021-.981,4.358,4.358,0,0,0-1.622-3.3c-1.5-1.085-7.145-5.1-7.145-5.105a1.021,1.021,0,0,1-.43-.832V13.261H21.957v3.065a1.021,1.021,0,0,1-.43.832s-5.646,4.02-7.145,5.105A4.646,4.646,0,0,0,12.76,25.57a1.022,1.022,0,0,1-1.021.973Z"/><rect class="cls-1" x="20.935" y="15.305" width="2.043" height="2.043"/><rect class="cls-1" x="10.717" y="24.5" width="6.13" height="2.043"/></svg>