<svg id="Layer_1" data-name="Layer 1" xmlns="http://www.w3.org/2000/svg" viewBox="0 0 48 48"><defs><style>.cls-1{fill:#f05b4e;}</style></defs><title>Smoking-area</title><path class="cls-1" d="M35.937,42.867.429,22.367l4.5-7.8,35.508,20.5ZM3.161,21.635,35.2,40.135l2.5-4.33L5.661,17.305Z"/><path class="cls-1" d="M11.32,28.5a1,1,0,0,1-.865-1.5l3.5-6.062a1,1,0,1,1,1.733,1L12.188,28A1,1,0,0,1,11.32,28.5Z"/><rect class="cls-1" x="35.418" y="38.969" width="9" height="2" transform="translate(-14.654 54.56) rotate(-60.005)"/><rect class="cls-1" x="38.016" y="40.469" width="9" height="2" transform="translate(-14.654 57.56) rotate(-60.005)"/><path class="cls-1" d="M44.123,33.633a1,1,0,0,1-.865-1.5c3.828-6.631,1.2-9.639-.7-10.842a26.24,26.24,0,0,0-3.6-1.714c-3.612-1.522-8.108-3.417-9.048-7.739a7.974,7.974,0,0,1,1.679-6.7,9.517,9.517,0,0,1,7.469-3.5,1,1,0,0,1,0,2,7.628,7.628,0,0,0-5.912,2.758,5.984,5.984,0,0,0-1.281,5.023c.718,3.307,4.518,4.907,7.869,6.32A27.681,27.681,0,0,1,43.626,19.6c1.577,1,6.338,4.917,1.364,13.533A1,1,0,0,1,44.123,33.633Z"/><path class="cls-1" d="M40.495,32.633a1,1,0,0,1-.925-1.38c1.627-3.96.59-5-2.56-6.746-1.357-.753-2.837-1.421-4.406-2.129-4.451-2.009-9.053-4.085-11.016-8.325A9.72,9.72,0,0,1,22.1,5.109a1,1,0,1,1,1.7,1.047,7.78,7.78,0,0,0-.4,7.057c1.65,3.563,5.908,5.484,10.025,7.342,1.537.693,3.125,1.41,4.553,2.2,3.341,1.856,5.715,3.717,3.44,9.254A1,1,0,0,1,40.495,32.633Z"/></svg>