<svg id="Layer_1" data-name="Layer 1" xmlns="http://www.w3.org/2000/svg" viewBox="0 0 48 48"><defs><style>.cls-1{fill:#f05b4e;}</style></defs><title>Social-events</title><path class="cls-1" d="M11.272,35.916a4.913,4.913,0,0,1-1.564-.252c-3.105-1.037-4.72-4.938-3.524-8.519L10.833,12.89l11.408,3.722L17.59,30.872A7.07,7.07,0,0,1,11.272,35.916Zm.842-20.5L8.083,27.772c-.84,2.514.217,5.313,2.258,6,2.007.667,4.5-.98,5.349-3.523l4.03-12.352Z"/><path class="cls-1" d="M6.613,46.173a.988.988,0,0,1-.31-.049,1,1,0,0,1-.641-1.261L9.073,34.406a1,1,0,1,1,1.9.621L7.564,45.484A1,1,0,0,1,6.613,46.173Z"/><path class="cls-1" d="M21.229,7.327a.988.988,0,0,1-.5-.138,1,1,0,0,1-.357-1.368L23.23.942a1,1,0,1,1,1.725,1.011L22.092,6.832A1,1,0,0,1,21.229,7.327Z"/><path class="cls-1" d="M15.422,8.838a1,1,0,0,1-.505-.137L10.038,5.838A1,1,0,1,1,11.05,4.114l4.879,2.862a1,1,0,0,1-.507,1.862Z"/><path class="cls-1" d="M18.073,7.115a1,1,0,0,1-.967-.748L15.847,1.528a1,1,0,1,1,1.935-.5l1.26,4.839a1,1,0,0,1-.969,1.252Z"/><path class="cls-1" d="M11.367,47.724a1.018,1.018,0,0,1-.31-.049l-9.507-3.1a1,1,0,1,1,.621-1.9l9.507,3.1a1,1,0,0,1-.311,1.95Z"/><path class="cls-1" d="M34.5,29.343a6.257,6.257,0,0,1-2.315-.457,7.483,7.483,0,0,1-3.809-3.456L21.239,12.244l10.555-5.71,7.138,13.193c1.794,3.371.9,7.5-1.953,9.015A5.265,5.265,0,0,1,34.5,29.343ZM23.95,13.05l6.186,11.435a5.565,5.565,0,0,0,2.787,2.544,3.671,3.671,0,0,0,3.116-.053c1.861-.991,2.39-3.937,1.13-6.3L30.987,9.244Z"/><path class="cls-1" d="M41.743,38.535a1,1,0,0,1-.881-.525l-5.233-9.676a1,1,0,0,1,1.76-.951l5.233,9.676a1,1,0,0,1-.4,1.355A1.01,1.01,0,0,1,41.743,38.535Z"/><path class="cls-1" d="M37.346,40.913a1,1,0,0,1-.477-1.879l8.8-4.758a1,1,0,1,1,.951,1.76l-8.8,4.757A1,1,0,0,1,37.346,40.913Z"/><path class="cls-1" d="M18.027,26.826h-7a1,1,0,0,1,0-2h7a1,1,0,0,1,0,2Z"/><path class="cls-1" d="M37.027,19.826h-7a1,1,0,0,1,0-2h7a1,1,0,0,1,0,2Z"/></svg>