<svg id="Layer_1" data-name="Layer 1" xmlns="http://www.w3.org/2000/svg" viewBox="0 0 48 48"><defs><style>.cls-1{fill:#f05b4e;}</style></defs><title>Sofa</title><path class="cls-1" d="M42,18.5H40v-2c0-4.133-4.351-5-8-5H16c-3.649,0-8,.867-8,5v2H6v-2c0-2.1.975-7,10-7H32c9.025,0,10,4.9,10,7Z"/><path class="cls-1" d="M40,26.5H38c0-.58-2.453-2-7-2H17c-4.547,0-7,1.42-7,2H8c0-2.626,4.527-4,9-4H31C35.473,22.5,40,23.874,40,26.5Z"/><path class="cls-1" d="M46,38.5H39.382l-1-2H9.618l-1,2H2v-10a5.977,5.977,0,0,0-.812-2.228A8.547,8.547,0,0,1,0,22.5a5,5,0,0,1,10,0v7H38v-7a5,5,0,0,1,10,0,8.559,8.559,0,0,1-1.187,3.772A5.964,5.964,0,0,0,46,28.5Zm-5.382-2H44v-8a7.291,7.291,0,0,1,1.024-3.123A6.985,6.985,0,0,0,46,22.5a3,3,0,0,0-6,0v9H8v-9a3,3,0,0,0-6,0,6.985,6.985,0,0,0,.976,2.877A7.291,7.291,0,0,1,4,28.5v8H7.382l1-2H39.618Z"/></svg>