<svg id="Layer_1" data-name="Layer 1" xmlns="http://www.w3.org/2000/svg" viewBox="0 0 48 48"><defs><style>.cls-1{fill:#f05b4e;}</style></defs><title>Study-room</title><path class="cls-1" d="M12.628,15.785a.625.625,0,0,1-.541-.312l-.211-.366A5.689,5.689,0,0,1,12.2,8.929L11,6.85a2.733,2.733,0,0,1,1-3.734l1.46-.843a2.736,2.736,0,0,1,3.733,1l1.2,2.079a5.7,5.7,0,0,1,5.515,2.806l.211.365a.626.626,0,0,1-.229.854L12.94,15.7A.629.629,0,0,1,12.628,15.785Zm2.2-12.628a1.48,1.48,0,0,0-.739.2l-1.46.844a1.483,1.483,0,0,0-.543,2.026L13.5,8.67a.625.625,0,0,1-.066.718,4.441,4.441,0,0,0-.57,4.916L22.723,8.61a4.44,4.44,0,0,0-4.542-1.964.629.629,0,0,1-.655-.3L16.114,3.9A1.486,1.486,0,0,0,14.827,3.157Z"/><path class="cls-1" d="M18.11,15.152a3.157,3.157,0,0,1-2.737-1.576l1.082-.625a1.9,1.9,0,0,0,3.3-1.905l1.083-.625a3.153,3.153,0,0,1-2.726,4.731Z"/><path class="cls-1" d="M18.668,23.788H4.423a.625.625,0,0,1-.625-.625v-.982a2.592,2.592,0,0,1,2.59-2.59H16.7a2.592,2.592,0,0,1,2.589,2.59v.982A.625.625,0,0,1,18.668,23.788Zm-13.62-1.25h13v-.357a1.341,1.341,0,0,0-1.339-1.34H6.388a1.341,1.341,0,0,0-1.34,1.34Z"/><rect class="cls-1" x="5.222" y="8.433" width="7.244" height="1.25" transform="translate(-3.617 6.826) rotate(-35.527)"/><rect class="cls-1" x="7.641" y="11.839" width="1.25" height="7.42" transform="translate(-8.41 9.892) rotate(-43.264)"/><path class="cls-1" d="M4.915,13.964a2.1,2.1,0,1,1,2.1-2.1A2.1,2.1,0,0,1,4.915,13.964Zm0-2.948a.849.849,0,1,0,.848.849A.85.85,0,0,0,4.915,11.016Z"/><path class="cls-1" d="M13.4,19.725h-1.25a.849.849,0,1,0-1.7,0H9.2a2.1,2.1,0,1,1,4.2,0Z"/><rect class="cls-1" x="43" y="24" width="2" height="22"/><rect class="cls-1" x="3" y="24" width="2" height="21"/><rect class="cls-1" x="18" y="24" width="2" height="21"/><rect class="cls-1" x="1" y="23" width="46" height="2"/><path class="cls-1" d="M19,33H4a1,1,0,0,1-1-1V24a1,1,0,0,1,1-1H19a1,1,0,0,1,1,1v8A1,1,0,0,1,19,33ZM5,31H18V25H5Z"/><path class="cls-1" d="M19,41H4a1,1,0,0,1-1-1V32a1,1,0,0,1,1-1H19a1,1,0,0,1,1,1v8A1,1,0,0,1,19,41ZM5,39H18V33H5Z"/><rect class="cls-1" x="10" y="26" width="3" height="2"/><rect class="cls-1" x="10" y="34" width="3" height="2"/></svg>