<svg id="Layer_1" data-name="Layer 1" xmlns="http://www.w3.org/2000/svg" viewBox="0 0 48 48"><defs><style>.cls-1{fill:#f05b4e;}</style></defs><title>Supersized-rooms</title><path class="cls-1" d="M39.383,21.519H37.4V16.557c0-.555,0-.993-1.489-.993s-1.489.438-1.489.993H32.436c0-1.358.6-2.977,3.473-2.977s3.474,1.619,3.474,2.977Z"/><path class="cls-1" d="M44.345,21.519H42.36V16.557c0-.555,0-.993-1.489-.993s-1.488.438-1.488.993H37.4c0-1.358.6-2.977,3.473-2.977s3.474,1.619,3.474,2.977Z"/><rect class="cls-1" x="32.436" y="13.58" width="1.984" height="7.939"/><path class="cls-1" d="M47.322,12.586H42.36a.992.992,0,0,1-.992-.992V10.6a.991.991,0,0,1,.328-.737A32.17,32.17,0,0,1,44.343,7.71c.543-.4.767-.572.872-.763a1.369,1.369,0,0,0,.065-.941.441.441,0,0,0-.324-.271,1.637,1.637,0,0,0-1.243.052.869.869,0,0,0-.425.59l-1.922-.494A2.846,2.846,0,0,1,42.75,4.05a3.592,3.592,0,0,1,2.805-.208A2.409,2.409,0,0,1,47.123,5.27,3.3,3.3,0,0,1,46.954,7.9a4.4,4.4,0,0,1-1.432,1.4c-.416.308-.945.7-1.652,1.3h3.452Z"/><path class="cls-1" d="M23.5,44.344a.983.983,0,0,1-.326-.055L.352,36.35a.992.992,0,0,1-.666-.937V18.541A.992.992,0,0,1,.352,17.6l22.826-7.94a1.011,1.011,0,0,1,.652,0l6.354,2.21-.653,1.875-6.027-2.1L1.67,19.247v15.46L23.5,42.3l21.834-7.594V23.563h1.984v11.85a.992.992,0,0,1-.666.937L23.83,44.289A.983.983,0,0,1,23.5,44.344Z"/><path class="cls-1" d="M4.477,34.192,3.82,32.319l19.356-6.775a1,1,0,0,1,.656,0l19.353,6.774-.657,1.873L23.5,27.533Z"/><rect class="cls-1" x="22.512" y="14.572" width="1.984" height="11.909"/></svg>