<svg id="Layer_1" data-name="Layer 1" xmlns="http://www.w3.org/2000/svg" viewBox="0 0 48 48"><defs><style>.cls-1{fill:#f05b4e;}</style></defs><title>Super-market</title><path class="cls-1" d="M39.5,32h-22.8V30H39.5a2.009,2.009,0,0,0,1.873-1.3l4.268-10.38a.974.974,0,0,0-.126-.892A.987.987,0,0,0,44.69,17h-30V15h30a3,3,0,0,1,2.81,4.053L43.231,29.434A4.007,4.007,0,0,1,39.5,32Z"/><path class="cls-1" d="M40.692,39H21.316a3.816,3.816,0,0,1-3.546-2.586C17.015,34.786,11.207,16.846,9.964,13H.692V11H11.42l.224.693c1.989,6.17,7.3,22.489,7.94,23.879C20.139,36.766,20.639,37,21.316,37H40.692Z"/><path class="cls-1" d="M19.685,48a4.008,4.008,0,1,1,4.007-4.007A4.012,4.012,0,0,1,19.685,48Zm0-6.015a2.008,2.008,0,1,0,2.007,2.008A2.011,2.011,0,0,0,19.685,41.985Z"/><path class="cls-1" d="M37.7,48a4.008,4.008,0,1,1,4.008-4.007A4.012,4.012,0,0,1,37.7,48Zm0-6.015a2.008,2.008,0,1,0,2.008,2.008A2.01,2.01,0,0,0,37.7,41.985Z"/><polygon class="cls-1" points="23.692 10 21.692 10 21.692 0 39.692 0 39.692 5 37.692 5 37.692 2 23.692 2 23.692 10"/><polygon class="cls-1" points="35.692 14 33.692 14 33.692 11 19.692 11 19.692 14 17.692 14 17.692 9 35.692 9 35.692 14"/><polygon class="cls-1" points="43.692 14 41.692 14 41.692 6 29.692 6 29.692 10 27.692 10 27.692 4 43.692 4 43.692 14"/></svg>