<svg id="Layer_1" data-name="Layer 1" xmlns="http://www.w3.org/2000/svg" viewBox="0 0 48 48"><defs><style>.cls-1{fill:none;stroke:#054d7f;stroke-linecap:round;stroke-linejoin:round;stroke-width:0.545px;}.cls-2{fill:#fff;}</style></defs><title>secure site key entry</title><line class="cls-1" x1="24" y1="9.34" x2="8.084" y2="21.316"/><line class="cls-1" x1="11.07" y1="21.497" x2="11.07" y2="38.66"/><line class="cls-1" x1="11.07" y1="38.66" x2="36.93" y2="38.66"/><line class="cls-1" x1="24" y1="13.357" x2="17.919" y2="17.932"/><line class="cls-1" x1="24" y1="9.34" x2="39.916" y2="21.316"/><line class="cls-1" x1="36.93" y1="21.497" x2="36.93" y2="38.66"/><line class="cls-1" x1="24" y1="13.357" x2="30.081" y2="17.932"/><line class="cls-1" x1="27.939" y1="24.726" x2="29.111" y2="24.726"/><line class="cls-1" x1="27.939" y1="27.257" x2="29.111" y2="27.257"/><line class="cls-1" x1="27.939" y1="29.788" x2="29.111" y2="29.788"/><line class="cls-1" x1="18.519" y1="27.257" x2="19.691" y2="27.257"/><line class="cls-1" x1="18.519" y1="29.788" x2="19.691" y2="29.788"/><line class="cls-1" x1="26.346" y1="31.381" x2="26.346" y2="32.553"/><line class="cls-1" x1="23.815" y1="31.381" x2="23.815" y2="32.553"/><line class="cls-1" x1="21.283" y1="31.381" x2="21.283" y2="32.553"/><line class="cls-1" x1="26.346" y1="21.961" x2="26.346" y2="23.133"/><line class="cls-1" x1="23.815" y1="21.961" x2="23.815" y2="23.133"/><path class="cls-2" d="M23.26,24.725a2.036,2.036,0,0,1-2.035,2.036v3.027h5.063V24.725Z"/><circle class="cls-1" cx="24" cy="27.521" r="7.634"/></svg>