<svg id="Layer_1" data-name="Layer 1" xmlns="http://www.w3.org/2000/svg" viewBox="0 0 48 48"><defs><style>.cls-1{fill:#f05b4e;}</style></defs><title>Swimming-pool</title><path class="cls-1" d="M7.464,32.274,6.2,30.727l4.227-3.468a3.152,3.152,0,0,1,4.415.315l1.578,1.662a1.174,1.174,0,0,0,1.727.121l2.374-2.046a3.147,3.147,0,0,1,4.4.177l1.8,1.79a1.168,1.168,0,0,0,1.721.053l2.161-1.959a3.149,3.149,0,0,1,4.4.04l2.028,1.9A1.169,1.169,0,0,0,38.75,29.3l1.942-1.86a3.146,3.146,0,0,1,4.4-.094l2.244,1.995-1.329,1.494-2.244-1.995a1.167,1.167,0,0,0-1.686.044l-1.942,1.86a3.173,3.173,0,0,1-4.471.028l-2.028-1.9a1.167,1.167,0,0,0-1.685-.018l-2.161,1.96a3.176,3.176,0,0,1-4.474-.115l-1.8-1.79a1.171,1.171,0,0,0-1.689-.082l-2.374,2.046a3.178,3.178,0,0,1-4.483-.259l-1.578-1.662a1.172,1.172,0,0,0-1.7-.145Z"/><path class="cls-1" d="M1.964,40.274.7,38.727l4.227-3.468a3.152,3.152,0,0,1,4.415.315l1.578,1.662a1.173,1.173,0,0,0,1.727.121l2.374-2.046a3.147,3.147,0,0,1,4.4.177l1.8,1.79a1.169,1.169,0,0,0,1.721.053l2.161-1.959a3.148,3.148,0,0,1,4.4.04l2.028,1.9A1.169,1.169,0,0,0,33.25,37.3l1.942-1.86a3.145,3.145,0,0,1,4.4-.094l2.244,1.995-1.329,1.494-2.244-1.995a1.168,1.168,0,0,0-1.686.044l-1.942,1.86a3.175,3.175,0,0,1-4.471.028l-2.028-1.9a1.167,1.167,0,0,0-1.685-.018l-2.161,1.96a3.176,3.176,0,0,1-4.474-.115l-1.8-1.79a1.17,1.17,0,0,0-1.689-.082l-2.374,2.046a3.18,3.18,0,0,1-4.483-.259L7.887,36.951a1.171,1.171,0,0,0-1.7-.145Z"/><path class="cls-1" d="M33.137,27.631h-2V11.5a2,2,0,0,0-4,0h-2a4,4,0,0,1,8,0Z"/><path class="cls-1" d="M22.137,28.313h-2V11.5a2,2,0,0,0-4,0h-2a4,4,0,0,1,8,0Z"/><rect class="cls-1" x="23.137" y="15.5" width="9" height="2"/><rect class="cls-1" x="23.137" y="21.5" width="9" height="2"/></svg>