<svg id="Layer_1" data-name="Layer 1" xmlns="http://www.w3.org/2000/svg" viewBox="0 0 48 48"><defs><style>.cls-1{fill:#f05b4e;}</style></defs><title>Table-tennis</title><path class="cls-1" d="M27.324,36.492A16.158,16.158,0,0,1,15.86,32.14a16.271,16.271,0,0,1-4.344-12.347A19.812,19.812,0,0,1,17.274,6.684C24.682-.724,36.1-1.358,42.73,5.27c5.538,5.537,6.065,14.866,1.255,22.182l-1.672-1.1c4.292-6.527,3.873-14.8-1-19.669C35.566.935,25.2,1.583,18.688,8.1a18.06,18.06,0,0,0-5.174,11.79,14.279,14.279,0,0,0,3.76,10.838c3.953,3.951,10.952,4.917,17.023,2.349l.779,1.842A19.978,19.978,0,0,1,27.324,36.492Z"/><path class="cls-1" d="M6.441,47.28a6.061,6.061,0,0,1-4.016-1.7A5.962,5.962,0,0,1,.731,41.263a2.83,2.83,0,0,1,1.1-2.149A104.219,104.219,0,0,0,10.2,32.14c1.417-1.417,1.829-2.517,1.829-7.071h2c0,4.822-.5,6.567-2.415,8.485a108.017,108.017,0,0,1-8.6,7.168.894.894,0,0,0-.294.689,3.945,3.945,0,0,0,1.113,2.75,3.932,3.932,0,0,0,2.749,1.114.9.9,0,0,0,.69-.3,108.492,108.492,0,0,1,7.168-8.6c1.918-1.918,3.663-2.414,8.486-2.414v2c-4.555,0-5.655.412-7.072,1.828a104.5,104.5,0,0,0-6.974,8.373,2.828,2.828,0,0,1-2.149,1.1C6.64,47.276,6.541,47.28,6.441,47.28Z"/><path class="cls-1" d="M38.484,36.879A6.911,6.911,0,1,1,45.4,29.968,6.918,6.918,0,0,1,38.484,36.879Zm0-11.822A4.911,4.911,0,1,0,43.4,29.968,4.916,4.916,0,0,0,38.485,25.057Z"/></svg>