<svg id="Layer_1" data-name="Layer 1" xmlns="http://www.w3.org/2000/svg" viewBox="0 0 48 48"><defs><style>.cls-1{fill:#f05b4e;}</style></defs><title>Tennis</title><path class="cls-1" d="M24,46A22,22,0,0,1,24,2h0a22,22,0,0,1,0,44ZM24,4A20,20,0,1,0,38.143,9.858,20.024,20.024,0,0,0,24,4Z"/><path class="cls-1" d="M6.575,24.545a1,1,0,0,1-.147-1.988,14.516,14.516,0,0,1,2.89-.14,1,1,0,1,1-.1,2,12.581,12.581,0,0,0-2.494.119A.955.955,0,0,1,6.575,24.545Z"/><path class="cls-1" d="M15.7,26.23a1.008,1.008,0,0,1-.469-.117A14.974,14.974,0,0,0,12.4,24.959a1,1,0,0,1,.561-1.919,16.938,16.938,0,0,1,3.207,1.307A1,1,0,0,1,15.7,26.23Z"/><path class="cls-1" d="M24.456,42.424a1.078,1.078,0,0,1-.149-.011,1,1,0,0,1-.841-1.137,12.527,12.527,0,0,0,.119-2.494,1,1,0,1,1,2-.1,14.621,14.621,0,0,1-.139,2.89A1,1,0,0,1,24.456,42.424Z"/><path class="cls-1" d="M24,36.317a1,1,0,0,1-.96-.719,15.074,15.074,0,0,0-1.154-2.829,1,1,0,1,1,1.765-.939,17,17,0,0,1,1.309,3.206,1,1,0,0,1-.679,1.241A1.015,1.015,0,0,1,24,36.317Z"/><path class="cls-1" d="M21.1,30.741a1,1,0,0,1-.785-.379,16.493,16.493,0,0,0-2.671-2.672,1,1,0,0,1,1.242-1.567,18.283,18.283,0,0,1,1.584,1.413,18.528,18.528,0,0,1,1.413,1.584,1,1,0,0,1-.783,1.621Z"/><path class="cls-1" d="M23.416,10.267a1,1,0,0,1-1-.95,14.541,14.541,0,0,1,.14-2.891,1,1,0,0,1,1.978.3,12.432,12.432,0,0,0-.12,2.493,1,1,0,0,1-.948,1.049Z"/><path class="cls-1" d="M25.232,16.7a1,1,0,0,1-.883-.532,16.991,16.991,0,0,1-1.309-3.206,1,1,0,0,1,1.92-.561,15.128,15.128,0,0,0,1.154,2.83,1,1,0,0,1-.882,1.469Z"/><path class="cls-1" d="M39.437,25.6q-.376,0-.754-.019a1,1,0,1,1,.1-2,12.489,12.489,0,0,0,2.492-.119,1,1,0,1,1,.3,1.977A14.38,14.38,0,0,1,39.437,25.6Z"/><path class="cls-1" d="M35.318,25a.979.979,0,0,1-.28-.041,16.944,16.944,0,0,1-3.206-1.307,1,1,0,1,1,.938-1.766A15.119,15.119,0,0,0,35.6,23.04,1,1,0,0,1,35.318,25Z"/><path class="cls-1" d="M29.741,22.093a1,1,0,0,1-.62-.216,18.486,18.486,0,0,1-1.585-1.413,18.726,18.726,0,0,1-1.412-1.584,1,1,0,1,1,1.566-1.243,16.86,16.86,0,0,0,1.26,1.413,16.409,16.409,0,0,0,1.413,1.259,1,1,0,0,1-.622,1.784Z"/></svg>