<svg id="Layer_1" data-name="Layer 1" xmlns="http://www.w3.org/2000/svg" viewBox="0 0 48 48"><defs><style>.cls-1{fill:#f05b4e;}</style></defs><title>Terrace</title><path class="cls-1" d="M1,39.523a1,1,0,0,1-1-1V9.5a5.942,5.942,0,0,1,6-6,1,1,0,0,1,1,1v29a1,1,0,0,1-1,1,3.973,3.973,0,0,0-4,4.023A1,1,0,0,1,1,39.523ZM5,5.617A3.983,3.983,0,0,0,2,9.5V33.994a5.74,5.74,0,0,1,3-1.418Z"/><path class="cls-1" d="M47,44.5H6.022A6.017,6.017,0,0,1,0,38.5H2a4.065,4.065,0,0,0,4.022,4H46v-31H6v-2H47a1,1,0,0,1,1,1v33A1,1,0,0,1,47,44.5Z"/><polygon class="cls-1" points="25 32.5 12 32.5 12 15.5 25 15.5 25 20.5 23 20.5 23 17.5 14 17.5 14 30.5 23 30.5 23 23.5 25 23.5 25 32.5"/><polygon class="cls-1" points="41 27.5 36 27.5 36 25.5 39 25.5 39 17.5 24 17.5 24 15.5 41 15.5 41 27.5"/><polygon class="cls-1" points="37 38.5 19 38.5 19 31.5 21 31.5 21 36.5 35 36.5 35 27.5 32 27.5 32 25.5 37 25.5 37 38.5"/><rect class="cls-1" x="24" y="25.5" width="5" height="2"/></svg>