<svg id="Layer_1" data-name="Layer 1" xmlns="http://www.w3.org/2000/svg" viewBox="0 0 48 48"><defs><style>.cls-1{fill:#f05b4e;}</style></defs><title>Toilet</title><path class="cls-1" d="M29.517,34.17a7.611,7.611,0,0,1-1.746-.2,1,1,0,1,1,.458-1.947,7.8,7.8,0,0,0,5.96-1.4,6.12,6.12,0,0,0,2.821-3.766,1,1,0,0,1,1.98.285,7.985,7.985,0,0,1-3.674,5.133A10.485,10.485,0,0,1,29.517,34.17Z"/><path class="cls-1" d="M29,38a17.388,17.388,0,0,1-8.421-2.093l.842-1.814A15.553,15.553,0,0,0,29,36c5.011,0,12-4.185,12-11H5V6H7V23H43v2C43,32.661,35.622,38,29,38Z"/><rect class="cls-1" x="20" y="6" width="2" height="16"/><polygon class="cls-1" points="34 48 11 48 11 38.586 15 34.586 15 32.414 11 28.414 11 24 13 24 13 27.586 17 31.586 17 35.414 13 39.414 13 46 32 46 32 44.414 28 40.414 28 37 30 37 30 39.586 34 43.586 34 48"/><polygon class="cls-1" points="12 46 5 46 5 38 12 38 12 40 7 40 7 44 12 44 12 46"/><rect class="cls-1" x="24" y="20" width="19" height="2"/><path class="cls-1" d="M23,7H4V0H23ZM6,5H21V2H6Z"/></svg>