<svg id="Layer_1" data-name="Layer 1" xmlns="http://www.w3.org/2000/svg" viewBox="0 0 48 48"><defs><style>.cls-1{fill:#f05b4e;}</style></defs><title>Towel</title><path class="cls-1" d="M11,29H7a1,1,0,0,1-1-1V16H8V27h3Z"/><rect class="cls-1" y="14" width="13" height="2"/><path class="cls-1" d="M38,40H13a1,1,0,0,1-1-1V13a2.211,2.211,0,0,0-1.282-2H0V9H6.083A6.01,6.01,0,0,1,12,4H33a6.006,6.006,0,0,1,6,6V39A1,1,0,0,1,38,40ZM14,38H37V10a4,4,0,0,0-4-4H12A4.005,4.005,0,0,0,8.127,9H11a1,1,0,0,1,.509.14A4.375,4.375,0,0,1,14,13Z"/><rect class="cls-1" x="38" y="14" width="10" height="2"/><rect class="cls-1" x="38" y="9" width="10" height="2"/><rect class="cls-1" x="12" y="39" width="2" height="4"/><rect class="cls-1" x="6" y="27" width="2" height="4"/><rect class="cls-1" x="17" y="39" width="2" height="4"/><rect class="cls-1" x="22" y="39" width="2" height="4"/><rect class="cls-1" x="27" y="39" width="2" height="4"/><rect class="cls-1" x="32" y="39" width="2" height="4"/><rect class="cls-1" x="37" y="39" width="2" height="4"/></svg>