<svg id="Layer_1" data-name="Layer 1" xmlns="http://www.w3.org/2000/svg" viewBox="0 0 48 48"><defs><style>.cls-1{fill:#f05b4e;}</style></defs><title>Trash-system</title><path class="cls-1" d="M36,47H12a4,4,0,0,1-4-4V11H40V43A4,4,0,0,1,36,47ZM10,13V43a2,2,0,0,0,2,2H36a2,2,0,0,0,2-2V13Z"/><path class="cls-1" d="M42,13H6V8A3,3,0,0,1,9,5H39a3,3,0,0,1,3,3ZM8,11H40V8a1,1,0,0,0-1-1H9A1,1,0,0,0,8,8Z"/><path class="cls-1" d="M31,6H29V4a1,1,0,0,0-1-1H20a1,1,0,0,0-1,1V6H17V4a3,3,0,0,1,3-3h8a3,3,0,0,1,3,3Z"/><rect class="cls-1" x="16" y="18" width="2" height="21"/><rect class="cls-1" x="23" y="18" width="2" height="21"/><rect class="cls-1" x="30" y="18" width="2" height="21"/></svg>