<svg id="Layer_1" data-name="Layer 1" xmlns="http://www.w3.org/2000/svg" viewBox="0 0 80 80"><defs><style>.cls-1{fill:#054d7f;}.cls-2{fill:#fff;}</style></defs><title>university_icon</title><path class="cls-1" d="M60.08,9.77A28.4,28.4,0,0,0,11.6,29.86a24.53,24.53,0,0,0,3.73,13.52C17.58,47,20.59,50,23.78,53.16,29.66,59,36.33,65.62,39.18,77.89a.84.84,0,0,0,1.64,0C43.66,65.62,50.34,59,56.22,53.16,59.41,50,62.43,47,64.67,43.38A24.53,24.53,0,0,0,68.4,29.86,28.21,28.21,0,0,0,60.08,9.77Z"/><path class="cls-2" d="M26.1,26.17v16c0,1.79,6,3.23,13.32,3.23S52.74,44,52.74,42.16v-16L39.42,31Z"/><polygon class="cls-2" points="58.54 22.17 63.23 20.46 39.43 15.03 15.63 20.46 39.43 29.12 54.66 23.58 57.7 37.3 58.6 34.28 60.81 36.19 56.96 23.65 62.2 32.01 62.06 29.18 64.37 29.91 58.54 22.17"/></svg>