<svg id="Layer_1" data-name="Layer 1" xmlns="http://www.w3.org/2000/svg" viewBox="0 0 48 48"><defs><style>.cls-1{fill:#f05b4e;}</style></defs><title>USB-wall-socket</title><path class="cls-1" d="M29.613,46.206a.757.757,0,0,1-.378-.1l-10-5.824a.753.753,0,0,1-.27-1.027l4.11-7.057,1.3.756-3.733,6.409,8.7,5.069,3.733-6.41,1.3.756-4.111,7.057a.755.755,0,0,1-.457.348A.738.738,0,0,1,29.613,46.206Z"/><path class="cls-1" d="M35.585,38.658a.76.76,0,0,1-.377-.1l-12.35-7.194a.753.753,0,0,1-.27-1.027l7.194-12.349a3.473,3.473,0,0,1,4.749-1.253l7.646,4.454a3.478,3.478,0,0,1,1.252,4.748L36.234,38.286A.751.751,0,0,1,35.585,38.658ZM24.262,30.443l11.053,6.439,6.817-11.7a1.973,1.973,0,0,0-.711-2.7L33.775,18.03a1.971,1.971,0,0,0-2.7.711Z"/><rect class="cls-1" x="38.094" y="17.362" width="5.444" height="1.501" transform="translate(4.615 44.256) rotate(-59.765)"/><rect class="cls-1" x="35.154" y="15.649" width="5.444" height="1.501" transform="translate(4.635 40.865) rotate(-59.765)"/><rect class="cls-1" x="23.251" y="37.066" width="2.722" height="1.501" transform="translate(-20.454 40.038) rotate(-59.765)"/><rect class="cls-1" x="27.367" y="39.464" width="2.723" height="1.501" transform="translate(-20.482 44.785) rotate(-59.765)"/><path class="cls-1" d="M29.653,31.264a.749.749,0,0,1-.577-1.228l2.079-2.506-2.176-1.267a.75.75,0,0,1,.145-1.361l7.788-2.552a.75.75,0,0,1,.811,1.192l-2.079,2.5,2.175,1.267a.75.75,0,0,1-.143,1.361l-7.789,2.553A.757.757,0,0,1,29.653,31.264Zm1.525-5.457,1.5.872a.751.751,0,0,1,.2,1.127l-.983,1.186,3.729-1.223-1.5-.872a.752.752,0,0,1-.2-1.128l.982-1.184Z"/><rect class="cls-1" x="7.619" y="1.375" width="2" height="9.427"/><rect class="cls-1" x="17.046" y="1.375" width="2" height="9.427"/><path class="cls-1" d="M15.238,26.885h-3.77a4.785,4.785,0,0,1-4.791-4.77V18.074c-1.416-.546-2.828-1.386-2.828-2.558V10.8a1,1,0,0,1,1-1H21.817a1,1,0,0,1,1,1v4.714c0,1.172-1.412,2.012-2.828,2.558v4.041A4.765,4.765,0,0,1,15.238,26.885ZM5.849,15.361a7.078,7.078,0,0,0,2.139,1.057,1,1,0,0,1,.689.951v4.746a2.784,2.784,0,0,0,2.791,2.77h3.77a2.764,2.764,0,0,0,2.751-2.77V17.369a1,1,0,0,1,.689-.951,7.078,7.078,0,0,0,2.139-1.057V11.8H5.849Z"/><rect class="cls-1" x="10.505" y="16.401" width="5.656" height="2"/><rect class="cls-1" x="10.505" y="20.172" width="5.656" height="2"/><rect class="cls-1" x="12.333" y="25.885" width="2" height="20.739"/></svg>