<svg id="Layer_1" data-name="Layer 1" xmlns="http://www.w3.org/2000/svg" viewBox="0 0 48 48"><defs><style>.cls-1{fill:#f05b4e;}</style></defs><title>Utensils</title><polygon class="cls-1" points="26 28 24 28 24 26.414 23 25.414 23 22 25 22 25 24.586 26 25.586 26 28"/><polygon class="cls-1" points="28 20 26 20 26 16.586 27 15.586 27 13 29 13 29 16.414 28 17.414 28 20"/><path class="cls-1" d="M14,41H5a3,3,0,0,1-3-3V17.414l-1-1V13H3v2.586l1,1V38a1,1,0,0,0,1,1h9Z"/><path class="cls-1" d="M27,41H16V38.444c-2.735-2.533-4.044-5.3-4-8.458L12.014,29H30.986l.014.986c.044,3.155-1.265,5.925-4,8.458Zm-9-2h7V37.549l.338-.3A9.668,9.668,0,0,0,28.956,31H14.044a9.668,9.668,0,0,0,3.618,6.25l.338.3Z"/><path class="cls-1" d="M38,22H36V19a1,1,0,0,0-2,0v3H32V19a3,3,0,0,1,6,0Z"/><path class="cls-1" d="M19,13H17V10a1,1,0,0,0-2,0v3H13V10a3,3,0,0,1,6,0Z"/><rect class="cls-1" x="22" y="21" width="26" height="2"/><path class="cls-1" d="M43,41H29V39H43a1,1,0,0,0,1-1V25.586l1-1V22h2v3.414l-1,1V38A3,3,0,0,1,43,41Z"/><rect class="cls-1" y="12" width="30" height="2"/><rect class="cls-1" x="3" y="16" width="4" height="2"/><rect class="cls-1" x="25" y="25" width="4" height="2"/><rect class="cls-1" x="36" y="25" width="9" height="2"/><rect class="cls-1" x="17" y="16" width="10" height="2"/></svg>