<svg id="Layer_1" data-name="Layer 1" xmlns="http://www.w3.org/2000/svg" viewBox="0 0 48 48"><defs><style>.cls-1{fill:#f05b4e;}</style></defs><title>Utility-Bill</title><rect class="cls-1" x="20.379" y="16" width="20" height="2"/><rect class="cls-1" x="20.379" y="20" width="20" height="2"/><rect class="cls-1" x="20.379" y="24" width="15" height="2"/><rect class="cls-1" x="33.379" y="39" width="6" height="2"/><path class="cls-1" d="M24.423,40.043,23.338,40a9.42,9.42,0,0,1-5.666-2.292l-16-16a3.444,3.444,0,0,1-.2-4.733,3.286,3.286,0,0,1,4.61.319l16,16a9.411,9.411,0,0,1,2.292,5.666ZM3.484,18.17a.821.821,0,0,0-.594.218,1.464,1.464,0,0,0,.2,1.9l16,16A6.408,6.408,0,0,0,22.2,37.819a6.37,6.37,0,0,0-1.529-3.112l-16-16A1.755,1.755,0,0,0,3.484,18.17Z"/><rect class="cls-1" x="5.074" y="21.12" width="3.097" height="2" transform="translate(-13.702 11.162) rotate(-45)"/><rect class="cls-1" x="30.379" y="39" width="2" height="2"/><path class="cls-1" d="M44.379,47h-29a3,3,0,0,1-3-3V32h2V44a1,1,0,0,0,1,1h29a1,1,0,0,0,1-1V9.414L38.965,3H15.379a1,1,0,0,0-1,1V26h-2V4a3,3,0,0,1,3-3H39.793l7.586,7.586V44A3,3,0,0,1,44.379,47Z"/><polygon class="cls-1" points="43.379 11 37.379 11 37.379 5 39.379 5 39.379 9 43.379 9 43.379 11"/></svg>