<svg id="Layer_1" data-name="Layer 1" xmlns="http://www.w3.org/2000/svg" viewBox="0 0 48 48"><defs><style>.cls-1{fill:#f05b4e;}</style></defs><title>Visa-services</title><path class="cls-1" d="M39.11,47.5H9a2.089,2.089,0,0,1-2-2.117V5.5H39.11A1.8,1.8,0,0,1,41,7.383v38A1.992,1.992,0,0,1,39.11,47.5ZM9,7.5V45.383a.215.215,0,0,0,.071.133l29.91-.016A.363.363,0,0,0,39,45.383V7.5Z"/><path class="cls-1" d="M9,8.5H7V5.278A2,2,0,0,1,8.78,3.29L34.838.512a1.891,1.891,0,0,1,1.5.476A2.025,2.025,0,0,1,37,2.5v2H35v-2L9,5.278Z"/><rect class="cls-1" x="17" y="34.5" width="14" height="2"/><path class="cls-1" d="M24,30.5a9,9,0,1,1,9-9A9.01,9.01,0,0,1,24,30.5Zm0-16a7,7,0,1,0,7,7A7.009,7.009,0,0,0,24,14.5Z"/><path class="cls-1" d="M24,30.5c-2.626,0-4-4.527-4-9s1.374-9,4-9,4,4.527,4,9S26.626,30.5,24,30.5Zm0-16c-.58,0-2,2.453-2,7s1.42,7,2,7,2-2.453,2-7S24.58,14.5,24,14.5Z"/><rect class="cls-1" x="17" y="20.5" width="14" height="2"/></svg>