<svg id="Layer_1" data-name="Layer 1" xmlns="http://www.w3.org/2000/svg" viewBox="0 0 48 48"><defs><style>.cls-1{fill:#f05b4e;}</style></defs><title>walk</title><path class="cls-1" d="M31.455,46.894a1,1,0,0,1-.948-.684l-3.084-9.25-8.071-4.623a6.376,6.376,0,0,1-2.781-5.243V17.059a1,1,0,0,1,2,0V27.094a4.345,4.345,0,0,0,1.851,3.555l8.326,4.765a1,1,0,0,1,.451.552l3.2,9.611a1,1,0,0,1-.948,1.317Zm4.313,0a1,1,0,0,1-.963-.736L31.661,34.706,24.4,28.5a1,1,0,0,1-.35-.76V17.059c0-1.005-.372-1.223-1.8-1.894-.274-.13-.564-.267-.865-.421A4.219,4.219,0,0,0,17,14.723a23.728,23.728,0,0,0-3.02,2.039,2.4,2.4,0,0,0-.748,1.8V25.6a1,1,0,0,1-2,0V18.559A4.35,4.35,0,0,1,12.7,15.222a25.527,25.527,0,0,1,3.305-2.236,6.187,6.187,0,0,1,6.293-.021c.279.143.55.27.8.391,1.447.682,2.942,1.388,2.942,3.7V27.277l7.146,6.109a.993.993,0,0,1,.315.495l3.224,11.748a1,1,0,0,1-.7,1.228A.979.979,0,0,1,35.768,46.894Z"/><path class="cls-1" d="M16.5,46.894a1,1,0,0,1-.911-1.411l5.658-12.571a1,1,0,1,1,1.824.82L17.415,46.3A1,1,0,0,1,16.5,46.894Z"/><path class="cls-1" d="M12.231,46.894a1,1,0,0,1-.933-1.358l6.126-16.018a1,1,0,1,1,1.867.714L13.165,46.251A1,1,0,0,1,12.231,46.894Z"/><path class="cls-1" d="M23.979,11.65a5.272,5.272,0,1,1,5.272-5.272A5.278,5.278,0,0,1,23.979,11.65Zm0-8.544a3.272,3.272,0,1,0,3.272,3.272A3.276,3.276,0,0,0,23.979,3.106Z"/><path class="cls-1" d="M31.455,27.67a1,1,0,0,1-.656-.245l-6.408-5.573a1,1,0,1,1,1.312-1.51l6.408,5.573a1,1,0,0,1-.656,1.755Z"/></svg>