<svg id="Layer_1" data-name="Layer 1" xmlns="http://www.w3.org/2000/svg" viewBox="0 0 48 48"><defs><style>.cls-1{fill:#f05b4e;}</style></defs><title>Waste-removal</title><polygon class="cls-1" points="29.5 41.135 21.689 34.627 29.5 27.798 29.5 31 32.5 31 32.5 33 27.5 33 27.5 32.202 24.769 34.59 27.5 36.865 27.5 36 32.896 36 35.038 31.93 32.206 27.145 33.927 26.125 37.328 31.873 34.104 38 29.5 38 29.5 41.135"/><polygon class="cls-1" points="21.5 39 13.92 39 10.513 33.046 12.8 29.084 10.085 27.517 19.627 24.007 21.636 34.185 18.862 32.584 17.362 35.182 15.63 34.182 18.13 29.852 18.821 30.251 18.119 26.692 14.783 27.919 15.532 28.352 12.819 33.05 15.08 37 21.5 37 21.5 39"/><polygon class="cls-1" points="31.281 27.857 21.462 24.506 24.235 22.904 22.735 20.307 24.467 19.307 26.967 23.637 26.276 24.035 29.709 25.206 30.314 21.704 29.606 22.112 26.955 18 22.083 18 19.542 22.49 17.802 21.506 20.917 16 28.045 16 30.256 19.429 33.012 17.837 31.281 27.857"/><path class="cls-1" d="M37.752,48h-27.5a3.01,3.01,0,0,1-2.973-2.6L2.621,10.966a3.022,3.022,0,0,1,.605-2.243L9.11,1.158A2.98,2.98,0,0,1,11.478,0H36.522A2.98,2.98,0,0,1,38.89,1.158l5.884,7.565a3.022,3.022,0,0,1,.6,2.243L40.725,45.4A3.01,3.01,0,0,1,37.752,48ZM11.478,2a.992.992,0,0,0-.789.387L4.805,9.951a1,1,0,0,0-.2.747L9.257,45.134a1,1,0,0,0,.991.866h27.5a1,1,0,0,0,.991-.866L43.4,10.7a1,1,0,0,0-.2-.747L37.311,2.387A.992.992,0,0,0,36.522,2Z"/><rect class="cls-1" x="3.5" y="10" width="41" height="2"/></svg>