<svg id="Layer_1" data-name="Layer 1" xmlns="http://www.w3.org/2000/svg" viewBox="0 0 48 48"><defs><style>.cls-1{fill:#f05b4e;}</style></defs><title>Wheelchair-access</title><path class="cls-1" d="M12.309,34.509a6.212,6.212,0,0,0,6.205,6.2,1.265,1.265,0,0,1,0,2.529,8.744,8.744,0,0,1-8.733-8.734,1.264,1.264,0,1,1,2.528,0ZM42.8,46.094l-8.358-14.2a1.265,1.265,0,0,0-1.089-.623H19.778V18.453a1.264,1.264,0,0,0-2.528,0v14.08A1.264,1.264,0,0,0,18.514,33.8H32.631l7.991,13.58A1.265,1.265,0,0,0,41.713,48,1.265,1.265,0,0,0,42.8,46.094ZM11.29,7.266a7.266,7.266,0,1,1,7.265,7.265A7.273,7.273,0,0,1,11.29,7.266Zm2.529,0a4.737,4.737,0,1,0,4.736-4.738A4.742,4.742,0,0,0,13.819,7.266Zm16.6,30.3a1.264,1.264,0,0,0-1.624.747A10.964,10.964,0,1,1,13.251,24.891a1.264,1.264,0,0,0-1.216-2.217,13.492,13.492,0,1,0,19.134,16.52A1.265,1.265,0,0,0,30.422,37.569Z"/></svg>